<svg xmlns="http://www.w3.org/2000/svg" width="49.498" height="30.998" viewBox="0 0 49.498 30.998">
  <g id="amd" transform="translate(-100.502 -655.003)">
    <path id="Subtraction_302" data-name="Subtraction 302" d="M-10049.435,463.5h-25.9l-1.666-1.656v-1.646h3.313V435.169a1.664,1.664,0,0,1,1.654-1.669h38.063a1.665,1.665,0,0,1,1.657,1.669V452.5h-1.657V435.169l-38.063,0v23.327h21.833v3a2.987,2.987,0,0,0,.763,2Z" transform="translate(10178 222.003)" fill="#eee" stroke="rgba(0,0,0,0)" stroke-width="1"/>
    <g id="Rectangle_577" data-name="Rectangle 577" transform="translate(129 675.5)" fill="none" stroke="#eee" stroke-width="1">
      <rect width="21" height="10" rx="2" stroke="none"/>
      <rect x="0.5" y="0.5" width="20" height="9" rx="1.5" fill="none"/>
    </g>
    <path id="Path_8431" data-name="Path 8431" d="M-5.09-1.227h-2L-7.473,0H-8.625l1.957-5.687H-5.5L-3.551,0H-4.7ZM-6.8-2.121h1.434l-.7-2.234H-6.1Zm5.273-3.566L-.082-1.5h.023L1.4-5.687H2.895V0H1.754V-1.7l.109-2.512-.023,0L.316,0H-.449L-1.965-4.2l-.023,0,.109,2.5V0H-3.02V-5.687ZM3.961,0V-5.687H5.914a2.347,2.347,0,0,1,1.719.666,2.3,2.3,0,0,1,.676,1.709v.941A2.288,2.288,0,0,1,7.633-.662,2.354,2.354,0,0,1,5.914,0ZM5.1-4.809V-.875h.754a1.187,1.187,0,0,0,.961-.414,1.626,1.626,0,0,0,.348-1.082V-3.32a1.614,1.614,0,0,0-.348-1.074,1.187,1.187,0,0,0-.961-.414Z" transform="translate(139.691 683.5)" fill="#eee" stroke="rgba(0,0,0,0)" stroke-width="1"/>
  </g>
</svg>
