<svg id="icon-corexegpu" xmlns="http://www.w3.org/2000/svg" width="24" height="28" viewBox="0 0 24 28">
  <g id="Core_X_eGPU_icon_default" data-name="Core X eGPU icon default" transform="translate(-1338.121 87.782)">
    <path id="Path_8067" data-name="Path 8067" d="M1359.621-59.782h-19a2.5,2.5,0,0,1-2.5-2.5v-23a2.5,2.5,0,0,1,2.5-2.5h19a2.5,2.5,0,0,1,2.5,2.5v23A2.5,2.5,0,0,1,1359.621-59.782Zm-19-27a1.5,1.5,0,0,0-1.5,1.5v23a1.5,1.5,0,0,0,1.5,1.5h19a1.5,1.5,0,0,0,1.5-1.5v-23a1.5,1.5,0,0,0-1.5-1.5Z" fill="#eee"/>
    <rect id="Rectangle_610" data-name="Rectangle 610" width="1" height="24" transform="translate(1342.886 -85.782)" fill="#eee"/>
    <rect id="Rectangle_611" data-name="Rectangle 611" width="1" height="24" transform="translate(1340.205 -85.782)" fill="#eee"/>
    <rect id="Rectangle_612" data-name="Rectangle 612" width="1" height="24" transform="translate(1345.566 -85.782)" fill="#eee"/>
    <rect id="Rectangle_613" data-name="Rectangle 613" width="1" height="24" transform="translate(1348.247 -85.782)" fill="#eee"/>
    <rect id="Rectangle_614" data-name="Rectangle 614" width="1" height="24" transform="translate(1350.927 -85.782)" fill="#eee"/>
    <rect id="Rectangle_615" data-name="Rectangle 615" width="1" height="24" transform="translate(1356.288 -85.782)" fill="#eee"/>
    <rect id="Rectangle_616" data-name="Rectangle 616" width="1" height="24" transform="translate(1353.608 -85.782)" fill="#eee"/>
    <rect id="Rectangle_617" data-name="Rectangle 617" width="1" height="24" transform="translate(1358.968 -85.782)" fill="#eee"/>
  </g>
</svg>
