<?xml version="1.0" encoding="UTF-8"?><svg id="Layer_2" xmlns="http://www.w3.org/2000/svg" xmlns:xlink="http://www.w3.org/1999/xlink" viewBox="0 0 256.82 70"><defs><style>.cls-1{fill:#44d62c;}.cls-2{fill:#111;}.cls-3{clip-path:url(#clippath-1);}.cls-4{clip-path:url(#clippath);}.cls-5{fill:none;}.cls-6{fill:#ccc;}</style><clipPath id="clippath"><rect class="cls-5" width="70" height="70"/></clipPath><clipPath id="clippath-1"><rect class="cls-5" width="70" height="70"/></clipPath></defs><g id="Layer_1-2"><g><path class="cls-1" d="M143.41,18.25h-7.16v-1.24h7.88l-.71,1.24Zm-14.99-1.24h-5.78l5.07-8.78,.71-1.24h-7.92v1.24h5.78l-5.07,8.78-.71,1.24h7.21l.71-1.24Zm15.7-10.01h-7.88v1.24h7.16l.71-1.24Zm0,5.01h-7.88v1.24h7.16l.71-1.24Zm12.98,1.24h-.12l2.89,5.01h-1.43l-2.89-5.01h-2.32v5.01h-1.24V7h5.1c1.53,0,2.77,1.24,2.77,2.77v.7c0,1.53-1.24,2.77-2.77,2.77Zm-3.87-1.24h3.87c.85,0,1.53-.69,1.53-1.53v-.7c0-.85-.69-1.53-1.53-1.53h-3.87v3.77Zm-59.13,1.24h-.12l2.89,5.01h-1.43l-2.89-5.01h-2.32v5.01h-1.24V7h5.1c1.53,0,2.77,1.24,2.77,2.77v.7c0,1.53-1.24,2.77-2.77,2.77Zm-3.87-1.24h3.87c.85,0,1.53-.69,1.53-1.53v-.7c0-.85-.69-1.53-1.53-1.53h-3.87v3.77Zm15.22,6.24l3.21-7.95,3.21,7.95h1.33l-3.88-9.6-.67-1.65-.67,1.65-3.88,9.6h1.33Zm55.87-10.78v2.09h.25v-2.09h.71v-.23h-1.68v.23h.71Zm1.87,2.09v-2.04h.05l.67,1.96h.29l.67-1.96h.05v2.04h.26v-2.32h-.47l-.66,1.96-.66-1.96h-.47v2.32h.26Z"/><g><path class="cls-6" d="M108.09,59.5c-2.25,.46-5.61,.92-8.65,.92-9.52,0-11.59-5.89-11.59-16.29s1.89-16.38,11.59-16.38c3.22,0,6.58,.55,8.65,.97l-.14,2.48c-2.02-.37-5.7-.88-8.28-.88-7.73,0-8.88,4.69-8.88,13.8s1.2,13.76,8.92,13.76c2.67,0,5.98-.46,8.23-.87l.14,2.48Z"/><path class="cls-6" d="M114.38,44.18c0-10.54,2.62-16.42,12.47-16.42s12.51,5.84,12.51,16.42-2.62,16.24-12.51,16.24-12.47-5.61-12.47-16.24Zm22.04,0c0-8.97-1.79-13.85-9.57-13.85s-9.52,4.83-9.52,13.85,1.56,13.71,9.52,13.71,9.57-4.32,9.57-13.71Z"/><path class="cls-6" d="M161.17,47.4h-9.75v12.61h-2.85V28.17h11.73c6.58,0,9.94,2.81,9.94,9.43,0,4.83-1.89,8.1-6.16,9.25l6.58,13.16h-3.17l-6.3-12.61Zm-.87-16.7h-8.88v14.17h8.88c5.2,0,6.99-2.94,6.99-7.22,0-4.79-2.21-6.95-6.99-6.95Z"/><path class="cls-6" d="M176.34,30.75v-2.58h23v2.58h-10.03v29.26h-2.85V30.75h-10.12Z"/><path class="cls-6" d="M207.03,60.01V28.17h19.18v2.58h-16.33v11.73h13.57v2.53h-13.57v12.47h16.33v2.53h-19.18Z"/><path class="cls-6" d="M236.44,28.17l8.65,13.99,8.6-13.99h3.13l-9.94,16.06,9.94,15.78h-3.22l-8.56-13.8-8.7,13.8h-3.13l10.03-15.73-10.03-16.1h3.22Z"/></g><g id="Razer_Cortex"><g class="cls-4"><g class="cls-3"><path class="cls-1" d="M35,0C54.33,0,70,15.67,70,35s-15.67,35-35,35S0,54.33,0,35,15.67,0,35,0"/><path class="cls-2" d="M52.15,52.41l-4.5-3.76c3.7-4.43,4.8-10.49,2.88-15.94-.29-.82-.65-1.62-1.06-2.38-.46-.81-.97-1.58-1.53-2.32-5.6-7.14-15.92-8.4-23.06-2.8-7.12,5.58-8.39,15.86-2.85,23.01l.35,.44-4.53,3.76c-7.89-9.47-6.62-23.55,2.85-31.44,9.47-7.89,23.55-6.62,31.44,2.85,6.9,8.28,6.9,20.31,0,28.59m-17.09-23.12c2.31,0,4.52,.89,6.18,2.5l7.56-.97-4.97,6.09c.67,4.83-2.7,9.28-7.53,9.95-4.83,.67-9.28-2.7-9.95-7.53-.67-4.83,2.7-9.28,7.53-9.95h0c.39-.06,.79-.09,1.19-.09m0,11.76c1.62,0,2.94-1.32,2.94-2.94,0-.34-.06-.68-.18-1l-.53-.91c-1.06-1.23-2.91-1.38-4.15-.32-1.23,1.06-1.38,2.91-.32,4.15,.56,.65,1.38,1.03,2.23,1.03"/></g></g></g></g></g></svg>