<?xml version="1.0" encoding="utf-8"?>
<!-- Generator: Adobe Illustrator 26.0.0, SVG Export Plug-In . SVG Version: 6.00 Build 0)  -->
<svg version="1.1" id="Layer_1" xmlns="http://www.w3.org/2000/svg" xmlns:xlink="http://www.w3.org/1999/xlink" x="0px" y="0px"
	 viewBox="0 0 32 32" style="enable-background:new 0 0 32 32;" xml:space="preserve">
<g id="Layer_2_00000104668977759898985000000010545642276584165045_">
	<path d="M22.6,2.1C18,7,14.6,11.5,9.8,16.8c1.7-0.6,3.5-1,5.3-1.3c-2.5,4.6-4.9,9.4-7.3,14.5c7.4-9.5,8.4-11.2,15.8-18.4
		c-1.8-0.2-3.6-0.2-5.5-0.1C18.7,10.4,21.2,5.2,22.6,2.1z"/>
	<path d="M26.2,7.9c-0.7-1-1.6-1.8-2.6-2.5c-0.1,0.3-0.3,0.7-0.5,1c5.3,4.1,6.3,11.7,2.3,17.1c-3,4-8.2,5.7-13,4.3l-0.7,0.9
		c0.7,0.2,1.5,0.4,2.3,0.5c0.6,0.1,1.2,0.1,1.7,0.1c7.3,0,13.3-6,13.2-13.3C29,13.1,28,10.3,26.2,7.9z"/>
	<path d="M8.8,22.5c0.2-0.4,0.3-0.7,0.5-1c-0.1-0.1-0.2-0.2-0.3-0.3c-2.8-3.7-2.2-9,1.5-11.8c1.2-0.9,2.5-1.5,4-1.7l1-1.1
		c-5.2,0.1-9.4,4.4-9.3,9.6c0,2,0.7,4,2,5.6C8.4,22.1,8.6,22.3,8.8,22.5z"/>
	<circle cx="6.7" cy="25.1" r="1.2"/>
	<path d="M7.6,5.5C1.9,9.9,0.7,18.1,5,23.9c0.2-0.3,0.5-0.5,0.8-0.7c-4-5.4-2.8-13,2.6-17c2.7-2,6-2.8,9.3-2.2l0.8-0.9
		C14.7,2.2,10.7,3.1,7.6,5.5z"/>
	<circle cx="24.7" cy="15.1" r="1.2"/>
	<path d="M24.7,17.1c-0.2,0-0.4,0-0.6-0.1c0,0,0,0,0,0.1c-0.6,4.5-4.5,7.7-9,7.3c-0.2,0.3-0.5,0.6-0.8,1h0.2
		c0.4,0.1,0.8,0.1,1.2,0.1c4.8,0,8.8-3.6,9.4-8.3c0-0.1,0-0.1,0-0.2C25,17.1,24.8,17.1,24.7,17.1z"/>
</g>
</svg>
