<svg xmlns="http://www.w3.org/2000/svg" viewBox="0 0 32 32"><defs><style>.cls-1{fill:#000;}</style></defs><title>icon</title><g id="Layer_2" data-name="Layer 2"><path class="cls-1" d="M16,30A14,14,0,1,1,30,16,14,14,0,0,1,16,30ZM16,3.06A12.94,12.94,0,1,0,28.94,16,12.95,12.95,0,0,0,16,3.06Z"/><path class="cls-1" d="M16,25.11a.63.63,0,0,1-.19,0,.54.54,0,0,1-.34-.5V17.23L12,20.69a.54.54,0,0,1-.75,0,.53.53,0,0,1,0-.75l4-4-4-4a.51.51,0,0,1,0-.74.53.53,0,0,1,.75,0l3.47,3.47V7.29a.53.53,0,0,1,.9-.38l4.34,4.34a.51.51,0,0,1,0,.74l-4,4,3.92,3.92a.53.53,0,0,1,0,.74L16.41,25A.59.59,0,0,1,16,25.11Zm.53-7.84v6l3-3Zm0-8.71v6.12l3.06-3.06Z"/></g></svg>