<svg xmlns="http://www.w3.org/2000/svg" width="18.448" height="29.042" viewBox="0 0 18.448 29.042"><defs><style>.a{fill:#eee;}</style></defs><g transform="translate(-654.679 -102.168)"><path class="a" d="M-5961.453-3416.79c-2.472,0-4.6-1.319-6.15-3.816a20.731,20.731,0,0,1-2.58-10.016,44.455,44.455,0,0,1,.61-9.747,20.607,20.607,0,0,1,.862-3.364l5.294-2.1V-3435a2,2,0,0,0,2,2v3.3h1v-3.3a2,2,0,0,0,2-2v-10.767l5.129,2.034a20.917,20.917,0,0,1,.861,3.365,44.52,44.52,0,0,1,.61,9.747,20.731,20.731,0,0,1-2.581,10.015c-1.552,2.5-3.679,3.815-6.15,3.815-.151,0-.3,0-.452-.013C-5961.154-3416.8-5961.307-3416.79-5961.453-3416.79Z" transform="translate(6624.903 3548)"/><path class="a" d="M-5966.5-3432h-1a1,1,0,0,1-1-1v-5.545h3V-3433A1,1,0,0,1-5966.5-3432Zm-.5-2a.5.5,0,0,0-.5.5.5.5,0,0,0,.5.5.5.5,0,0,0,.5-.5A.5.5,0,0,0-5967-3434Zm-.5-3a.5.5,0,0,0-.5.5v1a.5.5,0,0,0,.5.5h1a.5.5,0,0,0,.5-.5v-1a.5.5,0,0,0-.5-.5Zm2-2.139h-3v-.988h3v.987Zm0-1.58h-3v-.986h3v.985Zm-.044-1.578h-2.912a1,1,0,0,1,.955-.7h1a1,1,0,0,1,.956.7Z" transform="translate(6631.002 3545.99)"/></g></svg>