<svg id="icon-naga" xmlns="http://www.w3.org/2000/svg" xmlns:xlink="http://www.w3.org/1999/xlink" width="22.473" height="33.001" viewBox="0 0 22.473 33.001">
  <defs>
    <clipPath id="clip-path">
      <path id="Path_7999" data-name="Path 7999" d="M6677.406,3550.635a13.329,13.329,0,0,1-9.339,3.967c0,4.53-2.687,28.53,9.339,29.032,5.671-.5,12.978-5.695,12.318-24.8-1.15-.5-2.982-2.184-3.924-5.476C6682.054,3553.313,6677.406,3550.635,6677.406,3550.635Z" transform="translate(-6667.811 -3550.635)" fill="#eee"/>
    </clipPath>
  </defs>
  <g id="Razer_Naga_icon_default" data-name="Razer Naga icon default" transform="translate(-723.293 -100.635)">
    <path id="Subtraction_182" data-name="Subtraction 182" d="M9.6,31.631C5.037,31.44,2.067,27.825.768,20.887a.993.993,0,0,0,.087-.076L2.92,18.725a.829.829,0,0,0,.239-.584.816.816,0,0,0-.239-.578A1.059,1.059,0,0,0,2.5,17.3l.095-.1a.878.878,0,0,0,.02-1.313l-.05-.05a1.16,1.16,0,0,0-.385-.257,1.1,1.1,0,0,0,.057-1.332l-.069-.071a1,1,0,0,0-.508-.224l.155-.16a.853.853,0,0,0,0-1.2.839.839,0,0,0-1.192,0l-.591.612c-.087-3.238.049-6.176.148-8.32.046-.988.082-1.768.082-2.3A14.437,14.437,0,0,0,7.19.546v13.6a2,2,0,0,0,2,2h1a2,2,0,0,0,2-2V0A15.232,15.232,0,0,0,17.9,1.571c.27.94,1.354,4.1,4.009,5.251.3,8.571-.978,15.091-3.784,19.382a12.461,12.461,0,0,1-4.122,4.026A10.576,10.576,0,0,1,9.6,31.631Z" transform="translate(723.81 102.005)" fill="#eee"/>
    <path id="Subtraction_183" data-name="Subtraction 183" d="M2,14H1a1,1,0,0,1-1-1V7H3v6A1,1,0,0,1,2,14ZM1,11a.5.5,0,0,0-.5.5v1A.5.5,0,0,0,1,13H2a.5.5,0,0,0,.5-.5v-1A.5.5,0,0,0,2,11ZM1,8a.5.5,0,0,0-.5.5v1A.5.5,0,0,0,1,10H2a.5.5,0,0,0,.5-.5v-1A.5.5,0,0,0,2,8ZM3,6H0V4.874H3V6ZM3,4.282H0V3.3H3v.985ZM3,2.7H0V2H3v.7ZM3,1H0A1,1,0,0,1,1,0H2A1,1,0,0,1,3,1Z" transform="translate(732 103)" fill="#eee"/>
    <g id="Mask_Group_5" data-name="Mask Group 5" transform="translate(723.811 100.635)" clip-path="url(#clip-path)">
      <path id="Path_8001" data-name="Path 8001" d="M746.114,104.1s.545,6.616,2.6,11.219a12.662,12.662,0,0,1,0,10.414,7.185,7.185,0,0,0,0,4.558" transform="translate(-745.766 -100.603)" fill="none" stroke="#1a1a1a" stroke-width="0.75"/>
      <path id="Path_8025" data-name="Path 8025" d="M763.473,103.248s-1.941,8.575-.5,12.617" transform="translate(-745.766 -100.611)" fill="none" stroke="#1a1a1a" stroke-width="0.75"/>
    </g>
    <path id="Union_53" data-name="Union 53" d="M.641,7.547a.5.5,0,0,1,0-.707L2.415,5.067a.5.5,0,0,1,.707.707L1.348,7.547a.5.5,0,0,1-.707,0ZM.468,5.721a.5.5,0,0,1,0-.707L2.086,3.4a.5.5,0,0,1,.707.707L1.174,5.721a.5.5,0,0,1-.706,0ZM.3,3.891a.5.5,0,0,1,0-.707L1.712,1.77a.5.5,0,0,1,.707.706L1.005,3.891a.5.5,0,0,1-.707,0ZM.147,2.043a.5.5,0,0,1,0-.707L1.336.146a.5.5,0,0,1,.707.707L.853,2.043a.5.5,0,0,1-.707,0Z" transform="translate(723.293 114.756)" fill="#fff"/>
  </g>
</svg>
