<svg xmlns="http://www.w3.org/2000/svg" viewBox="0 0 32 32"><defs><style>.cls-1,.cls-2{fill:#44d62c;}.cls-2{stroke:#44d62c;stroke-miterlimit:10;stroke-width:0.66px;}</style></defs><g id="Layer_2" data-name="Layer 2"><path class="cls-1" d="M16,30A14,14,0,1,1,30,16,14,14,0,0,1,16,30ZM16,3.09A12.93,12.93,0,1,0,28.91,16,13,13,0,0,0,16,3.09Z"/><path class="cls-2" d="M5.57,17.55h.61L7.91,19a.13.13,0,0,0,.18,0,.16.16,0,0,0,0-.09V16.17a.2.2,0,0,0,0-.28l0,0V13.15A.13.13,0,0,0,8,13a.11.11,0,0,0-.08,0L6.18,14.48H5.57a.13.13,0,0,0-.13.13h0v2.81a.13.13,0,0,0,.13.13Zm.13-2.81h.52a.14.14,0,0,0,.09,0l1.55-1.29v5.19L6.31,17.32a.14.14,0,0,0-.09,0H5.7Z"/><path class="cls-2" d="M9.84,17.38a.13.13,0,0,0-.05.18.14.14,0,0,0,.18.05h0a1.8,1.8,0,0,0,.67-.67,1.83,1.83,0,0,0,0-1.84,1.75,1.75,0,0,0-.67-.68.14.14,0,0,0-.18.05.13.13,0,0,0,.05.18,1.51,1.51,0,0,1,.57.58,1.54,1.54,0,0,1,0,1.58A1.42,1.42,0,0,1,9.84,17.38Z"/><path class="cls-2" d="M10.7,19h.07A3.46,3.46,0,0,0,12,14.29,3.54,3.54,0,0,0,10.77,13a.14.14,0,0,0-.18.05.13.13,0,0,0,.05.18h0a3.19,3.19,0,0,1,1.16,4.35,3.22,3.22,0,0,1-1.16,1.16.13.13,0,0,0,.06.24Z"/><path class="cls-2" d="M23.92,19a.12.12,0,0,0,.14,0l1.73-1.43h.61a.13.13,0,0,0,.13-.13h0V14.61a.13.13,0,0,0-.13-.13h-.61l-1.73-1.43a.13.13,0,0,0-.18,0,.16.16,0,0,0,0,.09v2.71a.2.2,0,0,0,0,.28l0,0h0v2.71A.14.14,0,0,0,23.92,19Zm.19-5.58,1.55,1.29a.11.11,0,0,0,.08,0h.53v2.55h-.53a.11.11,0,0,0-.08,0l-1.55,1.29Z"/><path class="cls-2" d="M22.13,14.65a.13.13,0,0,0,.05-.18.14.14,0,0,0-.18-.05,1.8,1.8,0,0,0-.67.67,1.83,1.83,0,0,0,0,1.84,1.75,1.75,0,0,0,.67.68.14.14,0,0,0,.18-.05.13.13,0,0,0-.05-.18,1.45,1.45,0,0,1-.57-.58,1.54,1.54,0,0,1,0-1.58A1.49,1.49,0,0,1,22.13,14.65Z"/><path class="cls-2" d="M19.94,17.74A3.54,3.54,0,0,0,21.2,19h.07a.13.13,0,0,0,.13-.13.14.14,0,0,0-.07-.11,3.18,3.18,0,0,1-1.16-4.35,3.22,3.22,0,0,1,1.16-1.16.13.13,0,0,0,.05-.18A.14.14,0,0,0,21.2,13h0a3.44,3.44,0,0,0-1.26,4.7Z"/><path class="cls-2" d="M14.58,26.56h2.81a.13.13,0,0,0,.13-.13h0v-.61L19,24.09a.13.13,0,0,0,0-.18l-.09,0H16.14a.2.2,0,0,0-.28,0l0,0H13.12A.13.13,0,0,0,13,24a.11.11,0,0,0,0,.08l1.43,1.73v.61a.13.13,0,0,0,.13.13Zm-1.19-2.42h5.19l-1.29,1.55a.14.14,0,0,0,0,.09v.52H14.71v-.52a.14.14,0,0,0,0-.09Z"/><path class="cls-2" d="M16.91,21.36a1.88,1.88,0,0,0-1.84,0,1.75,1.75,0,0,0-.68.67.14.14,0,0,0,0,.18.13.13,0,0,0,.18-.05h0a1.45,1.45,0,0,1,.58-.57,1.59,1.59,0,0,1,1.58,0,1.49,1.49,0,0,1,.57.57.13.13,0,0,0,.18.05.14.14,0,0,0,0-.18h0A1.8,1.8,0,0,0,16.91,21.36Z"/><path class="cls-2" d="M13.05,21.41a.13.13,0,0,0,.18-.05,3.18,3.18,0,0,1,5.51,0,.13.13,0,0,0,.18.05.14.14,0,0,0,0-.18h0A3.62,3.62,0,0,0,17.71,20a3.53,3.53,0,0,0-3.45,0A3.62,3.62,0,0,0,13,21.23a.14.14,0,0,0,.05.18Z"/><path class="cls-2" d="M14.45,5.6v.61L13,7.94a.13.13,0,0,0,0,.18l.09,0h2.71a.2.2,0,0,0,.28,0l0,0h2.71A.13.13,0,0,0,19,8a.11.11,0,0,0,0-.08L17.52,6.21V5.6a.13.13,0,0,0-.13-.13H14.58a.13.13,0,0,0-.13.13Zm.26.66V5.73h2.55v.53a.11.11,0,0,0,0,.08l1.29,1.55H13.39l1.29-1.55A.11.11,0,0,0,14.71,6.26Z"/><path class="cls-2" d="M15.06,10.67a1.83,1.83,0,0,0,1.84,0,1.75,1.75,0,0,0,.68-.67.14.14,0,0,0,0-.18.13.13,0,0,0-.18,0h0a1.51,1.51,0,0,1-.58.57,1.59,1.59,0,0,1-1.58,0,1.42,1.42,0,0,1-.57-.57.13.13,0,0,0-.18,0,.14.14,0,0,0,0,.18A1.8,1.8,0,0,0,15.06,10.67Z"/><path class="cls-2" d="M13.23,10.67a.13.13,0,0,0-.18-.05.14.14,0,0,0-.05.18h0a3.45,3.45,0,0,0,4.71,1.26A3.54,3.54,0,0,0,19,10.8a.14.14,0,0,0,0-.18.13.13,0,0,0-.18.05h0a3.18,3.18,0,0,1-5.51,0Z"/></g></svg>