<svg xmlns="http://www.w3.org/2000/svg" viewBox="0 0 32 32"><defs><style>.cls-1{fill:#44d62c;}.cls-2{fill:none;stroke:#44d62c;stroke-miterlimit:10;}</style></defs><title>icon</title><g id="Layer_2" data-name="Layer 2"><path class="cls-1" d="M6.91,10.6a.48.48,0,0,1-.07.3,10.68,10.68,0,0,0,.84,11.54.54.54,0,1,1-.86.65,11.72,11.72,0,0,1-.93-12.71.54.54,0,0,1,.74-.22A.58.58,0,0,1,6.91,10.6Z"/><path class="cls-1" d="M10.11,12.83a.59.59,0,0,1-.07.31,6.06,6.06,0,0,0,.48,6.57.56.56,0,0,1-.11.77.54.54,0,0,1-.76-.11,7.15,7.15,0,0,1-.56-7.76.54.54,0,0,1,.74-.21A.58.58,0,0,1,10.11,12.83Z"/><path class="cls-2" d="M15.51,16a17,17,0,0,1,6.63,7.58"/><path class="cls-2" d="M13.41,16.88A5.6,5.6,0,0,1,17.25,16c2,.37,5.42,3.92,5.28,5.88a9.41,9.41,0,0,1-1.82,4,12,12,0,0,1-7.31-11c0-5.42,3.1-9.29,8.1-11.29"/><path class="cls-1" d="M16,30A14,14,0,1,1,30,16,14,14,0,0,1,16,30ZM16,3.06A12.94,12.94,0,1,0,28.94,16,12.95,12.95,0,0,0,16,3.06Z"/></g></svg>