<svg xmlns="http://www.w3.org/2000/svg" viewBox="0 0 32 32"><defs><style>.cls-1{fill:#44d62c;}</style></defs><title>icon</title><g id="Layer_2" data-name="Layer 2"><path class="cls-1" d="M16,30A14,14,0,1,1,30,16,14,14,0,0,1,16,30ZM16,3.06A12.94,12.94,0,1,0,28.94,16,12.95,12.95,0,0,0,16,3.06Z"/><path class="cls-1" d="M16,26.77A10.77,10.77,0,1,1,26.77,16,10.78,10.78,0,0,1,16,26.77ZM16,6.29A9.71,9.71,0,1,0,25.71,16,9.73,9.73,0,0,0,16,6.29Z"/><path class="cls-1" d="M15.93,18.8A2.84,2.84,0,1,1,18.77,16,2.84,2.84,0,0,1,15.93,18.8Zm0-4.62A1.78,1.78,0,1,0,17.71,16,1.78,1.78,0,0,0,15.93,14.18Z"/><path class="cls-1" d="M22.16,21.26a.57.57,0,0,1-.28-.08.52.52,0,0,1-.16-.73,8.2,8.2,0,0,0-.08-8.91.53.53,0,0,1,.89-.58A9.28,9.28,0,0,1,22.61,21,.52.52,0,0,1,22.16,21.26Z"/><path class="cls-1" d="M19.78,19.32a.6.6,0,0,1-.28-.08.52.52,0,0,1-.16-.73,4.63,4.63,0,0,0,0-5,.53.53,0,0,1,.15-.73.52.52,0,0,1,.73.15,5.69,5.69,0,0,1,.05,6.18A.54.54,0,0,1,19.78,19.32Z"/><path class="cls-1" d="M9.7,21.26A.51.51,0,0,1,9.26,21,9.24,9.24,0,0,1,9.34,11a.52.52,0,0,1,.73-.15.53.53,0,0,1,.15.73,8.18,8.18,0,0,0-.07,8.91.54.54,0,0,1-.16.73A.6.6,0,0,1,9.7,21.26Z"/><path class="cls-1" d="M12.08,19.32a.54.54,0,0,1-.45-.24,5.69,5.69,0,0,1,0-6.18.52.52,0,0,1,.73-.15.51.51,0,0,1,.15.73,4.65,4.65,0,0,0,0,5,.52.52,0,0,1-.16.73A.57.57,0,0,1,12.08,19.32Z"/></g></svg>