<svg xmlns="http://www.w3.org/2000/svg" viewBox="0 0 32 32">
  <defs>
    <style>
      .cls-1 {
        fill: #44d62c;
      }
    </style>
  </defs>
  <title>icon</title>
  <g id="Layer_2" data-name="Layer 2">
    <path class="cls-1" d="M16,30A14,14,0,1,1,30,16,14,14,0,0,1,16,30ZM16,3.06A12.94,12.94,0,1,0,28.94,16,12.95,12.95,0,0,0,16,3.06Z"/>
    <path class="cls-1" d="M23.41,12.59A7.64,7.64,0,0,0,16,5.23a7.43,7.43,0,0,0-7.43,7.42.76.76,0,0,0,.76.76.75.75,0,0,0,.75-.76A5.92,5.92,0,0,1,16,6.74c3.16,0,5.65,2.51,5.91,6,.21,2.72-1,3.95-2.46,5.38a11.36,11.36,0,0,0-3,4.13c-.72,1.88-1.45,3-2.83,3a2.77,2.77,0,0,1-2.77-2.77.76.76,0,1,0-1.51,0,4.28,4.28,0,0,0,4.28,4.28c2.37,0,3.44-1.93,4.24-4a10.22,10.22,0,0,1,2.63-3.6c1.63-1.62,3.17-3.16,2.91-6.57"/>
    <path class="cls-1" d="M12.24,19.19a.78.78,0,0,0,0,1.56A3.7,3.7,0,0,0,13,13.43v-1a3,3,0,0,1,6,0v.42a.78.78,0,1,0,1.56,0v-.42a4.54,4.54,0,0,0-9.08,0v1.67a.78.78,0,0,0,.78.78,2.15,2.15,0,0,1,0,4.29"/>
  </g>
</svg>
