<svg xmlns="http://www.w3.org/2000/svg" viewBox="0 0 32 32"><defs><style>.cls-1{fill:#44d62c;}</style></defs><title>icon</title><g id="Layer_2" data-name="Layer 2"><path class="cls-1" d="M16.07,22.39c-5.89,0-9.31-5.88-9.45-6.13a.49.49,0,0,1,0-.51c.14-.25,3.43-6.14,9.32-6.14s9.31,5.88,9.45,6.13a.49.49,0,0,1,0,.51C25.25,16.5,22,22.39,16.07,22.39ZM7.69,16c.72,1.1,3.77,5.35,8.38,5.35s7.55-4.23,8.24-5.33c-.72-1.1-3.77-5.35-8.38-5.35S8.38,14.89,7.69,16Z"/><path class="cls-1" d="M16,19.61A3.61,3.61,0,1,1,19.61,16,3.61,3.61,0,0,1,16,19.61Zm0-6.17A2.56,2.56,0,1,0,18.56,16,2.56,2.56,0,0,0,16,13.44Z"/><path class="cls-1" d="M16,30A14,14,0,1,1,30,16,14,14,0,0,1,16,30ZM16,3.06A12.94,12.94,0,1,0,28.94,16,12.95,12.95,0,0,0,16,3.06Z"/></g></svg>