<svg xmlns="http://www.w3.org/2000/svg" viewBox="0 0 32 32"><defs><style>.cls-1{fill:#888888;}</style></defs><title>icon</title><g id="Layer_2" data-name="Layer 2"><path class="cls-1" d="M16,30A14,14,0,1,1,30,16,14,14,0,0,1,16,30ZM16,3.06A12.94,12.94,0,1,0,28.94,16,12.95,12.95,0,0,0,16,3.06Z"/><path class="cls-1" d="M21.9,8.87a.51.51,0,0,1-.29-.08A10.32,10.32,0,0,0,10.39,8.7a.53.53,0,0,1-.73-.16.52.52,0,0,1,.16-.73,11.39,11.39,0,0,1,12.37.09.54.54,0,0,1,.15.74A.53.53,0,0,1,21.9,8.87Z"/><path class="cls-1" d="M19.49,11.79a.64.64,0,0,1-.3-.08,5.87,5.87,0,0,0-6.39-.06.53.53,0,1,1-.57-.89,7,7,0,0,1,7.55.06.53.53,0,0,1-.29,1Z"/><path class="cls-1" d="M17,16.92a.52.52,0,0,1-.5-.38l-.83,0s0,0,0,0a.53.53,0,0,1-1.05-.1,1,1,0,0,1,1.1-.92h.76a1,1,0,0,1,1.1.92A.53.53,0,0,1,17,16.92Z"/><path class="cls-1" d="M16,24.34a.53.53,0,0,1-.53-.53V20.64a.53.53,0,0,1,1.06,0v3.17A.53.53,0,0,1,16,24.34Z"/><path class="cls-1" d="M22.32,28.42a.48.48,0,0,1-.26-.07.54.54,0,0,1-.27-.44,27.09,27.09,0,0,0-.36-3.71,17.73,17.73,0,0,1,.15-6.82,12.77,12.77,0,0,0-4-2V20a1.07,1.07,0,0,1-1.17,1h-.86a1.07,1.07,0,0,1-1.17-1V15.39a12.65,12.65,0,0,0-4,2,17.73,17.73,0,0,1,.15,6.82,26.92,26.92,0,0,0-.36,3.71.54.54,0,0,1-.27.44.52.52,0,0,1-.51,0,14,14,0,1,1,13.14,0A.54.54,0,0,1,22.32,28.42Zm-5.25-14.2h.29c.82.2,5.48,1.83,5.29,3.19A17.08,17.08,0,0,0,22.47,24c.12.79.26,1.67.34,3A12.94,12.94,0,1,0,9.19,27c.08-1.3.22-2.18.34-3a17.08,17.08,0,0,0-.18-6.62c-.19-1.36,4.47-3,5.29-3.19h.29a.52.52,0,0,1,.53.52v5.2l.11,0h.86l.11,0v-5.2A.52.52,0,0,1,17.07,14.22Z"/></g></svg>