<svg id="Layer_1" data-name="Layer 1" xmlns="http://www.w3.org/2000/svg" viewBox="0 0 28 28"><defs><style>.cls-1{fill:#44d62c;}</style></defs><path class="cls-1" d="M16,30A14,14,0,1,1,30,16,14,14,0,0,1,16,30ZM16,3.06A12.94,12.94,0,1,0,28.94,16,12.94,12.94,0,0,0,16,3.06Z" transform="translate(-2 -2)"/><path class="cls-1" d="M14.65,15.24a.79.79,0,0,0-.75.82.76.76,0,1,0,1.51,0A.78.78,0,0,0,14.65,15.24Zm2.72,0a.79.79,0,0,0-.76.82.76.76,0,1,0,.76-.82Z" transform="translate(-2 -2)"/><path class="cls-1" d="M21,9H11a1.53,1.53,0,0,0-1.53,1.53v10A1.54,1.54,0,0,0,11,22.12h8.43l-.39-1.38,1,.88.9.84,1.6,1.41V10.53A1.53,1.53,0,0,0,21,9Zm-2.87,9.71s-.27-.32-.49-.6A2.41,2.41,0,0,0,19,17.22a4.13,4.13,0,0,1-.86.44A4.7,4.7,0,0,1,17,18a4.93,4.93,0,0,1-1.92,0,6.07,6.07,0,0,1-1.1-.32,3.19,3.19,0,0,1-.54-.25l-.06,0s0,0,0,0a1.72,1.72,0,0,1-.21-.12,2.28,2.28,0,0,0,1.3.87c-.22.29-.5.62-.5.62a2.7,2.7,0,0,1-2.27-1.13,10,10,0,0,1,1.07-4.33,3.67,3.67,0,0,1,2.09-.79l.08.09a5.05,5.05,0,0,0-2,1l.44-.22a5.88,5.88,0,0,1,1.69-.47h.12a6.29,6.29,0,0,1,1.51,0,6.1,6.1,0,0,1,2.23.72,4.87,4.87,0,0,0-1.85-.95l.11-.12a3.67,3.67,0,0,1,2.09.79,10,10,0,0,1,1.07,4.33A2.73,2.73,0,0,1,18.11,18.71Z" transform="translate(-2 -2)"/></svg>