<?xml version="1.0" encoding="UTF-8"?><svg id="Layer_2" xmlns="http://www.w3.org/2000/svg" viewBox="0 0 285.86 70"><defs><style>.cls-1,.cls-2{fill:#44d62c;}.cls-1,.cls-3{fill-rule:evenodd;}.cls-4{fill:#ccc;}.cls-3{fill:#111;}</style></defs><g id="Layer_1-2"><g><path class="cls-2" d="M143.41,18.25h-7.16v-1.24h7.88l-.71,1.24Zm-14.99-1.24h-5.78l5.07-8.78,.71-1.24h-7.92v1.24h5.78l-5.07,8.78-.71,1.24h7.21l.71-1.24Zm15.7-10.01h-7.88v1.24h7.16l.71-1.24Zm0,5.01h-7.88v1.24h7.16l.71-1.24Zm12.98,1.24h-.12l2.89,5.01h-1.43l-2.89-5.01h-2.32v5.01h-1.24V7h5.1c1.53,0,2.77,1.24,2.77,2.77v.7c0,1.53-1.24,2.77-2.77,2.77Zm-3.87-1.24h3.87c.85,0,1.53-.69,1.53-1.53v-.7c0-.85-.69-1.53-1.53-1.53h-3.87v3.77Zm-59.13,1.24h-.12l2.89,5.01h-1.43l-2.89-5.01h-2.32v5.01h-1.24V7h5.1c1.53,0,2.77,1.24,2.77,2.77v.7c0,1.53-1.24,2.77-2.77,2.77Zm-3.87-1.24h3.87c.85,0,1.53-.69,1.53-1.53v-.7c0-.85-.69-1.53-1.53-1.53h-3.87v3.77Zm15.22,6.24l3.21-7.95,3.21,7.95h1.33l-3.88-9.6-.67-1.65-.67,1.65-3.88,9.6h1.33Zm55.87-10.78v2.09h.25v-2.09h.71v-.23h-1.68v.23h.71Zm1.87,2.09v-2.04h.05l.67,1.96h.29l.67-1.96h.05v2.04h.26v-2.32h-.47l-.66,1.96-.66-1.96h-.47v2.32h.26Z"/><path class="cls-1" d="M35,0c19.33,0,35,15.67,35,35s-15.67,35-35,35S0,54.33,0,35,15.67,0,35,0Z"/><path class="cls-3" d="M49.88,20.12c-1.71-1.71-4.48-1.71-6.19,0-1.14,1.14-1.52,2.77-1.13,4.23l-4.74,4.74c-2.44-1.16-5.45-.74-7.47,1.28-.19,.19-.37,.39-.53,.6l-6.4-2.26c-.17-.81-.56-1.58-1.19-2.21-1.71-1.71-4.48-1.71-6.19,0s-1.71,4.48,0,6.19c1.65,1.65,4.29,1.71,6.01,.17l6.38,2.25c.03,1.64,.66,3.28,1.92,4.54,1.25,1.25,2.87,1.89,4.5,1.92l2.26,6.41c-1.51,1.72-1.45,4.34,.19,5.98,1.71,1.71,4.48,1.71,6.19,0,1.71-1.71,1.71-4.48,0-6.19-.64-.64-1.42-1.04-2.24-1.2l-2.25-6.37c.22-.17,.43-.35,.63-.55,2.02-2.02,2.45-5.03,1.28-7.47l4.74-4.74c1.46,.39,3.08,.01,4.23-1.13,1.71-1.71,1.71-4.48,0-6.19Z"/><g><path class="cls-4" d="M106.67,31.02s-6.35-.78-9.02-.78c-4.78,0-7.41,1.61-7.41,5.57,0,4.74,2.44,5.43,8.1,6.53,6.26,1.24,9.25,2.67,9.25,8.33,0,7.09-3.73,9.71-10.03,9.71-3.63,0-9.98-.87-9.98-.87l.32-2.44s6.3,.78,9.57,.78c4.78,0,7.22-2.07,7.22-6.99,0-4-2.07-4.88-7.41-5.89-6.49-1.2-9.94-2.62-9.94-8.97s3.96-8.28,10.12-8.28c3.73,0,9.43,.87,9.43,.87l-.23,2.44Z"/><path class="cls-4" d="M127.14,60.01h-2.85v-13.53l-10.26-18.31h3.17l8.51,15.37,8.47-15.37h3.22l-10.26,18.31v13.53Z"/><path class="cls-4" d="M145.08,28.17h5.61l13.39,29.31h1.06V28.17h2.81v31.84h-5.52l-13.48-29.26h-1.01v29.26h-2.85V28.17Z"/><path class="cls-4" d="M185.14,28.17h6.67l9.16,31.84h-2.81l-2.58-8.83h-14.26l-2.53,8.83h-2.85l9.2-31.84Zm-3.13,20.47h12.88l-5.2-17.99h-2.48l-5.2,17.99Z"/><path class="cls-4" d="M211.79,48.83v11.18h-2.85V28.17h11.69c6.85,0,9.94,3.22,9.94,10.03s-3.08,10.63-9.94,10.63h-8.83Zm8.83-2.53c4.97,0,6.99-2.9,6.99-8.1s-2.02-7.5-6.99-7.5h-8.83v15.6h8.83Z"/><path class="cls-4" d="M257.28,31.02s-6.35-.78-9.02-.78c-4.79,0-7.41,1.61-7.41,5.57,0,4.74,2.44,5.43,8.1,6.53,6.26,1.24,9.25,2.67,9.25,8.33,0,7.09-3.73,9.71-10.03,9.71-3.63,0-9.98-.87-9.98-.87l.32-2.44s6.3,.78,9.57,.78c4.79,0,7.22-2.07,7.22-6.99,0-4-2.07-4.88-7.41-5.89-6.49-1.2-9.94-2.62-9.94-8.97s3.96-8.28,10.12-8.28c3.73,0,9.43,.87,9.43,.87l-.23,2.44Z"/><path class="cls-4" d="M266.68,28.17h19.18v2.58h-16.33v11.73h13.57v2.53h-13.57v12.47h16.33v2.53h-19.18V28.17Z"/></g></g></g></svg>