<?xml version="1.0" encoding="utf-8"?>
<!-- Generator: Adobe Illustrator 26.0.3, SVG Export Plug-In . SVG Version: 6.00 Build 0)  -->
<svg version="1.1" id="Layer_1" xmlns="http://www.w3.org/2000/svg" xmlns:xlink="http://www.w3.org/1999/xlink" x="0px" y="0px"
	 viewBox="0 0 38.05 38.74" style="enable-background:new 0 0 38.05 38.74;" xml:space="preserve">
<style type="text/css">
	.st0{fill:#44D62C;}
</style>
<path class="st0" d="M29.32,27.69"/>
<g>
	<path class="st0" d="M25.59,27.25h-9.84c-0.31,0-0.56-0.25-0.56-0.56c0-0.31,0.25-0.56,0.56-0.56h9.84c0.31,0,0.56,0.25,0.56,0.56
		C26.15,27,25.9,27.25,25.59,27.25z"/>
	<path class="st0" d="M23.61,29.71c-0.14,0-0.29-0.05-0.4-0.16c-0.22-0.22-0.22-0.57,0-0.79l2.06-2.06l-2.06-2.06
		c-0.22-0.22-0.22-0.57,0-0.79c0.22-0.22,0.57-0.22,0.79,0l2.85,2.85L24,29.55C23.89,29.66,23.75,29.71,23.61,29.71z"/>
</g>
<g>
	<path class="st0" d="M10.78,23.15h9.84c0.31,0,0.56,0.25,0.56,0.56c0,0.31-0.25,0.56-0.56,0.56h-9.84c-0.31,0-0.56-0.25-0.56-0.56
		C10.22,23.4,10.47,23.15,10.78,23.15z"/>
	<path class="st0" d="M12.77,20.69c0.14,0,0.29,0.05,0.4,0.16c0.22,0.22,0.22,0.57,0,0.79l-2.06,2.06l2.06,2.06
		c0.22,0.22,0.22,0.57,0,0.79c-0.22,0.22-0.57,0.22-0.79,0l-2.85-2.85l2.85-2.85C12.48,20.75,12.63,20.69,12.77,20.69z"/>
</g>
<path class="st0" d="M18.94,35.58c-9.13,0-16.56-7.43-16.56-16.56S9.81,2.47,18.94,2.47S35.5,9.9,35.5,19.03
	S28.07,35.58,18.94,35.58z M18.94,3.87c-8.36,0-15.16,6.8-15.16,15.16s6.8,15.16,15.16,15.16s15.16-6.8,15.16-15.16
	S27.3,3.87,18.94,3.87z"/>
<g>
	<path class="st0" d="M8.87,17.36H6.67v-0.83l1.28-3.67h1.2l-1.39,3.55h1.12v-1.46h1.09v1.46h0.5v0.94h-0.5v0.86H8.87V17.36z"/>
	<path class="st0" d="M14.98,15.57c0,1.97-0.72,2.74-2.02,2.74c-1.29,0-2.02-0.77-2.02-2.74s0.72-2.8,2.02-2.8
		C14.25,12.77,14.98,13.61,14.98,15.57z M12.06,15.57c0,1.28,0.28,1.79,0.91,1.79s0.89-0.52,0.89-1.79c0-1.35-0.26-1.86-0.89-1.86
		S12.06,14.22,12.06,15.57z"/>
	<path class="st0" d="M17.99,15.43h1.5v2.68c-0.17,0.03-1.17,0.19-1.77,0.19c-1.67,0-2.11-1.02-2.11-2.79
		c0-1.81,0.46-2.82,2.09-2.82c0.83,0,1.79,0.21,1.79,0.21l-0.02,0.5c0,0-0.98-0.17-1.69-0.17c-1.26,0-1.54,0.73-1.54,2.28
		c0,1.51,0.27,2.25,1.53,2.25c0.39,0,0.92-0.07,1.13-0.11v-1.68h-0.91V15.43z"/>
	<path class="st0" d="M23.75,16.19c0,1.57-0.43,2.11-1.86,2.11c-0.47,0-1.31-0.09-1.31-0.09v-5.65h0.58v1.91c0,0,0.6-0.28,1.16-0.28
		C23.39,14.2,23.75,14.77,23.75,16.19z M23.15,16.19c0-1.02-0.21-1.46-0.9-1.46c-0.54,0-1.09,0.23-1.09,0.23v2.77
		c0,0,0.51,0.04,0.72,0.04C22.96,17.77,23.15,17.29,23.15,16.19z"/>
	<path class="st0" d="M24.71,14.28h0.58v0.28c0,0,0.6-0.36,1.18-0.36c0.99,0,1.43,0.61,1.43,2c0,1.54-0.5,2.09-1.72,2.09
		c-0.37,0-0.77-0.06-0.88-0.09v1.76h-0.59V14.28z M25.31,15.05v2.65c0.1,0.02,0.51,0.09,0.85,0.09c0.87,0,1.15-0.45,1.15-1.58
		c0-1.08-0.34-1.47-0.91-1.47C25.86,14.73,25.31,15.05,25.31,15.05z"/>
	<path class="st0" d="M31.48,14.86c0,0-0.87-0.13-1.38-0.13c-0.49,0-0.86,0.13-0.86,0.6c0,0.37,0.19,0.47,1.02,0.61
		c0.98,0.17,1.35,0.36,1.35,1.13c0,0.92-0.58,1.23-1.53,1.23c-0.5,0-1.39-0.15-1.39-0.15l0.03-0.51c0,0,0.9,0.13,1.3,0.13
		c0.65,0,0.99-0.14,0.99-0.68c0-0.41-0.21-0.51-1.06-0.65c-0.89-0.14-1.31-0.31-1.31-1.09c0-0.87,0.7-1.15,1.42-1.15
		c0.59,0,1.42,0.15,1.42,0.15L31.48,14.86z"/>
</g>
</svg>
