<svg id="watch" xmlns="http://www.w3.org/2000/svg" width="36.707" height="41.976" viewBox="0 0 36.707 41.976">
  <path id="Union_309" data-name="Union 309" d="M-9490.031-365.058v-1.6h1.532a13.05,13.05,0,0,0,3.413.448,13.012,13.012,0,0,0,3.41-.448h1.764v1.6a5.065,5.065,0,0,1-5.06,5.057A5.063,5.063,0,0,1-9490.031-365.058Zm10.429-.138v-1.942h-2.13a10.867,10.867,0,0,1-3.468.562,10.885,10.885,0,0,1-3.468-.562h-1.795v1.942h-1.053c-.046-.079-.446-.782-.885-1.749-.267-.593-.5-1.168-.677-1.7a10.174,10.174,0,0,1-.455-1.826,10.658,10.658,0,0,1-1.811-3.134A10.587,10.587,0,0,1-9496-377.3a10.644,10.644,0,0,1,.65-3.672,10.661,10.661,0,0,1,1.8-3.127,9.777,9.777,0,0,1,.437-1.857,18.448,18.448,0,0,1,.687-1.749c.467-1.041.905-1.8.91-1.809h1.053v1.947h2.152a10.853,10.853,0,0,1,3.11-.453,10.866,10.866,0,0,1,3.112.453h2.485v-1.947h1.054l0,0c.02.036.515.9,1.006,2.026a16.858,16.858,0,0,1,.708,1.909,7.935,7.935,0,0,1,.357,1.957,10.714,10.714,0,0,1,1.527,2.938,10.681,10.681,0,0,1,.549,3.382,10.661,10.661,0,0,1-.551,3.389,10.636,10.636,0,0,1-1.53,2.943,8.474,8.474,0,0,1-.384,1.933,16.732,16.732,0,0,1-.7,1.868,21.5,21.5,0,0,1-.981,1.969Zm-7.509-21.358a9.648,9.648,0,0,0-1.783.548,9.49,9.49,0,0,0-1.613.87,9.4,9.4,0,0,0-1.4,1.151,9.277,9.277,0,0,0-1.161,1.394,9.336,9.336,0,0,0-.874,1.6,9.173,9.173,0,0,0-.554,1.768,9.41,9.41,0,0,0-.192,1.9,9.4,9.4,0,0,0,.192,1.9,9.248,9.248,0,0,0,.554,1.771,9.4,9.4,0,0,0,.874,1.6,9.294,9.294,0,0,0,1.161,1.4,9.533,9.533,0,0,0,1.4,1.149,9.492,9.492,0,0,0,1.613.87,9.468,9.468,0,0,0,1.783.548,9.483,9.483,0,0,0,1.911.191,9.488,9.488,0,0,0,1.913-.191,9.512,9.512,0,0,0,1.783-.548,9.4,9.4,0,0,0,1.611-.87,9.482,9.482,0,0,0,1.4-1.149,9.229,9.229,0,0,0,1.16-1.4,9.21,9.21,0,0,0,.875-1.6,9.193,9.193,0,0,0,.553-1.771,9.335,9.335,0,0,0,.193-1.9,9.341,9.341,0,0,0-.193-1.9,9.17,9.17,0,0,0-.553-1.768,9.144,9.144,0,0,0-.875-1.6,9.212,9.212,0,0,0-1.16-1.394,9.352,9.352,0,0,0-1.4-1.151,9.4,9.4,0,0,0-1.611-.87,9.694,9.694,0,0,0-1.783-.548,9.663,9.663,0,0,0-1.913-.191A9.658,9.658,0,0,0-9487.111-386.555Zm6.6,11.43,1.342-3.136v-.141h-1.787v-.374h2.2v.543l-1.365,3.232Zm-2.8.1c-.138-.014-.262-.031-.371-.05-.132-.019-.255-.045-.374-.074l.038-.338c.111.024.23.043.354.062.105.012.222.026.348.038s.258.019.384.019a1.056,1.056,0,0,0,.344-.055.638.638,0,0,0,.24-.145.587.587,0,0,0,.141-.234.94.94,0,0,0,.046-.307.794.794,0,0,0-.058-.317.617.617,0,0,0-.157-.224.675.675,0,0,0-.233-.129.921.921,0,0,0-.286-.043h-.713v-.355h.713a.505.505,0,0,0,.217-.052.766.766,0,0,0,.21-.143.812.812,0,0,0,.157-.222.617.617,0,0,0,.064-.281.772.772,0,0,0-.041-.262.4.4,0,0,0-.126-.184.531.531,0,0,0-.224-.1,1.341,1.341,0,0,0-.334-.036c-.126,0-.245.007-.364.017s-.222.024-.317.038-.212.033-.31.052l-.041-.327c.1-.029.208-.055.322-.076.1-.019.209-.038.333-.052a2.95,2.95,0,0,1,.392-.024,2.138,2.138,0,0,1,.533.057.93.93,0,0,1,.351.176.688.688,0,0,1,.193.3,1.338,1.338,0,0,1,.057.412.88.88,0,0,1-.066.36,1.075,1.075,0,0,1-.157.255.891.891,0,0,1-.177.162c-.06.04-.1.067-.126.083a1.647,1.647,0,0,1,.245.114.708.708,0,0,1,.2.172.812.812,0,0,1,.129.253,1.347,1.347,0,0,1,.045.365,1.636,1.636,0,0,1-.066.479.88.88,0,0,1-.207.353.929.929,0,0,1-.36.219,1.607,1.607,0,0,1-.52.074A4.115,4.115,0,0,1-9483.3-375.022Zm-4.18,0q-.208-.021-.372-.05c-.131-.019-.255-.045-.374-.074l.038-.338c.112.024.231.043.353.062s.222.026.351.038.255.019.384.019a1.055,1.055,0,0,0,.343-.055.642.642,0,0,0,.241-.145.635.635,0,0,0,.141-.234.941.941,0,0,0,.045-.307.794.794,0,0,0-.057-.317.617.617,0,0,0-.157-.224.679.679,0,0,0-.234-.129.916.916,0,0,0-.283-.043h-.715v-.355h.715a.507.507,0,0,0,.215-.052.753.753,0,0,0,.207-.143.742.742,0,0,0,.159-.222.617.617,0,0,0,.064-.281.774.774,0,0,0-.04-.262.422.422,0,0,0-.126-.184.547.547,0,0,0-.225-.1,1.352,1.352,0,0,0-.336-.036c-.124,0-.243.007-.362.017s-.222.024-.316.038c-.11.017-.213.033-.311.052l-.04-.327c.1-.029.207-.055.321-.076.1-.019.21-.038.334-.052a2.945,2.945,0,0,1,.391-.024,2.1,2.1,0,0,1,.531.057.894.894,0,0,1,.351.176.658.658,0,0,1,.2.3,1.336,1.336,0,0,1,.058.412.864.864,0,0,1-.067.36,1.048,1.048,0,0,1-.159.255.91.91,0,0,1-.174.162c-.058.04-.1.067-.127.083a1.783,1.783,0,0,1,.248.114.729.729,0,0,1,.193.172.716.716,0,0,1,.126.253,1.232,1.232,0,0,1,.048.365,1.636,1.636,0,0,1-.066.479.863.863,0,0,1-.21.353.9.9,0,0,1-.357.219,1.607,1.607,0,0,1-.52.074A4.087,4.087,0,0,1-9487.483-375.022Zm2.295-.031v-.612h.44v.612Zm-4.709,0v-3.26l-.913.6-.19-.31,1.13-.753h.388v3.723Zm4.709-1.733v-.612h.44v.612Zm2.948-11.315a11.181,11.181,0,0,0-2.846-.367,11.181,11.181,0,0,0-2.846.367h-2.214v-2.841a5.063,5.063,0,0,1,5.06-5.057,5.065,5.065,0,0,1,5.06,5.057v2.841Z" transform="translate(8043.778 5090.946) rotate(30)" fill="#fff"/>
</svg>
