<svg xmlns="http://www.w3.org/2000/svg" width="19.52" height="30.99" viewBox="0 0 19.52 30.99">
  <path id="pro_click_ultra" data-name="pro click ultra" d="M-8341.962-378.275c-.128.008-.267.013-.413.013a5.606,5.606,0,0,1-3.587-1.293l-3.02-8.38-1.422-4.835a.5.5,0,0,0,.4-.488v-4a.492.492,0,0,0-.306-.463,31.072,31.072,0,0,1,1.264-7.42l3.788-1.57-.013,0,1.436-.589,1.685-.7v2.6a2,2,0,0,0-1.984,2v1.968a2.01,2.01,0,0,0,1.984,2v1a.5.5,0,0,0-.479.5v2a.5.5,0,0,0,.479.5v4.3h.188v0h.8v-2.65a.5.5,0,0,1-.474.347.5.5,0,0,1-.5-.5v-.006a.5.5,0,0,1,.5-.495.5.5,0,0,1,.474.346v-1.343h.015a.5.5,0,0,0,.5-.5v-2a.5.5,0,0,0-.5-.5h-.015v-1a2.009,2.009,0,0,0,1.991-2V-403.4a2.008,2.008,0,0,0-1.991-2v-2.563l2.924,1.375h0l3.362,1.448a21.714,21.714,0,0,1,.765,3.19,47.94,47.94,0,0,1,.606,9.256l-1.371,4.664-3.039,8.438a5.61,5.61,0,0,1-3.631,1.331C-8341.7-378.262-8341.828-378.266-8341.962-378.275Zm5.265-2.274,2.607-7.332.989-3.492c.006,0,.006.008.011.017.126.564.735,3.484-.011,5.431a25.473,25.473,0,0,1-3.593,5.376Zm-10.545,0a25.616,25.616,0,0,1-3.595-5.376c-.8-2.077-.031-5.309,0-5.443l.991,3.488,2.607,7.332ZM-8351-394.011v-1h.5v1a.249.249,0,0,1-.25.252A.249.249,0,0,1-8351-394.011Zm0-1.5v-1a.25.25,0,0,1,.249-.252.251.251,0,0,1,.25.252v1Zm8.868-.924v-1.008a.5.5,0,0,1,.5-.5.5.5,0,0,1,.5.5v1.008a.5.5,0,0,1-.5.5A.5.5,0,0,1-8342.132-396.434Zm.008-4.01a.994.994,0,0,1-.943-.664h2.865a1.008,1.008,0,0,1-.949.664Zm-1-1.26v-.409h2.979v.409Zm2.979-.993h-2.979v-.413h2.979v.409l0,0Zm-2.937-1a1.006,1.006,0,0,1,.96-.721h.973a1.009,1.009,0,0,1,.962.717v0Z" transform="translate(8351.73 408.752)" fill="#eee" stroke="rgba(0,0,0,0)" stroke-width="1"/>
</svg>
