<svg id="icon-kiyo" xmlns="http://www.w3.org/2000/svg" width="30" height="30" viewBox="0 0 30 30">
  <g id="Kiyo_icon_default" data-name="Kiyo icon default" transform="translate(-802 -188)">
    <g id="Path_32" data-name="Path 32" transform="translate(802 188)" fill="none">
      <path d="M15,0A15,15,0,1,1,0,15,15,15,0,0,1,15,0Z" stroke="none"/>
      <path d="M 15 5 C 9.485979080200195 5 5 9.485979080200195 5 15 C 5 20.51401901245117 9.485979080200195 25 15 25 C 20.51401901245117 25 25 20.51401901245117 25 15 C 25 9.485979080200195 20.51401901245117 5 15 5 M 15 0 C 23.28426933288574 0 30 6.715730667114258 30 15 C 30 23.28426933288574 23.28426933288574 30 15 30 C 6.715730667114258 30 0 23.28426933288574 0 15 C 0 6.715730667114258 6.715730667114258 0 15 0 Z" stroke="none" fill="#eee"/>
    </g>
    <g id="Ellipse_9" data-name="Ellipse 9" transform="translate(813 199)" fill="none" stroke="#eee" stroke-width="1">
      <circle cx="4" cy="4" r="4" stroke="none"/>
      <circle cx="4" cy="4" r="3.5" fill="none"/>
    </g>
    <circle id="Ellipse_10" data-name="Ellipse 10" cx="2" cy="2" r="2" transform="translate(815 201)" fill="#eee"/>
    <rect id="Rectangle_68" data-name="Rectangle 68" width="1" height="5" transform="translate(816.5 192)" fill="#eee"/>
  </g>
</svg>
