<svg id="icon-proglide" xmlns="http://www.w3.org/2000/svg" width="41" height="23.999" viewBox="0 0 41 23.999">
  <g id="Razer_Pro_Glide_icon_default" data-name="Razer Pro Glide icon default" transform="translate(-21 -0.001)">
    <path id="Subtraction_146" data-name="Subtraction 146" d="M-8604-3535h-37a2,2,0,0,1-2-2v-20a2,2,0,0,1,2-2h37a2,2,0,0,1,2,2v20A2,2,0,0,1-8604-3535Zm.3-21a.5.5,0,0,0-.5.5v4a.5.5,0,0,0,.5.5h1a.5.5,0,0,0,.5-.5v-4a.5.5,0,0,0-.5-.5Z" transform="translate(8664 3559)" fill="#eee"/>
  </g>
</svg>
