<svg xmlns="http://www.w3.org/2000/svg" width="50.004" height="26" viewBox="0 0 50.004 26">
  <path id="Pro_Type_Ultra" data-name="Pro Type Ultra" d="M-16815-830v-5.986h50V-830Zm1.443-9.032c-1.426,0-1.443-1.028-1.443-1.04v-14.891c0-1.024,1.432-1.036,1.443-1.036h47.117c1.426,0,1.443,1.028,1.443,1.036v14.891c0,1.028-1.432,1.04-1.443,1.04Zm39.027-3.762v2.127s0,.244.3.244h7.008c.006,0,.3,0,.3-.244v-2.127s0-.244-.3-.244h-7.008S-16774.531-843.033-16774.531-842.793Zm-29.434,0v2.127s0,.244.3.244h27.193s.3,0,.3-.244v-2.127s0-.244-.3-.244h-27.193S-16803.965-843.033-16803.965-842.793Zm-9.187,0v2.127s0,.244.3.244h7.006s.309,0,.309-.244v-2.127s0-.244-.309-.244h-7.006S-16813.152-843.033-16813.152-842.793Zm38.621-3.855v2.123s0,.244.3.244h7.076s.3,0,.3-.244v-2.123a.267.267,0,0,0-.3-.249h-7.076S-16774.531-846.892-16774.531-846.647Zm-4.895,0v2.123s0,.244.3.244h2.658s.3,0,.3-.244v-2.123s0-.249-.3-.249h-2.658S-16779.426-846.892-16779.426-846.647Zm-4.9,0v2.123s0,.244.309.244h2.65s.309,0,.309-.244v-2.123s-.006-.249-.309-.249h-2.65S-16784.322-846.892-16784.322-846.647Zm-4.895,0v2.123s0,.244.3.244h2.654s.3,0,.3-.244v-2.123a.265.265,0,0,0-.3-.249h-2.654C-16788.918-846.9-16789.217-846.892-16789.217-846.647Zm-4.9,0v2.123s.006.244.309.244h2.654s.309,0,.309-.244v-2.123s0-.249-.309-.249h-2.654S-16794.117-846.892-16794.117-846.647Zm-4.895,0v2.123s0,.244.309.244h2.654s.3,0,.3-.244v-2.123a.265.265,0,0,0-.3-.249h-2.654S-16799.012-846.892-16799.012-846.647Zm-4.895,0v2.123s0,.244.307.244h2.65c.006,0,.309,0,.309-.244v-2.123s0-.249-.309-.249h-2.65S-16803.906-846.892-16803.906-846.647Zm-9.246,0v2.123s0,.244.3.244h7.006s.309,0,.309-.244v-2.123s0-.249-.309-.249h-7.006S-16813.152-846.892-16813.152-846.647Zm41.344-3.859v2.127s0,.244.3.244h4.355s.3,0,.3-.244v-2.127a.267.267,0,0,0-.3-.249h-4.355S-16771.809-850.75-16771.809-850.506Zm-4.9,0v2.127s0,.244.3.244h2.654s.307,0,.307-.244v-2.127s0-.249-.307-.249h-2.654S-16776.709-850.75-16776.709-850.506Zm-4.891,0v2.127s0,.244.3.244h2.656s.3,0,.3-.244v-2.127a.265.265,0,0,0-.3-.249h-2.656S-16781.6-850.75-16781.6-850.506Zm-4.9,0v2.127s.006.244.309.244h2.65s.309,0,.309-.244v-2.127s0-.249-.309-.249h-2.65S-16786.5-850.75-16786.5-850.506Zm-4.895,0v2.127s0,.244.3.244h2.658s.3,0,.3-.244v-2.127a.265.265,0,0,0-.3-.249h-2.658S-16791.395-850.75-16791.395-850.506Zm-4.895,0v2.127s0,.244.3.244h2.654s.309,0,.309-.244v-2.127s0-.249-.309-.249h-2.654S-16796.289-850.75-16796.289-850.506Zm-4.9,0v2.127s0,.244.3.244h2.654s.3,0,.3-.244v-2.127s0-.249-.3-.249h-2.654S-16801.186-850.75-16801.186-850.506Zm-4.9,0v2.127s0,.244.309.244h2.654s.3,0,.3-.244v-2.127a.265.265,0,0,0-.3-.249h-2.654C-16805.781-850.755-16806.084-850.75-16806.084-850.506Zm-7.068,0v2.127s0,.244.3.244h4.832s.309,0,.309-.244v-2.127s0-.249-.309-.249h-4.832S-16813.152-850.75-16813.152-850.506Zm42.867-3.859v2.127s0,.244.3.244h2.654s.309,0,.309-.244v-2.127s0-.244-.309-.244h-2.654S-16770.285-854.609-16770.285-854.365Zm-4.77,0v2.127s0,.244.309.244h2.654s.309,0,.309-.244v-2.127s-.006-.244-.309-.244h-2.654S-16775.055-854.609-16775.055-854.365Zm-4.756,0v2.127s0,.244.3.244h2.654s.3,0,.3-.244v-2.127s0-.244-.3-.244h-2.654C-16779.512-854.609-16779.811-854.609-16779.811-854.365Zm-4.764,0v2.127s0,.244.3.244h2.654s.309,0,.309-.244v-2.127s0-.244-.309-.244h-2.654S-16784.574-854.609-16784.574-854.365Zm-4.766,0v2.127s0,.244.309.244h2.65s.309,0,.309-.244v-2.127s-.006-.244-.309-.244h-2.65S-16789.34-854.609-16789.34-854.365Zm-4.764,0v2.127s0,.244.309.244h2.654s.3,0,.3-.244v-2.127s0-.244-.3-.244h-2.654S-16794.1-854.609-16794.1-854.365Zm-4.764,0v2.127s0,.244.307.244h2.654c.006,0,.309,0,.309-.244v-2.127s0-.244-.309-.244h-2.654S-16798.867-854.609-16798.867-854.365Zm-4.762,0v2.127a.267.267,0,0,0,.3.244h2.654s.309,0,.309-.244v-2.127s0-.244-.309-.244h-2.654S-16803.629-854.609-16803.629-854.365Zm-4.76,0v2.127s0,.244.3.244h2.654s.307,0,.307-.244v-2.127s0-.244-.307-.244h-2.654S-16808.389-854.609-16808.389-854.365Zm-4.764,0v2.127s0,.244.3.244h2.654c.006,0,.3,0,.3-.244v-2.127s0-.244-.3-.244h-2.654S-16813.152-854.609-16813.152-854.365Z" transform="translate(16815.002 855.999)" fill="#eee"/>
</svg>
