<svg id="icon-proclick" xmlns="http://www.w3.org/2000/svg" xmlns:xlink="http://www.w3.org/1999/xlink" width="24.001" height="33" viewBox="0 0 24.001 33">
  <defs>
    <clipPath id="clip-path">
      <path id="Path_8041" data-name="Path 8041" d="M7160.281,3553.146s-7.791-7.018-16.785,1.251c-1.57,1.872.327,10.4-.845,12.389s-3.964,4.316-3.32,7.264,5.3,9.892,13.794,9.28,10.605-11.211,10.019-13.634S7160.281,3553.146,7160.281,3553.146Z" transform="translate(-7139.236 -3550.367)" fill="#eee"/>
    </clipPath>
  </defs>
  <g id="Razer_Pro_Click_default" data-name="Razer Pro Click default" transform="translate(-1194.236 -100.367)">
    <path id="Subtraction_202" data-name="Subtraction 202" d="M12.843,33h0a13.184,13.184,0,0,1-9.078-3.6A12.476,12.476,0,0,1,.1,23.681c-.479-2.189.934-4.032,2.18-5.658l.01-.014a16.831,16.831,0,0,0,1.13-1.591c.547-.925.427-3.25.3-5.711-.144-2.792-.293-5.679.544-6.677A13.956,13.956,0,0,1,12.5.039V4.594a2,2,0,0,0-1.993,2V9.536a2,2,0,0,0,1.993,2v1.143a1.492,1.492,0,0,0-.994,1.4v.928a1.492,1.492,0,0,0,.994,1.4v2.067a.5.5,0,0,0,1,0V16.413a1.492,1.492,0,0,0,.99-1.4v-.928a1.493,1.493,0,0,0-.99-1.4V11.535a2,2,0,0,0,1.989-2V6.593a2,2,0,0,0-1.989-2V0a12.388,12.388,0,0,1,7.549,2.778c.093.578,2.289,14.177,2.863,16.549.358,1.477-.291,6.037-2.808,9.486a10.549,10.549,0,0,1-2.967,2.8,9.26,9.26,0,0,1-4.244,1.346C13.545,32.986,13.193,33,12.843,33Z" transform="translate(1194.236 100.368)" fill="#eee"/>
    <path id="Subtraction_201" data-name="Subtraction 201" d="M2,5H1a1,1,0,0,1-.993-.886H2.993A1,1,0,0,1,2,5ZM3,3.523H0V2.536H3v.985ZM3,1.944H0V1C0,.985,0,.971,0,.957H3c0,.01,0,.019,0,.029v.958ZM2.772.365H.228A1,1,0,0,1,1,0H2a1,1,0,0,1,.771.363Z" transform="translate(1205.734 106.001)" fill="#eee"/>
    <g id="Mask_Group_11" data-name="Mask Group 11" transform="translate(1194.236 100.367)" clip-path="url(#clip-path)">
      <path id="Path_8042" data-name="Path 8042" d="M7210.509,3551.86s-1.053,13.752-.623,17.487a16.984,16.984,0,0,0,3.054,7.178" transform="translate(-7189.324 -3550.38)" fill="none" stroke="#1a1a1a" stroke-width="0.75"/>
      <path id="Path_8043" data-name="Path 8043" d="M7192.643,3563.427s.249,8.557,1.128,12.078a15.146,15.146,0,0,1,.352,6.109" transform="translate(-7189.25 -3550.475)" fill="none" stroke="#1a1a1a" stroke-width="0.75"/>
    </g>
    <path id="Subtraction_204" data-name="Subtraction 204" d="M.749,0A.749.749,0,0,1,1.5.749v1a.749.749,0,0,1-1.5,0v-1A.749.749,0,0,1,.749,0Z" transform="translate(1206.485 113.618)" fill="#eee"/>
  </g>
</svg>
