<svg id="icon-nommospeakers" xmlns="http://www.w3.org/2000/svg" width="56" height="33.001" viewBox="0 0 56 33.001">
  <g id="Razer_Nommo_icon_default" data-name="Razer Nommo icon default">
    <g id="Razer_Nommo_icon_default-2" data-name="Razer Nommo icon default" transform="translate(2120 2480.001)">
      <g id="Group_442" data-name="Group 442" transform="translate(-2120 -2480)">
        <g id="Group_440" data-name="Group 440">
          <path id="Subtraction_156" data-name="Subtraction 156" d="M-12855-3525a11.92,11.92,0,0,1-8.485-3.513A11.918,11.918,0,0,1-12867-3537a11.922,11.922,0,0,1,3.517-8.486A11.919,11.919,0,0,1-12855-3549a11.906,11.906,0,0,1,8.483,3.517A11.925,11.925,0,0,1-12843-3537a11.92,11.92,0,0,1-3.514,8.483A11.908,11.908,0,0,1-12855-3525Zm0-21a9.013,9.013,0,0,0-9,9,9.012,9.012,0,0,0,9,9,9.01,9.01,0,0,0,9-9A9.012,9.012,0,0,0-12855-3546Zm0,17a8.009,8.009,0,0,1-8-8,8.01,8.01,0,0,1,8-8,8.009,8.009,0,0,1,8,8A8.008,8.008,0,0,1-12855-3529Zm0-15a7.009,7.009,0,0,0-7,7,7.007,7.007,0,0,0,7,7,7.006,7.006,0,0,0,7-7A7.008,7.008,0,0,0-12855-3544Zm0,11a4,4,0,0,1-4-4,4.006,4.006,0,0,1,4-4,4,4,0,0,1,4,4A4,4,0,0,1-12855-3533Zm0-6a2,2,0,0,0-2,2,2,2,0,0,0,2,2,2,2,0,0,0,2-2A2,2,0,0,0-12855-3539Z" transform="translate(12867.999 3549)" fill="#eee"/>
          <rect id="Rectangle_160" data-name="Rectangle 160" width="26" height="1" transform="translate(0 32)" fill="#eee"/>
          <path id="Subtraction_153" data-name="Subtraction 153" d="M-12851-3514h-4v-7.143a14.2,14.2,0,0,0,2,.142,14.171,14.171,0,0,0,2-.142V-3514Z" transform="translate(12866 3547)" fill="#eee"/>
        </g>
      </g>
    </g>
    <g id="Razer_Nommo_icon_default-3" data-name="Razer Nommo icon default" transform="translate(2150 2480.001)">
      <g id="Group_442-2" data-name="Group 442" transform="translate(-2120 -2480)">
        <g id="Group_440-2" data-name="Group 440">
          <path id="Subtraction_156-2" data-name="Subtraction 156" d="M-12855-3525a11.92,11.92,0,0,1-8.485-3.513A11.918,11.918,0,0,1-12867-3537a11.922,11.922,0,0,1,3.517-8.486A11.919,11.919,0,0,1-12855-3549a11.906,11.906,0,0,1,8.483,3.517A11.925,11.925,0,0,1-12843-3537a11.92,11.92,0,0,1-3.514,8.483A11.908,11.908,0,0,1-12855-3525Zm0-21a9.013,9.013,0,0,0-9,9,9.012,9.012,0,0,0,9,9,9.01,9.01,0,0,0,9-9A9.012,9.012,0,0,0-12855-3546Zm0,17a8.009,8.009,0,0,1-8-8,8.01,8.01,0,0,1,8-8,8.009,8.009,0,0,1,8,8A8.008,8.008,0,0,1-12855-3529Zm0-15a7.009,7.009,0,0,0-7,7,7.007,7.007,0,0,0,7,7,7.006,7.006,0,0,0,7-7A7.008,7.008,0,0,0-12855-3544Zm0,11a4,4,0,0,1-4-4,4.006,4.006,0,0,1,4-4,4,4,0,0,1,4,4A4,4,0,0,1-12855-3533Zm0-6a2,2,0,0,0-2,2,2,2,0,0,0,2,2,2,2,0,0,0,2-2A2,2,0,0,0-12855-3539Z" transform="translate(12867.999 3549)" fill="#eee"/>
          <rect id="Rectangle_160-2" data-name="Rectangle 160" width="26" height="1" transform="translate(0 32)" fill="#eee"/>
          <path id="Subtraction_153-2" data-name="Subtraction 153" d="M-12851-3514h-4v-7.143a14.2,14.2,0,0,0,2,.142,14.171,14.171,0,0,0,2-.142V-3514Z" transform="translate(12866 3547)" fill="#eee"/>
        </g>
      </g>
    </g>
  </g>
</svg>
