<svg id="Layer_1" data-name="Layer 1" xmlns="http://www.w3.org/2000/svg" width="64" height="16.239" viewBox="0 0 64 16.24"><defs><style>.cls-1{fill:#eee;}</style></defs><path class="cls-1" d="M60,0H35.4L35,2H29l-.4-2H4A4,4,0,0,0,0,4v6.21a4,4,0,0,0,4,4H4v2h6v-2H28.6l.4-2h6l.4,2H54v2h6v-2h0a4,4,0,0,0,4-4V4A4,4,0,0,0,60,0Zm3,10.21a3,3,0,0,1-3,3H36.22L36,12l-.16-.81H28.18L28,12l-.24,1.22H4a3,3,0,0,1-3-3V4A3,3,0,0,1,4,1H27.78L28,2.22l.16.81h7.64L36,2.22,36.22,1H60a3,3,0,0,1,3,3Z" transform="translate(0)"/><path class="cls-1" d="M59.19,2H37.05l-.41,1.9H27.27L26.89,2H4.45A2.25,2.25,0,0,0,2.2,4.26v6a2.25,2.25,0,0,0,2.25,2.25H27.08l.61-1.9h8.65l.56,1.9H59.19a2.25,2.25,0,0,0,2.25-2.25v-6A2.25,2.25,0,0,0,59.19,2ZM28.46,6.48V8H27V6.48ZM27,6V4.48h1.5V6Zm1.5,2.5V10H27V8.48Zm2-2V8H29V6.48ZM29,6V4.48h1.5V6Zm1.5,2.5V10H29V8.48Zm2-2V8H31V6.48ZM31,6V4.48h1.5V6H31Zm1.5,2.5V10H31V8.48Zm2-2V8H33V6.48ZM33,6V4.48h1.5V6Zm1.5,2.5V10H33V8.48Zm2-2V8H35V6.48ZM35,6V4.48h1.5V6Zm1.5,2.5V10H35V8.48ZM3,6V4.48h1.5V6Zm1.5.5V8H3V6.48ZM3,8.48h1.5V10H3ZM25,8V6.48h1.5V8Zm1.5.5V10H25V8.48ZM25,6V4.48h1.5V6Zm0-2V2.51h1.5V4ZM23,8V6.48h1.5V8Zm1.5.5V10H23V8.48ZM23,6V4.48h1.5V6Zm0-2V2.51h1.5V4ZM21,8V6.48h1.5V8Zm1.5.5V10H21V8.48ZM21,6V4.48h1.5V6Zm0-2V2.51h1.5V4ZM19,8V6.48h1.5V8Zm1.5.5V10H19V8.48ZM19,6V4.48h1.5V6Zm0-2V2.51h1.5V4ZM17,8V6.48h1.5V8Zm1.5.5V10H17V8.48ZM17,6V4.48h1.5V6Zm0-2V2.51h1.5V4ZM15.71,8H15V6.48h1.5V8Zm.75.5V10H15V8.48ZM15.71,6H15V4.48h1.5V6ZM15,4V2.51h1.5V4ZM13,8V6.48h1.5V8Zm1.5.5V10H13V8.48ZM13,6V4.48h1.5V6Zm0-2V2.51h1.5V4ZM11,8V6.48h1.5V8Zm1.5.5V10H11V8.48ZM11,6V4.48h1.5V6Zm0-2V2.51h1.5V4ZM9,8V6.48h1.5V8Zm1.5.5V10H9V8.48ZM9,6V4.48h1.5V6ZM9,4V2.51h1.5V4ZM7,8V6.48h1.5V8Zm1.5.5V10H7V8.48ZM7,6V4.48h1.5V6ZM7,4V2.51h1.5V4ZM5,8V6.48h1.5V8Zm1.5.5V10H5V8.48ZM5,6V4.48h1.5V6ZM5,4V2.51h1.5V4Zm1.5,6.51V12H5V10.49Zm.5,0h1.5V12H7Zm2,0h1.5V12H9Zm2,0h1.5V12H11Zm2,0h1.5V12H13Zm2,0h1.5V12H15Zm2,0h1.5V12H17Zm2,0h1.5V12H19Zm2,0h1.5V12H21Zm2,0h1.5V12H23Zm2,0h1.5V12H25ZM37,6V4.48h1.5V6Zm1.5.5V8H37V6.48Zm-1.5,2h1.5V10H37ZM57,8V6.48h1.5V8Zm1.5.5V10H57V8.48ZM57,6V4.48h1.5V6ZM55,8V6.48h1.5V8Zm1.5.5V10H55V8.48ZM55,6V4.48h1.5V6Zm0-2V2.51h1.5V4ZM53,8V6.48h1.5V8Zm1.5.5V10H53V8.48ZM53,6V4.48h1.5V6Zm0-2V2.51h1.5V4ZM51,8V6.48h1.5V8Zm1.5.5V10H51V8.48ZM51,6V4.48h1.5V6Zm0-2V2.51h1.5V4ZM49,8V6.48h1.5V8Zm1.5.5V10H49V8.48ZM49,6V4.48h1.5V6Zm0-2V2.51h1.5V4ZM47.71,8H47V6.48h1.5V8Zm.75.5V10H47V8.48ZM47.71,6H47V4.48h1.5V6ZM47,4V2.51h1.5V4ZM45,8V6.48h1.5V8Zm1.5.5V10H45V8.48ZM45,6V4.48h1.5V6Zm0-2V2.51h1.5V4ZM43,8V6.48h1.5V8Zm1.5.5V10H43V8.48ZM43,6V4.48h1.5V6Zm0-2V2.51h1.5V4ZM41,8V6.48h1.5V8Zm1.5.5V10H41V8.48ZM41,6V4.48h1.5V6Zm0-2V2.51h1.5V4ZM39,8V6.48h1.5V8Zm1.5.5V10H39V8.48ZM39,6V4.48h1.5V6Zm0-2V2.51h1.5V4Zm1.5,6.51V12H39V10.49Zm.5,0h1.5V12H41Zm2,0h1.5V12H43Zm2,0h1.5V12H45Zm2,0h1.5V12H47Zm2,0h1.5V12H49Zm2,0h1.5V12H51Zm2,0h1.5V12H53Zm2,0h1.5V12H55Zm2,0h1.5V12H57ZM57,4V2.51h1.5V4Zm2,2V4.48h1.5V6Zm1.5.5V8H59V6.48Zm-1.5,2h1.5V10H59Zm1.5-5.42V4H59V2.51h.23A1.74,1.74,0,0,1,60.46,3.06Zm-22-.55V4H37.14l.31-1.47Zm-34,0h0V4H3V3.35A1.76,1.76,0,0,1,4.45,2.51ZM3,11.11v-.62h1.5V12h0A1.74,1.74,0,0,1,3,11.11Zm24,.11v-.73h.23Zm10-.32v-.41h1.5V12H37.28ZM59.19,12H59V10.49h1.5v.92A1.78,1.78,0,0,1,59.19,12Z" transform="translate(0)"/></svg>