<svg xmlns="http://www.w3.org/2000/svg" xmlns:xlink="http://www.w3.org/1999/xlink" viewBox="0 0 32 32">
  <defs>
    <style>
      .cls-1 {
        fill: none;
      }

      .cls-2 {
        fill: #000000;
      }

      .cls-3 {
        clip-path: url(#clip-path);
      }
    </style>
    <clipPath id="clip-path">
      <circle class="cls-1" cx="16.1" cy="15.92" r="13.51"/>
    </clipPath>
  </defs>
  <title>icon</title>
  <g id="Layer_2" data-name="Layer 2">
    <g>
      <path class="cls-2" d="M16,30A14,14,0,1,1,30,16,14,14,0,0,1,16,30ZM16,3A13,13,0,1,0,29,16,13,13,0,0,0,16,3Z"/>
      <g>
        <path class="cls-2" d="M13,12.13a3.13,3.13,0,1,1,4.58,2.75v1.27a4.29,4.29,0,1,0-2.9,0V14.88A3.11,3.11,0,0,1,13,12.13Z"/>
        <path class="cls-2" d="M10.66,12.13a5.44,5.44,0,1,1,6.89,5.22V18a6,6,0,1,0-2.9,0v-.6A5.44,5.44,0,0,1,10.66,12.13Z"/>
      </g>
      <g class="cls-3">
        <g>
          <path class="cls-2" d="M25.46,33H16.68a.49.49,0,0,1-.41-.23L9.92,22.89a1.81,1.81,0,1,1,3-2l1.43,2.19V12.53a1.81,1.81,0,1,1,3.62,0v4.28a1.83,1.83,0,0,1,.84-.21,1.8,1.8,0,0,1,1.79,1.58,1.87,1.87,0,0,1,.85-.21,1.82,1.82,0,0,1,1.8,1.58,1.84,1.84,0,0,1,.85-.21A1.81,1.81,0,0,1,26,21.15V32.48A.49.49,0,0,1,25.46,33Zm-8.52-1h8V21.15a.83.83,0,0,0-.83-.83.84.84,0,0,0-.84.83.49.49,0,1,1-1,0V19.78a.84.84,0,0,0-.84-.83.83.83,0,0,0-.83.83.49.49,0,0,1-1,0V18.42a.83.83,0,0,0-.83-.84.84.84,0,0,0-.84.84.49.49,0,0,1-1,0V12.53a.84.84,0,0,0-.83-.84.85.85,0,0,0-.84.84V24.74a.49.49,0,0,1-.35.47.48.48,0,0,1-.54-.2l-2.33-3.57A.84.84,0,0,0,11,21.2a.8.8,0,0,0-.36.52.81.81,0,0,0,.11.63l1.5,2.3Z"/>
          <path class="cls-2" d="M17.52,22.05a.49.49,0,0,1-.49-.49V18.42a.49.49,0,1,1,1,0v3.14A.49.49,0,0,1,17.52,22.05Z"/>
          <path class="cls-2" d="M20.17,22.05a.49.49,0,0,1-.49-.49V19.78a.49.49,0,0,1,1,0v1.78A.49.49,0,0,1,20.17,22.05Z"/>
          <path class="cls-2" d="M22.82,23.42a.49.49,0,0,1-.49-.49V21.15a.49.49,0,1,1,1,0v1.78A.49.49,0,0,1,22.82,23.42Z"/>
        </g>
      </g>
    </g>
  </g>
</svg>
