<svg xmlns="http://www.w3.org/2000/svg" viewBox="0 0 32 32">
  <defs>
    <style>
      .cls-1 {
        fill: #000000;
      }
    </style>
  </defs>
  <title>icon</title>
  <g id="Layer_2" data-name="Layer 2">
    <g>
      <path class="cls-1" d="M13.321,10.96a4.961,4.961,0,0,1,1.553-.6c.518-.6.932-1.1,1.449-1.7a6.932,6.932,0,0,0-3.727,1A7.018,7.018,0,0,0,9.18,13.866,6.791,6.791,0,0,0,9.8,19.177a6.988,6.988,0,0,0,2.174,2.405,6.035,6.035,0,0,1,.725-1.4,3.945,3.945,0,0,1-1.449-1.7,5.218,5.218,0,0,1-.518-4.109,4.906,4.906,0,0,1,2.588-3.407M5.143,21.682A11.959,11.959,0,0,1,4,12.463,12.588,12.588,0,0,1,16.013,3.544a13.447,13.447,0,0,1,3.416.5c.311.1.725.2,1.035.3l1.242-1.2a6.117,6.117,0,0,0-1.759-.6,14.009,14.009,0,0,0-17.392,9.42A13.143,13.143,0,0,0,3.8,22.384,13.761,13.761,0,0,0,9.284,27.7c.207-.5.414-1,.621-1.4a12.18,12.18,0,0,1-4.762-4.61m2.174-8.417a9,9,0,0,1,8.7-6.414,11.674,11.674,0,0,1,1.863.2c.414-.4.828-.9,1.242-1.3h-.1A10.752,10.752,0,0,0,5.764,12.864a10.4,10.4,0,0,0,4.762,11.825c.207-.5.414-1,.621-1.4a8.889,8.889,0,0,1-3.83-10.021m17.6-8.118c-.311.4-.518.9-.828,1.3a12.088,12.088,0,0,1,3.933,12.627A12.529,12.529,0,0,1,12.8,27.5a11.247,11.247,0,0,1-1.035,1.3c.1,0,.311.1.414.1a12.588,12.588,0,0,0,3.831.5,13.95,13.95,0,0,0,13.458-9.921A13.565,13.565,0,0,0,24.916,5.147"/>
      <path class="cls-1" d="M24.916,2.742a95.515,95.515,0,0,0-13.458,14.03,33.888,33.888,0,0,1,5.279-1.3c-2.484,4.61-4.865,9.42-7.246,14.531A115.878,115.878,0,0,1,25.33,11.561a34.8,34.8,0,0,0-5.59-.1c1.656-3.107,3.416-6.013,5.176-8.719"/>
    </g>
  </g>
</svg>
