<svg id="Isolation_Mode" data-name="Isolation Mode" xmlns="http://www.w3.org/2000/svg" viewBox="0 0 19.84252 19.84252"><defs><style>.cls-1{fill:#44d62c;}.cls-2{fill:none;stroke:#44d62c;stroke-linecap:round;stroke-miterlimit:10;stroke-width:0.5px;}</style></defs><path class="cls-1" d="M9.925,12.28138a2.36012,2.36012,0,1,1,2.35643-2.36381l0,.00369A2.36382,2.36382,0,0,1,9.925,12.28138Zm-.0011-3.74611a1.386,1.386,0,1,0,1.3834,1.38858V9.92126A1.386,1.386,0,0,0,9.92385,8.53527Z"/><path class="cls-1" d="M9.92126,19.84252a9.92126,9.92126,0,1,1,9.92126-9.92126A9.92126,9.92126,0,0,1,9.92126,19.84252Zm0-19.13386a9.2126,9.2126,0,1,0,9.17,9.255l.0001-.04242A9.21261,9.21261,0,0,0,9.92126.70866Z"/><path class="cls-1" d="M9.92289,17.9423a1.0415,1.0415,0,1,1,1.03987-1.04313v.00163A1.04312,1.04312,0,0,1,9.92289,17.9423ZM9.92254,16.217a.68381.68381,0,1,0,.68253.68509V16.9008A.68381.68381,0,0,0,9.92254,16.217Z"/><path class="cls-1" d="M9.92289,4.26285a1.0415,1.0415,0,1,1,1.03987-1.04313v.00163A1.04312,1.04312,0,0,1,9.92289,4.26285ZM9.92254,2.53754a.68381.68381,0,1,0,.68253.68509V3.22135A.68381.68381,0,0,0,9.92254,2.53754Z"/><line class="cls-2" x1="9.92126" y1="14.83132" x2="9.92126" y2="13.11966"/><line class="cls-2" x1="9.92126" y1="6.92461" x2="9.92126" y2="5.21295"/><path class="cls-1" d="M15.49528,15.63279a1.0415,1.0415,0,1,1-.00231-1.4729l.00116.00115A1.04313,1.04313,0,0,1,15.49528,15.63279Zm-1.22023-1.21973a.68381.68381,0,1,0,.96705.00181l-.0009-.0009A.68382.68382,0,0,0,14.27505,14.41306Z"/><path class="cls-1" d="M5.82245,5.96a1.0415,1.0415,0,1,1-.00231-1.4729l.00116.00115A1.04313,1.04313,0,0,1,5.82245,5.96ZM4.60222,4.74023a.68381.68381,0,1,0,.96705.00181l-.0009-.0009A.68382.68382,0,0,0,4.60222,4.74023Z"/><line class="cls-2" x1="13.29433" y1="13.43415" x2="12.08401" y2="12.22382"/><line class="cls-2" x1="7.70344" y1="7.84326" x2="6.49312" y2="6.63293"/><path class="cls-1" d="M17.80215,10.05911A1.0415,1.0415,0,1,1,16.759,9.01924h.00163A1.04313,1.04313,0,0,1,17.80215,10.05911Zm-1.72531.00035a.68381.68381,0,1,0,.68509-.68252l-.00128,0A.68381.68381,0,0,0,16.07684,10.05946Z"/><path class="cls-1" d="M4.1227,10.05911A1.0415,1.0415,0,1,1,3.07957,9.01924H3.0812A1.04312,1.04312,0,0,1,4.1227,10.05911Zm-1.72531.00035a.68381.68381,0,1,0,.68509-.68252l-.00128,0A.68381.68381,0,0,0,2.39739,10.05946Z"/><line class="cls-2" x1="14.69117" y1="10.06074" x2="12.97951" y2="10.06074"/><line class="cls-2" x1="6.78446" y1="10.06074" x2="5.0728" y2="10.06074"/><path class="cls-1" d="M15.49264,4.48672a1.0415,1.0415,0,1,1-1.4729.00231l.00115-.00116A1.04313,1.04313,0,0,1,15.49264,4.48672ZM14.27291,5.707a.68381.68381,0,1,0,.00181-.96705l-.00091.0009A.68382.68382,0,0,0,14.27291,5.707Z"/><path class="cls-1" d="M5.81981,14.15955a1.0415,1.0415,0,1,1-1.4729.00231l.00115-.00116A1.04313,1.04313,0,0,1,5.81981,14.15955ZM4.60008,15.37978a.68381.68381,0,1,0,.00181-.96705l-.00091.0009A.68382.68382,0,0,0,4.60008,15.37978Z"/><line class="cls-2" x1="13.294" y1="6.68767" x2="12.08367" y2="7.89799"/><line class="cls-2" x1="7.70311" y1="12.27856" x2="6.49278" y2="13.48888"/></svg>