<svg id="Isolation_Mode" data-name="Isolation Mode" xmlns="http://www.w3.org/2000/svg" xmlns:xlink="http://www.w3.org/1999/xlink" viewBox="0 0 19.84 19.84"><defs><style>.cls-1{fill:none;}.cls-2{fill:#44d62c;}.cls-3{clip-path:url(#clip-path);}</style><clipPath id="clip-path" transform="translate(0 0)"><path class="cls-1" d="M10.83,16.48h0a.09.09,0,0,1,0,.07v.05l-.06.19a7.7,7.7,0,0,1-.83.05H9.08L9,16.6l-.09-.22-.08-.13-.06-.11a1.16,1.16,0,0,0-.25-.29h0a1.26,1.26,0,0,0-.78-.34,1.65,1.65,0,0,0-1,.36l-.2.13A6.24,6.24,0,0,1,5.2,15l.07-.21a1.75,1.75,0,0,0,.1-.75,1.29,1.29,0,0,0-.24-.66,1.45,1.45,0,0,0-1.27-.56H3.58a8.41,8.41,0,0,1-.36-1l-.16-.61.2-.14A1.47,1.47,0,0,0,4,10H4a1.47,1.47,0,0,0-.71-1.21l-.2-.13a6.73,6.73,0,0,1,.52-1.57h.24a1.4,1.4,0,0,0,1.27-.57,1.18,1.18,0,0,0,.24-.65,1.75,1.75,0,0,0-.1-.75l-.07-.21a7.19,7.19,0,0,1,1.34-1L6.69,4a1.58,1.58,0,0,0,1,.35,1.38,1.38,0,0,0,1.22-1h0a.14.14,0,0,1,0-.09h0L9,3.1A6.4,6.4,0,0,1,9.88,3h.83l.07.23.09.23.08.13a.36.36,0,0,0,.07.1,1.76,1.76,0,0,0,.24.3h0a1.26,1.26,0,0,0,.78.32A1.48,1.48,0,0,0,13,4l.2-.15a6.81,6.81,0,0,1,1.33,1L14.52,5a1.92,1.92,0,0,0-.1.75,1.27,1.27,0,0,0,.25.65,1.42,1.42,0,0,0,1.26.6h.25a8.49,8.49,0,0,1,.36,1c.06.21.11.42.15.61l-.2.13a1.48,1.48,0,0,0-.7,1.21h0a1.48,1.48,0,0,0,.7,1.2l.2.14a6.63,6.63,0,0,1-.51,1.56h-.25a1.44,1.44,0,0,0-1.26.56,1.3,1.3,0,0,0-.25.66,1.92,1.92,0,0,0,.1.75l.08.22a7.66,7.66,0,0,1-1.34,1l-.2-.15a1.59,1.59,0,0,0-1-.36,1.39,1.39,0,0,0-1.21,1Z"/></clipPath></defs><g id="Layer_2" data-name="Layer 2"><path class="cls-2" d="M17.36,10.71,17,10.4a.9.9,0,0,1-.37-.58.78.78,0,0,1,.37-.5L17.36,9a.32.32,0,0,0,.15-.28V8.65a6.9,6.9,0,0,0-.23-1,7.84,7.84,0,0,0-.5-1.24.38.38,0,0,0-.34-.21H16a.71.71,0,0,1-.69-.2.47.47,0,0,1-.1-.3,1.21,1.21,0,0,1,0-.38l.17-.45a.38.38,0,0,0,0-.21.35.35,0,0,0-.1-.2A7.6,7.6,0,0,0,13.41,3,.35.35,0,0,0,13,3l-.38.29a.81.81,0,0,1-.52.26c-.26,0-.48-.22-.58-.56l-.14-.46a.36.36,0,0,0-.3-.27A9.85,9.85,0,0,0,10,2.16H9.8a9.83,9.83,0,0,0-1.08.09.36.36,0,0,0-.3.27L8.3,3h0v.07h0a.65.65,0,0,1-.58.49.81.81,0,0,1-.53-.2L6.8,3.05a.35.35,0,0,0-.39,0A7.58,7.58,0,0,0,4.55,4.37H4.49a.54.54,0,0,0-.1.2.37.37,0,0,0,0,.21l.17.46a.92.92,0,0,1,.05.37.47.47,0,0,1-.1.3A.38.38,0,0,1,4.42,6h0a.86.86,0,0,1-.5.12H3.38a.42.42,0,0,0-.38.3,7.76,7.76,0,0,0-.71,2.25h0a.4.4,0,0,0,.16.39l.39.31a.85.85,0,0,1,.37.57.78.78,0,0,1-.37.5l-.39.27a.38.38,0,0,0-.15.3.14.14,0,0,0,0,.09,6.9,6.9,0,0,0,.23,1A7.73,7.73,0,0,0,3,13.33a.38.38,0,0,0,.34.21H3.9a.69.69,0,0,1,.64.24.57.57,0,0,1,.1.31,1.15,1.15,0,0,1,0,.37l-.17.46a.34.34,0,0,0,0,.2.41.41,0,0,0,.1.21,8,8,0,0,0,1.91,1.42.41.41,0,0,0,.4,0l.38-.3a.82.82,0,0,1,.54-.2c.26,0,.48.21.58.56l.14.47a.37.37,0,0,0,.3.26,6.56,6.56,0,0,0,1.08.09h.2a6.56,6.56,0,0,0,1.08-.09.37.37,0,0,0,.3-.26l.14-.47h0v-.07h0a.66.66,0,0,1,.54-.47.94.94,0,0,1,.54.2l.38.3a.41.41,0,0,0,.4,0,7.65,7.65,0,0,0,1.86-1.34l.05-.06a.3.3,0,0,0,.1-.19.37.37,0,0,0,0-.21l-.16-.46a1.15,1.15,0,0,1-.06-.37.57.57,0,0,1,.1-.31l.09-.08h0a.82.82,0,0,1,.51-.12h.49a.39.39,0,0,0,.34-.21,7.45,7.45,0,0,0,.7-2.25h0A.38.38,0,0,0,17.36,10.71Zm-6.49,5.74h0a.11.11,0,0,1,0,.08h0l-.06.18H9.12l-.07-.23L9,16.36a.64.64,0,0,0-.08-.14l-.06-.11a2.26,2.26,0,0,0-.25-.29h0a1.26,1.26,0,0,0-.78-.34,1.64,1.64,0,0,0-1,.37L6.58,16a6.59,6.59,0,0,1-1.34-1l.07-.22a1.75,1.75,0,0,0,.1-.75,1.29,1.29,0,0,0-.24-.66,1.45,1.45,0,0,0-1.27-.56H3.61c-.13-.31-.25-.63-.35-1l-.16-.61.2-.14A1.51,1.51,0,0,0,4,9.93H4a1.46,1.46,0,0,0-.7-1.21l-.2-.13A7.37,7.37,0,0,1,3.61,7h.25a1.41,1.41,0,0,0,1.27-.56,1.21,1.21,0,0,0,.24-.66A1.75,1.75,0,0,0,5.27,5l-.08-.21a7.38,7.38,0,0,1,1.35-1L6.73,4a1.59,1.59,0,0,0,1,.36A1.37,1.37,0,0,0,9,3.39H9A.14.14,0,0,1,9,3.3H9l.06-.19A6.13,6.13,0,0,1,9.92,3h.83l.07.23.09.23.08.13a.36.36,0,0,0,.07.1,1.76,1.76,0,0,0,.24.3h0a1.25,1.25,0,0,0,.78.33,1.57,1.57,0,0,0,1-.36l.19-.15a6.59,6.59,0,0,1,1.34,1l0,.19a1.92,1.92,0,0,0-.1.75,1.29,1.29,0,0,0,.24.66,1.47,1.47,0,0,0,1.3.51h.25a8.49,8.49,0,0,1,.36,1c.06.21.11.42.15.61l-.2.13a1.49,1.49,0,0,0-.71,1.21h0a1.52,1.52,0,0,0,.71,1.2l.2.14a7.12,7.12,0,0,1-.51,1.56H16a1.45,1.45,0,0,0-1.27.56,1.32,1.32,0,0,0-.24.66,1.92,1.92,0,0,0,.1.75l.08.22a7.38,7.38,0,0,1-1.35,1l-.19-.14a1.59,1.59,0,0,0-1-.36,1.35,1.35,0,0,0-1.21,1Z" transform="translate(0 0)"/><path class="cls-2" d="M9.92,19.84a9.92,9.92,0,1,1,9.92-9.92h0A9.92,9.92,0,0,1,9.92,19.84ZM9.92.71A9.21,9.21,0,1,0,19.09,10h0A9.21,9.21,0,0,0,10,.71Z" transform="translate(0 0)"/></g><g class="cls-3"><path class="cls-2" d="M13.21,7.33v8.88h.52V7.33a1.08,1.08,0,0,0-1.08-1.08H4.76v.5h7.87A.58.58,0,0,1,13.21,7.33Z" transform="translate(0 0)"/></g><g id="Layer_2-2" data-name="Layer 2-2"><path class="cls-2" d="M13.21,8.91A7.1,7.1,0,0,1,12,11.75a1.69,1.69,0,0,1-3-1.2c.07-.46.16-.71.19-.92s-.14-.21-.23.1a.85.85,0,0,1-1,.67.81.81,0,0,1-.48-.28c-.09-.08-.41,0-.56-.12s-.15-.18-.22-.22c-.35-.24-.2-.36-.48-.61a.24.24,0,0,1-.11-.28L5.6,8.55l-.4-.06h.36L5.42,8.1l.22.34.53.33h0a.28.28,0,0,1,.25,0c.34.16.38,0,.75.19.07,0,.06,0,.3.11s.23.4.33.46a.35.35,0,0,0,.49,0h0a.39.39,0,0,0,.08-.1c.07-.18.18-.74.78-.83a.72.72,0,0,1,.84.58v0a.67.67,0,0,1,0,.2c-.08.38-.42,1.38.13,1.83.71.57,1.44-.38,1.56-.9.09-.36.47-2.3.78-3.58-.1-.14-.23,0-.34-.12-.23.92-.51,2.17-.76,3.28l-.07.33a1.25,1.25,0,0,1-.6.75.3.3,0,0,1-.32-.08c-.29-.22-.12-.89,0-1.24a.59.59,0,0,1,0-.19,1.12,1.12,0,0,0-.3-1,1,1,0,0,0-.93-.34,1.33,1.33,0,0,0-1.07,1,1,1,0,0,0-.35-.42,1.13,1.13,0,0,0-.36-.14,1,1,0,0,0-.56-.14H6.69a.7.7,0,0,0-.43-.07L6,8.16,5.77,7.9a.41.41,0,0,0-.52-.14A.4.4,0,0,0,5,8.12a.4.4,0,0,0-.21.52.42.42,0,0,0,.32.24h.31l.27.17a.69.69,0,0,0,.31.4.28.28,0,0,1,.1.14,1.19,1.19,0,0,0,.35.45,1,1,0,0,0,.27.26.93.93,0,0,0,.54.14h0a1.24,1.24,0,0,0,1.16.32.47.47,0,0,0,.15-.06,2,2,0,0,0,1.24,1.89A2.06,2.06,0,0,0,12.34,12a5.88,5.88,0,0,0,.93-1.77V9.77A4.1,4.1,0,0,0,13.21,8.91Z" transform="translate(0 0)"/></g></svg>