<svg id="icon-seiren" xmlns="http://www.w3.org/2000/svg" width="18.546" height="34" viewBox="0 0 18.546 34">
  <g id="Razer_Seiren_icon_default" data-name="Razer Seiren icon default" transform="translate(2429 2347)">
    <path id="Subtraction_159" data-name="Subtraction 159" d="M-17063.637-5873.334H-17074a1,1,0,0,1-1-1V-5895a1,1,0,0,1,1-1h10.365a1,1,0,0,1,1,1v20.668A1,1,0,0,1-17063.637-5873.334Zm-5.18-5.151a1.034,1.034,0,0,0-1.033,1.033,1.032,1.032,0,0,0,1.033,1.028,1.029,1.029,0,0,0,1.027-1.028A1.031,1.031,0,0,0-17068.816-5878.485Zm-4.123-15.453h0v13.391h8.24v-13.391h-8.24Z" transform="translate(14649.091 3549)" fill="#eee"/>
    <rect id="Rectangle_170" data-name="Rectangle 170" width="4.121" height="8.242" transform="translate(-2421.788 -2323.303)" fill="#eee"/>
    <path id="Subtraction_33" data-name="Subtraction 33" d="M18.36,3.091H.185A.87.87,0,0,1,0,2.576C0,1.156,4.16,0,9.273,0s9.273,1.156,9.273,2.576a.87.87,0,0,1-.185.514Z" transform="translate(-2429 -2316.091)" fill="#eee"/>
    <path id="Intersection_19" data-name="Intersection 19" d="M-13923.526-3446.045h9v15h-9Z" transform="translate(11499.027 1100.545)" fill="none" stroke="#eee" stroke-width="0.5"/>
    <path id="Intersection_20" data-name="Intersection 20" d="M-13915.784-3431.686l1.1-1.1Zm-.146,0-1.342-1.343Zm-2.682,0,1.34-1.343Zm-.146,0-1.342-1.343Zm-2.682,0,1.34-1.343Zm-.146,0-1.342-1.343-.707.71.707-.71-.759-.759.759.759,1.415-1.412-1.415,1.412Zm2.9-2.755,1.413,1.412ZM-13917.272-3433.029Zm0,0,1.419-1.416Zm-4.241-1.412,1.413,1.412ZM-13920.1-3433.029Zm0,0,1.415-1.412Zm4.247-1.416,1.167,1.171Zm-4.247-1.412,1.415,1.416ZM-13918.686-3434.441Zm0,0,1.416-1.416Zm-4.243-1.416,1.415,1.416ZM-13921.514-3434.441Zm0,0,1.413-1.416Zm4.244-1.416,1.416,1.412ZM-13915.854-3434.445Zm0,0,1.167-1.167Zm-7.834-.652.759-.76Zm5.006-2.176,1.412,1.416ZM-13917.27-3435.857Zm0,0,1.412-1.416Zm-4.244-1.412,1.413,1.412ZM-13920.1-3435.857Zm0,0,1.419-1.416Zm-3.587-.759.759.759ZM-13922.929-3435.857Zm0,0,1.415-1.412Zm7.071-1.416,1.171,1.171Zm-7.071-1.412,1.415,1.416ZM-13921.514-3437.269Zm0,0,1.416-1.416Zm4.244-1.416,1.412,1.412ZM-13915.857-3437.273Zm0,0,1.171-1.168Zm-4.24-1.412,1.416,1.412ZM-13918.682-3437.273Zm0,0,1.412-1.412Zm-5.006-.652.759-.76Zm5-2.176,1.416,1.416ZM-13917.27-3438.685Zm0,0,1.412-1.416Zm-4.24-1.416,1.412,1.416ZM-13920.1-3438.685Zm0,0,1.412-1.416Zm-3.59-.759.759.759ZM-13922.929-3438.685Zm0,0,1.419-1.416Zm7.071-1.416,1.171,1.171Zm-1.412-1.412,1.412,1.412ZM-13915.857-3440.1Zm0,0,1.171-1.168Zm-4.24-1.412,1.412,1.412ZM-13918.686-3440.1Zm0,0,1.416-1.412Zm-4.24-1.416,1.416,1.416ZM-13921.51-3440.1Zm0,0,1.412-1.412Zm-2.178-.656.762-.76Zm5-2.172,1.416,1.416ZM-13917.27-3441.513Zm0,0,1.412-1.416Zm-4.244-1.416,1.416,1.416ZM-13920.1-3441.513Zm0,0,1.412-1.416Zm-3.59-.766.762.762ZM-13922.926-3441.517Zm0,0,1.412-1.412Zm7.068-1.412,1.171,1.171Zm-1.412-1.412,1.412,1.412ZM-13915.857-3442.929Zm0,0,1.171-1.168Zm-4.243-1.416,1.415,1.416ZM-13918.686-3442.929Zm0,0,1.416-1.412Zm-4.243-1.416-.759.759.759-.759,1.415-1.412.928-.93-.928.93,1.413,1.412-1.413-1.412-1.415,1.412,1.415,1.416ZM-13921.514-3442.929Zm0,0,1.413-1.416Zm2.828-2.828,1.416,1.416ZM-13917.27-3444.341Zm0,0,1.412-1.416ZM-13920.1-3444.344Zm0,0,1.415-1.412Zm-3.535-.706.707.706Zm7.778-.706-.93-.93.93.93.71-.706-.71.706,1.171,1.171Zm-3.758-.93.93.93ZM-13918.686-3445.757Zm0,0,.928-.93Zm-3.534-.71.706.71Z" transform="translate(11499.188 1101.186)" fill="rgba(0,0,0,0)" stroke="#eee" stroke-width="0.5"/>
  </g>
</svg>
