<svg xmlns="http://www.w3.org/2000/svg" width="30" height="36.001" viewBox="0 0 30 36.001">
  <path id="stream_ctrl" data-name="stream ctrl" d="M-13208-155a2,2,0,0,1-2-2v-32a2,2,0,0,1,2-2h26a2,2,0,0,1,2,2v32a2,2,0,0,1-2,2Zm22-3h4v-3h-4Zm-16,0h14v-7h-14Zm-6,0h4v-3h-4Zm22-4h4v-3h-4Zm-22,0h4v-3h-4Zm22-4h4v-3h-4Zm-6,0h4v-3h-4Zm-5,0h4v-3h-4Zm-5,0h4v-3h-4Zm-6,0h4v-3h-4Zm5-13a8.012,8.012,0,0,0,8,8,8.01,8.01,0,0,0,8-8,8.007,8.007,0,0,0-8-8A8.009,8.009,0,0,0-13203-179Zm17,3h4v-3h-4Zm-22,0h4v-3h-4Zm22-4h4v-3h-4Zm-22,0h4v-3h-4Zm7,1a6,6,0,0,1,6-6,6,6,0,0,1,6,6,6,6,0,0,1-6,6A6,6,0,0,1-13201-179Z" transform="translate(13210.001 191)" fill="#eee"/>
</svg>
