<svg xmlns="http://www.w3.org/2000/svg" width="38.002" height="36.005" viewBox="0 0 38.002 36.005">
  <path id="Key_Light_Chroma" data-name="Key Light Chroma" d="M-13401.982-154.995v-1h5v1Zm0-2v-8a2.508,2.508,0,0,0,1,1.522v1.977a1.5,1.5,0,0,0,1.5,1.5,1.5,1.5,0,0,0,1.5-1.5v-1.973a2.5,2.5,0,0,0,1.007-1.525v8Zm8-2v-4h1v4Zm-2-1v-2h1v2Zm-4-1.5v-1.546a2.457,2.457,0,0,0,.5.047,2.5,2.5,0,0,0,.5-.047v1.546a.5.5,0,0,1-.5.5A.5.5,0,0,1-13399.979-161.5Zm-.949-3.5h2.9a1.447,1.447,0,0,1-1.451,1A1.442,1.442,0,0,1-13400.929-165Zm-15.053-1a2,2,0,0,1-2-2v-21a2.005,2.005,0,0,1,2-2h34a2.006,2.006,0,0,1,2,2v21a2,2,0,0,1-2,2Zm1-21v17a1,1,0,0,0,1,1h30a1.006,1.006,0,0,0,1-1v-17a1,1,0,0,0-1-1h-30A1,1,0,0,0-13414.981-187Z" transform="translate(13417.981 190.999)" fill="#eee"/>
</svg>
