<svg id="icon-ripsawHD" xmlns="http://www.w3.org/2000/svg" width="45.999" height="12" viewBox="0 0 45.999 12">
  <g id="Ripsaw_HD_icon_default" data-name="Ripsaw HD icon default" transform="translate(-669 -208.999)">
    <path id="Subtraction_166" data-name="Subtraction 166" d="M-14193-3350h-46v-12h46v12Zm-18.5-7a1.5,1.5,0,0,0-1.5,1.5,1.5,1.5,0,0,0,1.5,1.5,1.5,1.5,0,0,0,1.5-1.5A1.5,1.5,0,0,0-14211.5-3357Zm-9,0a1.5,1.5,0,0,0-1.5,1.5,1.5,1.5,0,0,0,1.5,1.5,1.5,1.5,0,0,0,1.5-1.5A1.5,1.5,0,0,0-14220.5-3357Zm-11.5.5a1,1,0,0,0-1,1,1,1,0,0,0,1,1,1,1,0,0,0,1-1A1,1,0,0,0-14232-3356.5Z" transform="translate(14908 3571)" fill="#eee"/>
  </g>
</svg>
