<svg xmlns="http://www.w3.org/2000/svg" width="35.29" height="35" viewBox="0 0 35.29 35">
  <g id="Razer_Kraken_icon_default" data-name="Razer Kraken icon default" transform="translate(2472.645 2477)">
    <rect id="Rectangle_150" data-name="Rectangle 150" width="4.979" height="13.762" rx="1" transform="translate(-2466.318 -2458.952) rotate(-13)" fill="#eee"/>
    <path id="Subtraction_44" data-name="Subtraction 44" d="M2.615,10.564l0,0A6.736,6.736,0,0,1,0,5.267a6.622,6.622,0,0,1,.945-3.4,7.006,7.006,0,0,1,1.682-1.9,2.011,2.011,0,0,0-.056.471v9.714a2.016,2.016,0,0,0,.043.413Z" transform="translate(-2472.637 -2455.838) rotate(-13)" fill="#eee"/>
    <rect id="Rectangle_189" data-name="Rectangle 189" width="2.571" height="13.714" rx="1.286" transform="translate(-2469.648 -2458.135) rotate(-13)" fill="#eee"/>
    <rect id="Rectangle_150-2" data-name="Rectangle 150" width="4.979" height="13.762" rx="1" transform="translate(-2446.777 -2445.543) rotate(-167)" fill="#eee"/>
    <path id="Subtraction_44-2" data-name="Subtraction 44" d="M2.627,10.566l0,0a7.005,7.005,0,0,1-1.68-1.9A6.623,6.623,0,0,1,0,5.261a6.735,6.735,0,0,1,2.615-5.3,2.016,2.016,0,0,0-.043.416V10.1a2.009,2.009,0,0,0,.055.468Z" transform="translate(-2439.731 -2445.579) rotate(-167)" fill="#eee"/>
    <rect id="Rectangle_189-2" data-name="Rectangle 189" width="2.571" height="13.715" rx="1.286" transform="translate(-2443.437 -2444.772) rotate(-167)" fill="#eee"/>
    <path id="Subtraction_49" data-name="Subtraction 49" d="M25.831,14.882h0l-2.857-.738a13.829,13.829,0,0,0-2.515-6.77,3.008,3.008,0,0,0,.155-.946c0-2.6-3.453-4.714-7.7-4.714s-7.7,2.115-7.7,4.714a2.948,2.948,0,0,0,.157.945A13.826,13.826,0,0,0,2.86,14.132L0,14.877a18.454,18.454,0,0,1,1-5.27,16.2,16.2,0,0,1,2.772-5A13.088,13.088,0,0,1,7.881,1.236a10.871,10.871,0,0,1,10.068,0A13.088,13.088,0,0,1,22.06,4.607a16.225,16.225,0,0,1,2.772,5,18.489,18.489,0,0,1,1,5.274Z" transform="translate(-2467.943 -2474)" fill="#eee"/>
    <path id="Subtraction_50" data-name="Subtraction 50" d="M.034,4.715h0A2.973,2.973,0,0,1,0,4.286C0,1.923,3.063,0,6.829,0s6.829,1.923,6.829,4.286a2.751,2.751,0,0,1-.033.423,4.074,4.074,0,0,0-2.2-2.736A9.4,9.4,0,0,0,6.829.857a9.4,9.4,0,0,0-4.6,1.116A4.063,4.063,0,0,0,.034,4.715Z" transform="translate(-2461.857 -2471.429)" fill="#eee"/>
    <path id="Union_84" data-name="Union 84" d="M-11517.7-2109v0Zm-21.369,0v0c-.142-.406-1.361-4.023-.776-6.311a.824.824,0,0,1,.878-.684c1.7,0,5.17,3.024,5.2,3.055-.011,0-.423.179-.937.432-.826-.65-2.344-1.737-3.229-1.737a.626.626,0,0,0-.663.515,7.876,7.876,0,0,0,.313,3.856c-.261.278-.536.582-.773.863l-.012.013,0,0Zm21.357-.013c-.24-.281-.516-.585-.773-.863a7.82,7.82,0,0,0,.31-3.856.624.624,0,0,0-.663-.515c-.883,0-2.4,1.087-3.229,1.737-.513-.252-.927-.429-.936-.432.035-.031,3.5-3.055,5.2-3.055a.826.826,0,0,1,.88.684c.583,2.288-.637,5.906-.775,6.311l0,0Z" transform="translate(9073 -361.001)" fill="#eee"/>
    <rect id="Rectangle_600" data-name="Rectangle 600" width="1" height="4" transform="translate(-2445 -2446)" fill="#eee"/>
  </g>
</svg>
