<svg xmlns="http://www.w3.org/2000/svg" viewBox="0 0 32 32">
  <defs>
    <style>
      .cls-1 {
        fill: #888888;
      }
    </style>
  </defs>
  <title>ic</title>
  <g id="Layer_2" data-name="Layer 2">
    <g>
      <path class="cls-1" d="M18.32,21.26v-.61a4,4,0,0,1,1.21-2.86A4.76,4.76,0,0,0,21,14.31,4.82,4.82,0,0,0,16.22,9.5a5.07,5.07,0,0,0-.55,0,4.81,4.81,0,0,0-2.8,8.23,4,4,0,0,1,1.24,2.89v.61a1.19,1.19,0,0,0,1.19,1.19h1.83A1.19,1.19,0,0,0,18.32,21.26Zm-.87,0a.32.32,0,0,1-.32.32H15.3a.31.31,0,0,1-.31-.32v-.61a4.93,4.93,0,0,0-1.51-3.52,3.93,3.93,0,0,1,2.29-6.73l.45,0a3.94,3.94,0,0,1,3.93,3.94,3.88,3.88,0,0,1-1.22,2.84,4.85,4.85,0,0,0-1.48,3.5v.61Z"/>
      <path class="cls-1" d="M17.64,22.89H14.79c-.18,0-.32.21-.32.47s.14.48.32.48h2.85c.18,0,.33-.21.33-.48S17.82,22.89,17.64,22.89Z"/>
      <path class="cls-1" d="M18,24.87c0-.27-.15-.48-.33-.48H14.79c-.18,0-.32.21-.32.48s.14.47.32.47h2.85C17.82,25.34,18,25.13,18,24.87Z"/>
      <path class="cls-1" d="M15.61,5.33V8.08a.62.62,0,0,0,1.21,0V5.33a.62.62,0,0,0-1.21,0Z"/>
      <path class="cls-1" d="M17.26,26.37c0-.26-.15-.47-.33-.47H15.51c-.19,0-.33.21-.33.47s.14.48.33.48h1.42C17.11,26.85,17.26,26.63,17.26,26.37Z"/>
      <path class="cls-1" d="M22.42,7.64l-1.89,2a.56.56,0,0,0,.11.77.56.56,0,0,0,.77.07l1.89-2a.55.55,0,0,0-.12-.76A.54.54,0,0,0,22.42,7.64Z"/>
      <path class="cls-1" d="M9.64,7.71a.55.55,0,0,0-.11.76l1.89,2a.54.54,0,0,0,.76-.07.56.56,0,0,0,.12-.77l-1.89-2A.56.56,0,0,0,9.64,7.71Z"/>
      <path class="cls-1" d="M22.89,15.34h2.75a.55.55,0,0,0,.47-.61.56.56,0,0,0-.47-.61H22.89a.56.56,0,0,0-.48.61A.55.55,0,0,0,22.89,15.34Z"/>
      <path class="cls-1" d="M6.89,15.34H9.64a.55.55,0,0,0,.47-.61.56.56,0,0,0-.47-.61H6.89a.56.56,0,0,0-.48.61A.55.55,0,0,0,6.89,15.34Z"/>
    </g>
    <path class="cls-1" d="M16,2A14,14,0,1,0,30,16,14,14,0,0,0,16,2Zm0,26.82A12.82,12.82,0,1,1,28.82,16,12.83,12.83,0,0,1,16,28.82Z"/>
  </g>
</svg>
