<svg xmlns="http://www.w3.org/2000/svg" viewBox="0 0 32 32"><defs><style>.cls-1{fill:#888888;}</style></defs><title>icon</title><g id="Layer_2" data-name="Layer 2"><path class="cls-1" d="M15.62,16.88v1.55h-1V13.31h1.85a1.56,1.56,0,0,1,1.79,1.74,1.63,1.63,0,0,1-1.79,1.83Zm0-.88h.82c.51,0,.76-.31.76-.95s-.25-.87-.76-.87h-.82Z"/><path class="cls-1" d="M16.14,22.46a6.39,6.39,0,1,1,6.38-6.39A6.4,6.4,0,0,1,16.14,22.46Zm0-11.73a5.34,5.34,0,1,0,5.33,5.34A5.34,5.34,0,0,0,16.14,10.73Z"/><path class="cls-1" d="M26.5,17.11l-.56-.44a1.29,1.29,0,0,1-.52-.81,1.15,1.15,0,0,1,.52-.71l.56-.39a.49.49,0,0,0,.21-.4s0-.07,0-.15a10.72,10.72,0,0,0-.33-1.42,10.47,10.47,0,0,0-.7-1.75.53.53,0,0,0-.48-.29l-.69,0a1,1,0,0,1-.91-.36.73.73,0,0,1-.14-.42,1.49,1.49,0,0,1,.08-.53l.23-.64a.51.51,0,0,0,0-.3.53.53,0,0,0-.14-.28,10.67,10.67,0,0,0-2.7-2,.5.5,0,0,0-.56,0l-.54.41A1.17,1.17,0,0,1,19.1,7c-.37,0-.67-.31-.81-.8l-.2-.65a.53.53,0,0,0-.42-.38,12.48,12.48,0,0,0-1.53-.12h-.28a12.48,12.48,0,0,0-1.53.12.53.53,0,0,0-.42.38l-.2.66h0v0a.36.36,0,0,1,0,.09h0A.93.93,0,0,1,12.9,7a1.19,1.19,0,0,1-.76-.29l-.54-.41a.5.5,0,0,0-.56,0A10.49,10.49,0,0,0,8.42,8.17l-.08.07a.53.53,0,0,0-.14.28.51.51,0,0,0,0,.3l.23.65a1.4,1.4,0,0,1,.08.52.73.73,0,0,1-.14.42.8.8,0,0,1-.13.13l-.07.05a1.23,1.23,0,0,1-.71.18l-.69,0a.55.55,0,0,0-.48.29,10.52,10.52,0,0,0-1,3.17s0,0,0,0v0a.56.56,0,0,0,.22.55l.56.44a1.26,1.26,0,0,1,.52.81,1.13,1.13,0,0,1-.52.7l-.56.39a.52.52,0,0,0-.21.41.2.2,0,0,0,0,.14,11.2,11.2,0,0,0,.33,1.43,10.71,10.71,0,0,0,.7,1.74.51.51,0,0,0,.48.29h.69a1,1,0,0,1,.91.35.79.79,0,0,1,.14.43,1.44,1.44,0,0,1-.08.52l-.23.65a.49.49,0,0,0,0,.29.53.53,0,0,0,.14.29,11.18,11.18,0,0,0,2.7,2,.54.54,0,0,0,.56,0l.54-.42a1.22,1.22,0,0,1,.76-.28c.37,0,.67.3.81.79l.2.66a.52.52,0,0,0,.42.37,10.76,10.76,0,0,0,1.53.13h.28a10.76,10.76,0,0,0,1.53-.13.52.52,0,0,0,.42-.37l.2-.66h0v0a.42.42,0,0,1,0-.1h0a.92.92,0,0,1,.76-.66,1.24,1.24,0,0,1,.76.28l.54.42a.54.54,0,0,0,.56,0,10.74,10.74,0,0,0,2.62-1.89l.08-.08a.47.47,0,0,0,.14-.27.51.51,0,0,0,0-.3l-.23-.65a1.44,1.44,0,0,1-.08-.52.79.79,0,0,1,.14-.43.49.49,0,0,1,.13-.12l.07-.06a1.23,1.23,0,0,1,.71-.17h.69a.51.51,0,0,0,.48-.29,10.43,10.43,0,0,0,1-3.17s0,0,0,0v0A.55.55,0,0,0,26.5,17.11Zm-9.16,8.1s0,0,0,0,0,.07-.05.11l0,.07-.08.26a8.76,8.76,0,0,1-1.17.07c-.26,0-.51,0-.76,0l-.41,0-.1-.33a3.05,3.05,0,0,0-.13-.31,1.18,1.18,0,0,0-.11-.19,1.19,1.19,0,0,0-.09-.15,2.06,2.06,0,0,0-.35-.42h0a1.77,1.77,0,0,0-1.1-.47,2.27,2.27,0,0,0-1.44.51l-.27.2a9.5,9.5,0,0,1-1.89-1.37l.1-.3a2.47,2.47,0,0,0,.14-1.06,1.81,1.81,0,0,0-.34-.93,2.05,2.05,0,0,0-1.79-.79H7.1a11.63,11.63,0,0,1-.5-1.35c-.09-.31-.16-.59-.22-.86l.28-.19a2.1,2.1,0,0,0,1-1.7v0h0a2.09,2.09,0,0,0-1-1.7l-.28-.19a9.53,9.53,0,0,1,.72-2.21h.35a2,2,0,0,0,1.79-.8,1.75,1.75,0,0,0,.34-.93,2.44,2.44,0,0,0-.14-1.05l-.11-.3a10.36,10.36,0,0,1,1.9-1.38l.27.21a2.22,2.22,0,0,0,1.44.5,1.94,1.94,0,0,0,1.71-1.38v0l0,0s0-.08.05-.12l0-.06.08-.27A10.82,10.82,0,0,1,16,6.16c.26,0,.51,0,.76,0l.41,0,.1.33a2.4,2.4,0,0,0,.13.32,1.86,1.86,0,0,0,.11.19.67.67,0,0,0,.09.14,2.06,2.06,0,0,0,.35.42v0a1.75,1.75,0,0,0,1.1.46,2.2,2.2,0,0,0,1.44-.5l.27-.21a10,10,0,0,1,1.89,1.38l-.1.3a2.44,2.44,0,0,0-.14,1.05,1.78,1.78,0,0,0,.34.93,2.06,2.06,0,0,0,1.79.8h.35a10.4,10.4,0,0,1,.5,1.35c.09.3.16.59.22.86l-.28.19a2.09,2.09,0,0,0-1,1.7h0v0a2.1,2.1,0,0,0,1,1.7l.28.19a9.68,9.68,0,0,1-.72,2.21h-.35a2,2,0,0,0-1.79.79,1.81,1.81,0,0,0-.34.93,2.47,2.47,0,0,0,.14,1.06l.11.3a9.87,9.87,0,0,1-1.9,1.37l-.27-.2a2.29,2.29,0,0,0-1.44-.51,1.93,1.93,0,0,0-1.71,1.39A0,0,0,0,0,17.34,25.21ZM15.93,5.61Zm.14,20.71Z"/><path class="cls-1" d="M16,30A14,14,0,1,1,30,16,14,14,0,0,1,16,30ZM16,3A13,13,0,1,0,28.94,16,13,13,0,0,0,16,3Z"/></g></svg>