<svg xmlns="http://www.w3.org/2000/svg" viewBox="0 0 32 32"><defs><style>.cls-1{fill:#888888;}</style></defs><title>icon</title><g id="Layer_2" data-name="Layer 2"><path class="cls-1" d="M16,30A14,14,0,1,1,30,16,14,14,0,0,1,16,30ZM16,3.06A12.94,12.94,0,1,0,28.94,16,12.95,12.95,0,0,0,16,3.06Z"/><path class="cls-1" d="M23.24,11.25a1,1,0,0,0-.55-.83L16.45,7.33A1,1,0,0,0,16,7.21a1.13,1.13,0,0,0-.47.12L9.32,10.42a1,1,0,0,0-.55.83A19.05,19.05,0,0,0,9.17,17c.93,4.12,3.18,6.79,6.55,7.75a1.08,1.08,0,0,0,.29.05,1.37,1.37,0,0,0,.28-.05c3.35-1,5.62-3.63,6.55-7.73A20.4,20.4,0,0,0,23.24,11.25Zm-13.45.11,5.66-2.83v15C8.81,21.16,9.79,11.36,9.79,11.36Zm6.75,12.2v-15l5.66,2.83S23.18,21.16,16.54,23.56Z"/></g></svg>