<svg id="icon-goliathus" xmlns="http://www.w3.org/2000/svg" width="50.001" height="29.001" viewBox="0 0 50.001 29.001">
  <g id="Razer_Goliathus_icon_default" data-name="Razer Goliathus icon default" transform="translate(-13.999 2)">
    <path id="Subtraction_148" data-name="Subtraction 148" d="M-8513-3530h-46a2,2,0,0,1-2-2v-20a2,2,0,0,1,2-2h1a1,1,0,0,0,.293.708.991.991,0,0,0,.706.293h8a1,1,0,0,0,1-1h35a2,2,0,0,1,2,2v20A2,2,0,0,1-8513-3530Z" transform="translate(8575 3557)" fill="#eee"/>
    <path id="Subtraction_147" data-name="Subtraction 147" d="M-8551-3553h-8a1,1,0,0,1-1-1h10A1,1,0,0,1-8551-3553Zm1-2h-10a1,1,0,0,1,1-1h8a1,1,0,0,1,1,1Z" transform="translate(8577 3557)" fill="#eee"/>
    <rect id="Rectangle_103" data-name="Rectangle 103" width="2" height="2" transform="translate(21 -2)" fill="#eee"/>
  </g>
</svg>
