<svg id="icon-acari" xmlns="http://www.w3.org/2000/svg" width="32" height="24" viewBox="0 0 32 24">
  <g id="Razer_Acari_icon_default" data-name="Razer Acari icon default" transform="translate(21.471 1)">
    <path id="Razer_Acari_icon_default-2" data-name="Razer Acari icon default" d="M2,0H30a2,2,0,0,1,2,2V22a2,2,0,0,1-2,2H2a2,2,0,0,1-2-2V2A2,2,0,0,1,2,0Z" transform="translate(-21.471 -1)" fill="#eee"/>
    <g id="Group_10" data-name="Group 10" transform="translate(0.099 0.098)">
      <path id="Path_18" data-name="Path 18" d="M184.272,259.663l-.141-.035.076-.128-.11.115-.267.106a.1.1,0,0,0-.114-.028c-.143.036-.147-.04-.305.019-.032.012-.022-.016-.124.019-.071.023-.111.139-.168.151a.33.33,0,0,0-.219.558c.038.052.057.087.038.108s-.046.029-.087-.034a1.093,1.093,0,0,0-.382-.349.672.672,0,0,0-.894.811c.162.725,1.133,1.365,1.446,1.957.231.436.093.716-.143.864a.723.723,0,0,1-.55.088.86.86,0,0,0-.057-1.027c-.313-.341-.591-.157-.591-.157a.637.637,0,0,1,.437,1.1,1.772,1.772,0,0,1-.39-.339c-.068-.072-.435-.509-.844-.457a1.306,1.306,0,0,0-.631-1.2.936.936,0,0,0-.165-.09,1.013,1.013,0,0,0-1.828-.65,21.553,21.553,0,0,0-.789,2.086c-.148.279-.383.51-.645.331s-.038-.534,0-.723a.285.285,0,0,0-.259-.365c-.206-.017-.314.224-.35.291a.131.131,0,0,1-.23.038c-.036-.04-.051-.148-.112-.192-.088-.062-.086-.032-.113-.053-.135-.1-.16-.032-.288-.105a.107.107,0,0,0-.126,0l-.224-.176-.073-.141.04.139h-.149l.155.038.226.177a.1.1,0,0,0,.032.113c.1.1.039.147.169.254.027.022,0,.026.078.1.056.05.177.026.215.069a.332.332,0,0,0,.595-.09c.027-.059.048-.093.075-.087s.048.025.014.092a1.085,1.085,0,0,0-.113.5.674.674,0,0,0,1.153.365c.549-.5.62-1.659.979-2.224.265-.417.577-.439.823-.309a.718.718,0,0,1,.351.43.866.866,0,0,0-.865.562c-.141.441.159.587.159.587a.638.638,0,0,1,.736-.925,1.766,1.766,0,0,1-.1.506c-.028.095-.225.629.024.956a1.307,1.307,0,0,0-.73,1.144.921.921,0,0,0,0,.187,1.007,1.007,0,0,0,.348,1.9,21.846,21.846,0,0,0,2.209-.363c.317-.012.635.075.611.39s-.446.3-.627.366a.285.285,0,0,0-.188.406c.088.186.352.159.428.156.17-.007.166.124.148.179s-.1.118-.11.192c-.01.107.015.09.011.124-.021.167.052.154.052.3a.1.1,0,0,0,.064.108l-.041.281-.086.134.1-.1.073.129-.045-.152.041-.283a.1.1,0,0,0,.082-.084c.04-.141.108-.107.137-.273.006-.034.024-.011.046-.116.016-.073-.065-.165-.048-.22.113-.353-.14-.49-.376-.467-.064.006-.1.006-.113-.021s0-.054.073-.058A1.105,1.105,0,0,0,182.2,267a.669.669,0,0,0-.259-1.176c-.71-.222-1.753.295-2.424.269-.495-.02-.67-.278-.68-.555a.715.715,0,0,1,.2-.518.867.867,0,0,0,.922.465c.454-.1.432-.431.432-.431a.641.641,0,0,1-1.172-.172,1.793,1.793,0,0,1,.49-.167c.1-.023.66-.121.82-.5a1.318,1.318,0,0,0,1.36.057.931.931,0,0,0,.161-.1c1.033.489,1.884-.448,1.479-1.25-.33-.654-1.065-1.159-1.421-1.723-.169-.268-.252-.585.034-.722s.483.234.631.358a.286.286,0,0,0,.447-.041c.118-.169-.038-.383-.078-.447a.13.13,0,0,1,.082-.217c.052-.011.155.03.223,0,.1-.045.071-.058.1-.071.156-.066.108-.122.235-.2a.106.106,0,0,0,.062-.109l.264-.105Zm-4.214,2.352a1.246,1.246,0,0,1,.4.656.616.616,0,0,1-.043.432c-.1.172-.368.191-.44-.158a3.3,3.3,0,0,1,.086-.93Zm-.005,2.1a3.334,3.334,0,0,1-.852.391,1.244,1.244,0,0,1,.373-.67.622.622,0,0,1,.4-.179c.2,0,.349.222.082.458Zm.978-.1a.62.62,0,0,1-.355-.253c-.1-.172.018-.412.357-.3a3.323,3.323,0,0,1,.766.539,1.256,1.256,0,0,1-.769.013Z" transform="translate(-174.94 -259.5)" fill="#2a2a2a"/>
    </g>
  </g>
</svg>
