<svg id="icon-streamercompanionapp" xmlns="http://www.w3.org/2000/svg" width="36.002" height="36.002" viewBox="0 0 36.002 36.002">
  <g id="stream_companion_app_icon_default" data-name="stream companion app icon default" transform="translate(2081.002 1635.002)">
    <path id="Subtraction_175" data-name="Subtraction 175" d="M-19096-5146a17.889,17.889,0,0,1-7.008-1.415,17.923,17.923,0,0,1-5.723-3.857,17.869,17.869,0,0,1-3.857-5.721A17.851,17.851,0,0,1-19114-5164a17.857,17.857,0,0,1,1.416-7.006,17.888,17.888,0,0,1,3.857-5.723,17.923,17.923,0,0,1,5.723-3.859A17.881,17.881,0,0,1-19096-5182a17.869,17.869,0,0,1,7,1.415,17.93,17.93,0,0,1,5.721,3.859,17.931,17.931,0,0,1,3.857,5.723A17.857,17.857,0,0,1-19078-5164a17.851,17.851,0,0,1-1.416,7.005,17.934,17.934,0,0,1-3.857,5.721,17.909,17.909,0,0,1-5.721,3.857A17.884,17.884,0,0,1-19096-5146Zm0-29a10.928,10.928,0,0,0-7.779,3.22A10.933,10.933,0,0,0-19107-5164a10.923,10.923,0,0,0,3.219,7.777A10.931,10.931,0,0,0-19096-5153a10.93,10.93,0,0,0,7.779-3.224A10.923,10.923,0,0,0-19085-5164a10.933,10.933,0,0,0-3.219-7.78A10.936,10.936,0,0,0-19096-5175Zm-.006,17.346a6.446,6.446,0,0,1-1.418-.157,6.342,6.342,0,0,1-4.178-3.224.785.785,0,0,1,.277-1.05.679.679,0,0,1,.375-.106.772.772,0,0,1,.676.384c.076.15.162.292.264.46.047.071.094.139.143.2l.01.016a.221.221,0,0,1,.02.025.186.186,0,0,1,.02.025c.014.017.027.034.039.05a5.282,5.282,0,0,0,.682.71l.039.032c.029.024.059.048.086.072h0l.008,0a.273.273,0,0,1,.023.019l.033.025a.172.172,0,0,0,.025.019v0l0,.006a.01.01,0,0,1,.006,0c.086.06.174.119.248.167l.051.034.051.034a5.538,5.538,0,0,0,.662.345,5.191,5.191,0,0,0,1.223.336,5.793,5.793,0,0,0,.645.036,5.784,5.784,0,0,0,.643-.036,5.542,5.542,0,0,0,1.227-.336,5.026,5.026,0,0,0,.658-.345c.107-.067.217-.14.355-.238a.017.017,0,0,0,.012-.007l.012-.01.01,0h0l0,0a.065.065,0,0,0,.02-.018l.066-.055c.029-.024.059-.048.09-.072a5.3,5.3,0,0,0,.688-.717.325.325,0,0,0,.039-.048s0,0,0,0h0l.008-.005s0,0,0-.005l.006-.012a.153.153,0,0,1,.014-.021c.064-.086.111-.154.154-.221.086-.134.172-.285.264-.46a.719.719,0,0,1,.656-.375.86.86,0,0,1,.395.1.793.793,0,0,1,.273,1.05,6.462,6.462,0,0,1-2.207,2.4A6.25,6.25,0,0,1-19096.006-5157.654Zm3.887-7.646a1.585,1.585,0,0,1-1.582-1.583,1.585,1.585,0,0,1,1.582-1.583,1.585,1.585,0,0,1,1.584,1.583A1.585,1.585,0,0,1-19092.119-5165.3Zm-7.766-.1a1.585,1.585,0,0,1-1.582-1.583,1.545,1.545,0,0,1,.457-1.114,1.574,1.574,0,0,1,1.125-.469,1.585,1.585,0,0,1,1.584,1.583A1.585,1.585,0,0,1-19099.885-5165.4Z" transform="translate(17033 3547)" fill="#eee"/>
  </g>
</svg>
