<svg id="icon-7point1sound" xmlns="http://www.w3.org/2000/svg" width="36.002" height="36.002" viewBox="0 0 36.002 36.002">
  <path id="_7.1_Surround_Sound_icon_default" data-name="7.1 Surround Sound icon default" d="M-18945-5734a17.869,17.869,0,0,1-7-1.415,17.926,17.926,0,0,1-5.721-3.858,17.925,17.925,0,0,1-3.857-5.721,17.848,17.848,0,0,1-1.416-7,17.858,17.858,0,0,1,1.416-7.007,17.915,17.915,0,0,1,3.857-5.723,17.913,17.913,0,0,1,5.721-3.859,17.869,17.869,0,0,1,7-1.415,17.878,17.878,0,0,1,7.006,1.415,17.927,17.927,0,0,1,5.723,3.859,17.873,17.873,0,0,1,3.859,5.723A17.858,17.858,0,0,1-18927-5752a17.848,17.848,0,0,1-1.416,7,17.872,17.872,0,0,1-3.859,5.721,17.908,17.908,0,0,1-5.723,3.858A17.878,17.878,0,0,1-18945-5734Zm-8.533-25a11.2,11.2,0,0,0-2.465,7,11.2,11.2,0,0,0,2.451,7l1.631-1.651a8.863,8.863,0,0,1,.016-10.7Zm17.076,0-1.633,1.65a8.871,8.871,0,0,1,.014,10.693l1.633,1.647a11.192,11.192,0,0,0,2.445-7A11.219,11.219,0,0,0-18936.459-5759Zm-13.816,3.293a6.574,6.574,0,0,0-.014,7.409l1.67-1.685a4.231,4.231,0,0,1,.014-4.041Zm10.551,0-1.666,1.684a4.214,4.214,0,0,1,.016,4.026l1.67,1.689A6.565,6.565,0,0,0-18939.725-5755.7Zm-5.277,1.4a2.3,2.3,0,0,0-2.285,2.308,2.3,2.3,0,0,0,2.285,2.308,2.3,2.3,0,0,0,2.289-2.308A2.3,2.3,0,0,0-18945-5754.3Z" transform="translate(18963 5770.001)" fill="#eee"/>
</svg>
