<svg id="icon-chromaRGB" xmlns="http://www.w3.org/2000/svg" width="35.998" height="35.998" viewBox="0 0 35.998 35.998">
  <g id="Chroma_RGB_icon_default" data-name="Chroma RGB icon default" transform="translate(1773 1814.002)">
    <path id="Subtraction_170" data-name="Subtraction 170" d="M-18419-5325a17.952,17.952,0,0,1-7-1.411,17.891,17.891,0,0,1-5.721-3.859,17.862,17.862,0,0,1-3.857-5.719A17.844,17.844,0,0,1-18437-5343a17.833,17.833,0,0,1,1.416-7.005,17.862,17.862,0,0,1,3.857-5.719,17.891,17.891,0,0,1,5.721-3.859,17.882,17.882,0,0,1,7-1.416,17.885,17.885,0,0,1,7.006,1.416,17.962,17.962,0,0,1,5.725,3.859,17.968,17.968,0,0,1,3.854,5.719A17.833,17.833,0,0,1-18401-5343a17.844,17.844,0,0,1-1.416,7.01,17.968,17.968,0,0,1-3.854,5.719,17.92,17.92,0,0,1-5.725,3.859A17.961,17.961,0,0,1-18419-5325Zm-5.641-27.447a11.4,11.4,0,0,0-2.137,1.67A10.92,10.92,0,0,0-18430-5343a10.919,10.919,0,0,0,3.221,7.778A10.923,10.923,0,0,0-18419-5332a10.944,10.944,0,0,0,5.363-1.393l-1.5-2.6a7.975,7.975,0,0,1-3.859.995,8.01,8.01,0,0,1-8-8,8.047,8.047,0,0,1,1.064-3.984,8.13,8.13,0,0,1,2.8-2.86ZM-18419-5351a8.01,8.01,0,0,1,8,8,8.044,8.044,0,0,1-2.512,5.821l1.527,2.651a9.8,9.8,0,0,0,.764-.694A10.928,10.928,0,0,0-18408-5343a10.93,10.93,0,0,0-3.225-7.778A10.928,10.928,0,0,0-18419-5354a10.965,10.965,0,0,0-3.83.685l1.531,2.651A8.129,8.129,0,0,1-18419-5351Zm0,12.517a1.858,1.858,0,0,1,1.176.421.28.28,0,0,0,.182.065.216.216,0,0,0,.078-.014,4.87,4.87,0,0,0,1.078-.444.263.263,0,0,0,.148-.217,1.864,1.864,0,0,1,.531-1.129,1.885,1.885,0,0,1,1.129-.537.3.3,0,0,0,.227-.144,5.241,5.241,0,0,0,.439-1.078.273.273,0,0,0-.051-.259,1.887,1.887,0,0,1-.416-1.175,1.868,1.868,0,0,1,.416-1.175.276.276,0,0,0,.051-.259,5.144,5.144,0,0,0-.439-1.078.3.3,0,0,0-.227-.148,1.832,1.832,0,0,1-1.125-.537,1.85,1.85,0,0,1-.535-1.129.268.268,0,0,0-.148-.218,5.2,5.2,0,0,0-1.078-.449.406.406,0,0,0-.074-.009.285.285,0,0,0-.186.065,1.861,1.861,0,0,1-1.176.417,1.835,1.835,0,0,1-1.174-.421.315.315,0,0,0-.182-.061.343.343,0,0,0-.062.007h-.012a5.2,5.2,0,0,0-1.082.449.277.277,0,0,0-.143.218,1.842,1.842,0,0,1-.537,1.129,1.836,1.836,0,0,1-1.129.537.273.273,0,0,0-.223.148,5.027,5.027,0,0,0-.443,1.078.271.271,0,0,0,.055.259,1.868,1.868,0,0,1,.416,1.175,1.869,1.869,0,0,1-.416,1.175.266.266,0,0,0-.055.259,5.166,5.166,0,0,0,.443,1.078.291.291,0,0,0,.223.144,1.842,1.842,0,0,1,1.129.537,1.877,1.877,0,0,1,.537,1.129.264.264,0,0,0,.143.217,4.549,4.549,0,0,0,1.082.444.219.219,0,0,0,.08.014.277.277,0,0,0,.176-.065A1.859,1.859,0,0,1-18419-5338.485Zm0-1.513a3,3,0,0,1-3-3,3.007,3.007,0,0,1,3-3,3.007,3.007,0,0,1,3,3A3,3,0,0,1-18419-5340Zm0-5.372a2.376,2.376,0,0,0-2.373,2.374,2.376,2.376,0,0,0,2.373,2.374,2.379,2.379,0,0,0,2.379-2.374A2.379,2.379,0,0,0-18419-5345.371Z" transform="translate(16664 3546.999)" fill="#eee"/>
  </g>
</svg>
