<svg id="icon-synapse" xmlns="http://www.w3.org/2000/svg" width="36" height="36" viewBox="0 0 36 36">
  <g id="synapse_icon_default" data-name="synapse icon default" transform="translate(0 -0.001)">
    <path id="Subtraction_168" data-name="Subtraction 168" d="M-16554-3511a17.882,17.882,0,0,1-7.006-1.415,17.926,17.926,0,0,1-5.721-3.858,17.919,17.919,0,0,1-3.857-5.722A17.854,17.854,0,0,1-16572-3529a17.86,17.86,0,0,1,1.416-7.008,17.926,17.926,0,0,1,3.857-5.721,17.927,17.927,0,0,1,5.721-3.857A17.891,17.891,0,0,1-16554-3547a17.891,17.891,0,0,1,7.006,1.414,17.927,17.927,0,0,1,5.721,3.857,17.926,17.926,0,0,1,3.857,5.721A17.86,17.86,0,0,1-16536-3529a17.854,17.854,0,0,1-1.416,7.006,17.919,17.919,0,0,1-3.857,5.722,17.926,17.926,0,0,1-5.721,3.858A17.882,17.882,0,0,1-16554-3511Zm-6.658-19.106h0l3.281,1.16a3.342,3.342,0,0,0,.99,2.333,3.348,3.348,0,0,0,2.316.986l1.164,3.3a2.251,2.251,0,0,0,.1,3.073,2.245,2.245,0,0,0,1.588.657,2.252,2.252,0,0,0,1.594-.657,2.256,2.256,0,0,0,0-3.182,2.216,2.216,0,0,0-1.156-.615l-1.156-3.277a3.1,3.1,0,0,0,.324-.283,3.387,3.387,0,0,0,.662-3.843l2.438-2.437a2.256,2.256,0,0,0,.582.076,2.216,2.216,0,0,0,1.588-.659,2.26,2.26,0,0,0,0-3.182,2.235,2.235,0,0,0-1.592-.658,2.231,2.231,0,0,0-1.59.658,2.276,2.276,0,0,0-.582,2.175l-2.437,2.437a3.408,3.408,0,0,0-1.455-.329,3.355,3.355,0,0,0-2.387.986c-.1.106-.193.211-.275.312l-3.285-1.16a2.267,2.267,0,0,0-.615-1.14,2.231,2.231,0,0,0-1.59-.658,2.242,2.242,0,0,0-1.592.658,2.23,2.23,0,0,0-.658,1.591,2.229,2.229,0,0,0,.658,1.591,2.23,2.23,0,0,0,1.59.659,2.256,2.256,0,0,0,1.5-.571Z" transform="translate(16572 3547)" fill="#eee"/>
  </g>
</svg>
