<svg id="THX_Spatial" data-name="THX Spatial" xmlns="http://www.w3.org/2000/svg" width="36.002" height="35.998" viewBox="0 0 36.002 35.998">
  <g id="THX_Spatial_Audio_icon_default" data-name="THX Spatial Audio icon default" transform="translate(2148.002 2222.999)">
    <path id="Subtraction_173" data-name="Subtraction 173" d="M-18965-5734a17.889,17.889,0,0,1-7.008-1.414,17.938,17.938,0,0,1-5.723-3.857,17.912,17.912,0,0,1-3.857-5.721A17.854,17.854,0,0,1-18983-5752a17.858,17.858,0,0,1,1.416-7.007,17.912,17.912,0,0,1,3.857-5.721,17.938,17.938,0,0,1,5.723-3.857A17.889,17.889,0,0,1-18965-5770a17.877,17.877,0,0,1,7,1.414,17.929,17.929,0,0,1,5.721,3.857,17.869,17.869,0,0,1,3.857,5.721A17.858,17.858,0,0,1-18947-5752a17.858,17.858,0,0,1-1.416,7.007,17.869,17.869,0,0,1-3.857,5.721,17.929,17.929,0,0,1-5.721,3.857A17.877,17.877,0,0,1-18965-5734Zm-4.193-11.11h0a10.684,10.684,0,0,0,2.525,3.164,4.733,4.733,0,0,0,2.926,1.171,3.377,3.377,0,0,0,.572-.048c2-.335,3.578-2.422,4.225-5.583a.144.144,0,0,0,.006-.052v-.019c.014-.119.027-.233.043-.353a8.87,8.87,0,0,0-.162-3.6,9.069,9.069,0,0,0-1.436-3.249v.009a6.938,6.938,0,0,0-3.6-2.8l-.395-.11.014.019a.749.749,0,0,0-.311-.067.771.771,0,0,0-.484.172.749.749,0,0,0-.252.767.754.754,0,0,0,.57.563,7.447,7.447,0,0,1,3.568,3.108,7.478,7.478,0,0,1,1.016,4.548c-.516,2.327-1.715,3.864-3.211,4.112a2.71,2.71,0,0,1-.441.036,4.573,4.573,0,0,1-3.428-2.142l-.033-.008-.008,0-.016,0a11.555,11.555,0,0,0,1.105-.376,19.206,19.206,0,0,0,4.131.538,4.831,4.831,0,0,0,.885-1.567c-.443.042-.887.063-1.32.063a14.1,14.1,0,0,1-1.713-.1,4.736,4.736,0,0,0,2.2-3.592,6.423,6.423,0,0,1-3.824,3.292l-.047-.01-.039-.009c-4.631-1.123-7.9-4.119-7.279-6.679a3.012,3.012,0,0,1,1.162-1.7,13.079,13.079,0,0,1,.42-2.354c-2.252.651-3.7,1.875-4.074,3.445a4.853,4.853,0,0,0,1.5,4.379,14.509,14.509,0,0,0,5.568,3.553,10.651,10.651,0,0,1-1.1.06c-2.521,0-3.484-1.048-3.523-1.093a1.569,1.569,0,0,0-1.008-.528.962.962,0,0,0-.641.261.564.564,0,0,0-.211.473c.037.651,1.09,1.405,1.211,1.489a5.785,5.785,0,0,0,3.479.931,9.995,9.995,0,0,0,1.428-.106Zm1.895-11.843a13.991,13.991,0,0,1,3.418.423,12.918,12.918,0,0,1,5.615,2.8c1.375,1.26,1.967,2.637,1.664,3.878a3.1,3.1,0,0,1-1.328,1.819c-.064.635-.178,1.351-.354,2.253,2.3-.639,3.781-1.872,4.184-3.473.387-1.607-.383-3.393-2.168-5.03a16.7,16.7,0,0,0-7.279-3.626,18.783,18.783,0,0,0-4.529-.553h-.111a5.4,5.4,0,0,0-.615,1.586A14.216,14.216,0,0,1-18967.3-5756.954Zm1.02-6.044a3.512,3.512,0,0,0-.564.045c-3.373.567-5.289,5.987-4.273,12.082.039.238.086.486.152.805a14.148,14.148,0,0,0,1.715.953,14.953,14.953,0,0,1-.467-1.991c-.52-3.115-.062-6.141,1.2-7.9a3.249,3.249,0,0,1,2.08-1.421,2.772,2.772,0,0,1,.438-.036,4.444,4.444,0,0,1,3.256,1.913,8.2,8.2,0,0,1,2.32.7,11.631,11.631,0,0,0-2.656-3.747A4.906,4.906,0,0,0-18966.277-5763Z" transform="translate(16835 3547)" fill="#eee"/>
  </g>
</svg>
