<svg id="icon-cortex" xmlns="http://www.w3.org/2000/svg" width="35.998" height="35.999" viewBox="0 0 35.998 35.999">
  <g id="Cortex_-_Game_Booster_icon_default" data-name="Cortex - Game Booster icon default" transform="translate(2220 1814.001)">
    <path id="Subtraction_172" data-name="Subtraction 172" d="M-18953-5325a17.886,17.886,0,0,1-7.006-1.414,17.922,17.922,0,0,1-5.721-3.856,17.921,17.921,0,0,1-3.857-5.72A17.851,17.851,0,0,1-18971-5343a17.858,17.858,0,0,1,1.416-7.007,17.919,17.919,0,0,1,3.857-5.722,17.933,17.933,0,0,1,5.721-3.858A17.887,17.887,0,0,1-18953-5361a17.887,17.887,0,0,1,7.006,1.415,17.933,17.933,0,0,1,5.721,3.858,17.934,17.934,0,0,1,3.855,5.722A17.858,17.858,0,0,1-18935-5343a17.851,17.851,0,0,1-1.416,7.006,17.931,17.931,0,0,1-3.855,5.72,17.922,17.922,0,0,1-5.721,3.856A17.886,17.886,0,0,1-18953-5325Zm0-25.673a8.054,8.054,0,0,1,6.375,3.1,11.034,11.034,0,0,1,.754,1.143,9.5,9.5,0,0,1,.523,1.166,8.1,8.1,0,0,1,.326,4.1,8.078,8.078,0,0,1-1.75,3.737l2.219,1.847a10.962,10.962,0,0,0,0-14.055,10.967,10.967,0,0,0-8.449-3.944,11.044,11.044,0,0,0-7.043,2.544,10.883,10.883,0,0,0-3.908,7.428,10.893,10.893,0,0,0,2.5,8.027l2.232-1.847-.176-.219a8.026,8.026,0,0,1-1.635-5.941,8.051,8.051,0,0,1,3.043-5.367A8,8,0,0,1-18953-5350.675Zm.025,3.725a3.918,3.918,0,0,0-.582.042,4.294,4.294,0,0,0-2.869,1.674,4.306,4.306,0,0,0-.84,3.215,4.337,4.337,0,0,0,4.291,3.742,4.429,4.429,0,0,0,.609-.042,4.3,4.3,0,0,0,2.871-1.674,4.3,4.3,0,0,0,.838-3.211l2.447-2.995-3.725.476A4.363,4.363,0,0,0-18952.975-5346.951Zm0,5.785a1.49,1.49,0,0,1-1.105-.5,1.454,1.454,0,0,1,.162-2.042,1.449,1.449,0,0,1,.943-.348,1.452,1.452,0,0,1,1.1.51l.262.447a1.448,1.448,0,0,1,.086.491A1.45,1.45,0,0,1-18952.975-5341.166Z" transform="translate(16751 3547)" fill="#eee"/>
  </g>
</svg>
