<svg xmlns="http://www.w3.org/2000/svg" width="36.002" height="36.001" viewBox="0 0 36.002 36.001"><defs><style>.a{fill:#eee;}</style></defs><g transform="translate(0.001 0)"><path class="a" d="M-8644-4344a17.887,17.887,0,0,1-7.006-1.415,17.953,17.953,0,0,1-5.723-3.858,17.966,17.966,0,0,1-3.857-5.722A17.891,17.891,0,0,1-8662-4362a17.885,17.885,0,0,1,1.414-7.006,17.967,17.967,0,0,1,3.857-5.721,17.939,17.939,0,0,1,5.723-3.857A17.887,17.887,0,0,1-8644-4380a17.888,17.888,0,0,1,7.007,1.415,17.938,17.938,0,0,1,5.724,3.857,17.967,17.967,0,0,1,3.857,5.721A17.885,17.885,0,0,1-8626-4362a17.891,17.891,0,0,1-1.414,7.007,17.966,17.966,0,0,1-3.857,5.722,17.951,17.951,0,0,1-5.724,3.858A17.888,17.888,0,0,1-8644-4344Zm-.1-28.241a10.151,10.151,0,0,0-10.14,10.139,10.073,10.073,0,0,0,2.97,7.17,10.074,10.074,0,0,0,7.17,2.969,10.15,10.15,0,0,0,10.139-10.139c0-.135,0-.28-.011-.445a1.218,1.218,0,0,0,.011-.148v-8.426a1.121,1.121,0,0,0-1.119-1.12Zm0,17.782a7.652,7.652,0,0,1-7.644-7.644,7.652,7.652,0,0,1,7.644-7.643,7.651,7.651,0,0,1,7.641,7.643A7.651,7.651,0,0,1-8644.1-4354.458Zm0-11.8a4.165,4.165,0,0,0-4.161,4.161,4.166,4.166,0,0,0,4.161,4.161,4.164,4.164,0,0,0,4.158-4.161A4.164,4.164,0,0,0-8644.1-4366.262Zm0,6.606a2.45,2.45,0,0,1-2.448-2.446,2.451,2.451,0,0,1,2.448-2.448,2.449,2.449,0,0,1,2.445,2.448A2.448,2.448,0,0,1-8644.1-4359.655Z" transform="translate(8662 4380)"/></g></svg>