<svg xmlns="http://www.w3.org/2000/svg" width="36" height="34.001" viewBox="0 0 36 34.001">
  <path id="controllers" d="M-8899,173v-2h2v2Zm-8,0v-2h2v2Zm-9,0v-2h2v2Zm-8,0v-2h2v2Zm25-3a1,1,0,0,1-1-1v-1h4v1a1,1,0,0,1-1,1Zm-8,0a1,1,0,0,1-1-1v-1h4v1a1,1,0,0,1-1,1Zm-9,0a1,1,0,0,1-1-1v-1h4v1a1,1,0,0,1-1,1Zm-8,0a1,1,0,0,1-1-1v-1h4v1a1,1,0,0,1-1,1Zm-3-3a2,2,0,0,1-2-2V141a2.006,2.006,0,0,1,2-2h32a2,2,0,0,1,2,2v24a2,2,0,0,1-2,2Zm18.16-7.8.1.17-.061-.2.054-.376a.135.135,0,0,0,.107-.112.354.354,0,0,1,.09-.157.354.354,0,0,0,.092-.2.086.086,0,0,1,.016-.031.233.233,0,0,0,.045-.123.246.246,0,0,0-.031-.155l0,0a.232.232,0,0,1-.031-.132.488.488,0,0,0-.033-.448.478.478,0,0,0-.395-.173c-.022,0-.047,0-.069,0s-.047,0-.067,0c-.052,0-.076-.011-.083-.034a.041.041,0,0,1,.007-.04c.009-.016.033-.034.092-.036a1.465,1.465,0,0,0,.654-.206.863.863,0,0,0,.33-.831.91.91,0,0,0-.673-.726,1.808,1.808,0,0,0-.54-.074,6.165,6.165,0,0,0-1.352.215l-.058.013a5.67,5.67,0,0,1-1.208.2l-.061,0c-.762-.031-.895-.473-.905-.735a.937.937,0,0,1,.267-.686,1.182,1.182,0,0,0,1,.639,1.113,1.113,0,0,0,.227-.025c.569-.123.573-.524.571-.571a.766.766,0,0,1-.717.417.866.866,0,0,1-.841-.643,2.238,2.238,0,0,1,.587-.206l.065-.016.027-.007a1.347,1.347,0,0,0,1.06-.652,1.36,1.36,0,0,0,.892.287,2.14,2.14,0,0,0,.914-.213,1.173,1.173,0,0,0,.213-.128,1.757,1.757,0,0,0,.751.179,1.353,1.353,0,0,0,1.165-.632,1.211,1.211,0,0,0,.052-1.206,5.787,5.787,0,0,0-1.058-1.315,6.448,6.448,0,0,1-.834-.966.935.935,0,0,1-.186-.7.414.414,0,0,1,.235-.258.358.358,0,0,1,.156-.038c.209,0,.384.2.527.354a1.484,1.484,0,0,0,.154.157.45.45,0,0,0,.287.117.367.367,0,0,0,.3-.17c.146-.211-.034-.482-.092-.571l-.014-.02a.2.2,0,0,1-.033-.184.207.207,0,0,1,.143-.105.125.125,0,0,1,.029,0c.019,0,.036,0,.059,0l.024,0a.733.733,0,0,0,.1.009.22.22,0,0,0,.083-.013c.086-.038.1-.061.11-.074a.076.076,0,0,1,.024-.02.353.353,0,0,0,.182-.139.422.422,0,0,1,.132-.121.133.133,0,0,0,.083-.143l.352-.141.211.011-.184-.047.1-.17-.146.152-.356.141a.116.116,0,0,0-.1-.045.253.253,0,0,0-.054.007.372.372,0,0,1-.094.013.344.344,0,0,1-.086-.011.411.411,0,0,0-.078-.009.389.389,0,0,0-.146.031.05.05,0,0,1-.018,0,.053.053,0,0,1-.019,0h-.018a.35.35,0,0,0-.112.025.29.29,0,0,0-.119.108c-.035.045-.066.085-.1.092a.49.49,0,0,0-.381.273.5.5,0,0,0,.092.466c.052.076.074.119.049.143a.046.046,0,0,1-.035.018c-.019,0-.048-.011-.081-.063a1.429,1.429,0,0,0-.507-.462.758.758,0,0,0-.32-.067.9.9,0,0,0-.7.338.9.9,0,0,0-.159.8,3.879,3.879,0,0,0,1.1,1.6l0,0a5.051,5.051,0,0,1,.812.993c.356.672.034,1.006-.19,1.145a.959.959,0,0,1-.5.143.966.966,0,0,1-.227-.027,1.134,1.134,0,0,0-.076-1.36.721.721,0,0,0-.529-.273.511.511,0,0,0-.253.065l.018,0,.052,0a.813.813,0,0,1,.7.511.847.847,0,0,1-.19.948,2.265,2.265,0,0,1-.481-.412l-.036-.038-.018-.02a1.465,1.465,0,0,0-1.009-.589.616.616,0,0,0-.092,0,1.718,1.718,0,0,0-.836-1.591,1.239,1.239,0,0,0-.222-.119,1.422,1.422,0,0,0-1.387-1.423,1.226,1.226,0,0,0-1.038.56,5.574,5.574,0,0,0-.616,1.56,6.3,6.3,0,0,1-.433,1.206c-.1.195-.32.522-.609.522a.422.422,0,0,1-.244-.083c-.26-.175-.152-.5-.067-.751a1.609,1.609,0,0,0,.061-.208.43.43,0,0,0-.069-.343.381.381,0,0,0-.273-.141h-.029c-.235,0-.367.253-.424.363l-.011.022c-.045.081-.1.123-.161.123a.219.219,0,0,1-.148-.072.32.32,0,0,1-.047-.094.363.363,0,0,0-.1-.161.229.229,0,0,0-.119-.056.072.072,0,0,1-.033-.013.35.35,0,0,0-.209-.085.373.373,0,0,1-.17-.054.186.186,0,0,0-.092-.027.113.113,0,0,0-.076.027l-.3-.233-.1-.186.052.184-.2,0,.206.052.3.233a.142.142,0,0,0,.045.15.359.359,0,0,1,.1.155.335.335,0,0,0,.13.182.076.076,0,0,1,.018.027c0,.018.014.043.083.1a.308.308,0,0,0,.154.049.211.211,0,0,1,.133.043.519.519,0,0,0,.372.2.5.5,0,0,0,.419-.318c.033-.074.059-.114.09-.114h.009a.051.051,0,0,1,.033.029c.012.02,0,.052-.018.092a1.486,1.486,0,0,0-.148.668.893.893,0,0,0,.879.755.98.98,0,0,0,.654-.271,3.89,3.89,0,0,0,.836-1.748l0-.013a5.028,5.028,0,0,1,.462-1.185.9.9,0,0,1,.735-.5.746.746,0,0,1,.354.094.971.971,0,0,1,.471.569h-.052a1.138,1.138,0,0,0-1.1.746c-.187.578.206.775.208.778a.755.755,0,0,1-.029-.773.847.847,0,0,1,.771-.48,1.118,1.118,0,0,1,.237.027,2.258,2.258,0,0,1-.121.625l-.016.045,0,.018-.006.022a1.43,1.43,0,0,0,.044,1.226,1.731,1.731,0,0,0-.97,1.517,1.338,1.338,0,0,0,.009.249,1.452,1.452,0,0,0-.675,1.6,1.24,1.24,0,0,0,1.139.919c.05,0,.1,0,.152,0a6.517,6.517,0,0,0,1.511-.253,6.358,6.358,0,0,1,1.266-.233h.074a.9.9,0,0,1,.639.195.4.4,0,0,1,.1.32c-.022.309-.352.379-.618.435a1.508,1.508,0,0,0-.211.052.425.425,0,0,0-.267.231.366.366,0,0,0,.016.307.45.45,0,0,0,.45.211l.1,0,.02,0h.019a.187.187,0,0,1,.161.065.2.2,0,0,1,.016.173.352.352,0,0,1-.059.094.351.351,0,0,0-.087.159.272.272,0,0,0,.009.132.043.043,0,0,1,.007.034.354.354,0,0,0,.029.224.373.373,0,0,1,.04.175.135.135,0,0,0,.083.141l-.054.374-.114.177.135-.137,0,0Zm-3.5-5.56v0a1.666,1.666,0,0,1,.5-.887.847.847,0,0,1,.526-.238.3.3,0,0,1,.285.179.405.405,0,0,1-.173.428,3.023,3.023,0,0,1-.888.428l-.009,0c-.092.034-.172.063-.235.09Zm2.429-.657a.809.809,0,0,1-.468-.336.293.293,0,0,1-.014-.3.3.3,0,0,1,.273-.139.689.689,0,0,1,.213.038,3.067,3.067,0,0,1,.822.556l.018.013c.07.058.128.108.18.146a1.579,1.579,0,0,1-.531.087A1.718,1.718,0,0,1-8909.909,152.983Zm-1.4-1.418a2.978,2.978,0,0,1,.071-.986c.021-.105.034-.182.043-.246a1.649,1.649,0,0,1,.524.869.8.8,0,0,1-.059.574.3.3,0,0,1-.255.157C-8911.144,151.932-8911.265,151.8-8911.312,151.564Z" transform="translate(8928.997 -139)" fill="#eee"/>
</svg>
