<svg xmlns="http://www.w3.org/2000/svg" width="36" height="35.998" viewBox="0 0 36 35.998">
  <g id="PSU" transform="translate(-323 -49.001)">
    <path id="Subtraction_442" data-name="Subtraction 442" d="M-8731,175h-32a2,2,0,0,1-2-2V141a2,2,0,0,1,2-2h32a2,2,0,0,1,2,2v32A2,2,0,0,1-8731,175Zm-32-35a1,1,0,0,0-1,1v32a1,1,0,0,0,1,1h32a1,1,0,0,0,1-1V141a1,1,0,0,0-1-1Z" transform="translate(9088 -90)" fill="#eee"/>
    <path id="Subtraction_443" data-name="Subtraction 443" d="M-8734,171h-30a1,1,0,0,1-1-1V140a1,1,0,0,1,1-1h30a1,1,0,0,1,1,1v30A1,1,0,0,1-8734,171Zm-29-31a1,1,0,0,0-1,1v28a1,1,0,0,0,1,1h28a1,1,0,0,0,1-1V141a1,1,0,0,0-1-1Z" transform="translate(9090 -88)" fill="#eee"/>
    <path id="Subtraction_445" data-name="Subtraction 445" d="M-8739,169h-1v-1h-2v1h-1v-1h-1.592a14.844,14.844,0,0,0,2.591-1.3v.3h2V165.18c.212-.19.415-.383.606-.575s.4-.406.573-.6H-8737v-2h-.3a14.961,14.961,0,0,0,1.3-2.589V161h1v1h-1v2h1v1h-1v2h1v1h-1v1h-1v-1h-2v1Zm0-4v2h2v-2h-2Zm-21,4h-1v-1h-2v1h-1v-1h-1v-1h1v-2h-1v-1h1v-2h-1v-1h1v-1.6a14.879,14.879,0,0,0,1.307,2.6H-8763v2h1.821c.188.209.38.413.572.6s.4.388.607.575V167h2v-.3a14.9,14.9,0,0,0,2.593,1.306H-8757v1h-1v-1h-2v1Zm-3-4v2h2v-2h-2Zm18,4h-1v-.537c.334-.092.671-.2,1-.314V169Zm-3,0h-1v-.033c.33-.022.666-.054,1-.1V169Zm-3,0h-1v-.132c.327.043.663.077,1,.1V169Zm-3,0h-1v-.85c.32.113.655.219,1,.313V169Zm4-1a13.943,13.943,0,0,1-5.219-1h.219v-2h-2v1.13c-.343-.2-.678-.413-1-.637V165h-.662a14.105,14.105,0,0,1-1.134-1h1.8v-2h-2v1.8a14.237,14.237,0,0,1-1-1.136V162h-.493c-.228-.326-.441-.662-.637-1h1.13v-2h-2v.213a13.951,13.951,0,0,1-1-5.213,13.964,13.964,0,0,1,1-5.214V149h2v-2h-1.129c.2-.351.418-.687.637-1h.492v-.662a14.159,14.159,0,0,1,1-1.136V146h2v-2h-1.8a14.348,14.348,0,0,1,1.136-1h.662v-.493c.329-.229.665-.444,1-.637V143h2v-2h-.219a13.937,13.937,0,0,1,5.219-1,13.938,13.938,0,0,1,5.218,1H-8745v2h2v-1.132c.349.2.685.417,1,.637V143h.665a14.307,14.307,0,0,1,1.135,1h-1.8v2h2v-1.8a14.368,14.368,0,0,1,1,1.133V146h.5c.226.322.44.658.638,1H-8739v2h2v-.223a13.974,13.974,0,0,1,1,4.986v.475a13.977,13.977,0,0,1-1,4.985V159h-2v2h1.133c-.193.335-.408.671-.637,1h-.5v.666a14.568,14.568,0,0,1-1,1.132V162h-2v2h1.8a14.336,14.336,0,0,1-1.133,1H-8742v.495c-.323.226-.659.44-1,.637V165h-2v2h.218A13.936,13.936,0,0,1-8750,168Zm2-3v2h2v-2h-2Zm-3,0v2h2v-2h-2Zm-3,0v2h2v-2h-2Zm9-3h0v2h2v-2Zm-3,0h0v2h2v-2Zm-3,0h0v2h2v-2Zm-3,0h0v2h2v-2Zm-3,0h0v2h2v-2Zm15-3v2h2v-2Zm-3,0v2h2v-2Zm-3,0v2h2v-2Zm-3,0v2h2v-2Zm-3,0v2h2v-2Zm-3,0v2h2v-2Zm-3,0v2h2v-2Zm21-3v2h2v-2h-2Zm-3,0v2h2v-2h-2Zm-3,0v2h2v-2h-2Zm-3,0v2h2v-2h-2Zm-3,0v2h2v-2h-2Zm-3,0v2h2v-2h-2Zm-3,0v2h2v-2h-2Zm-3,0v2h2v-2h-2Zm-3,0v2h2v-2h-2Zm24-3h0v2h2v-2Zm-3,0h0v2h2v-2Zm-3,0h0v2h2v-2Zm-3,0h0v2h2v-2Zm-3,0h0v2h2v-2Zm-3,0h0v2h2v-2Zm-3,0h0v2h2v-2Zm-3,0h0v2h2v-2Zm-3,0h0v2h2v-2Zm24-3v2h2v-2Zm-3,0v2h2v-2Zm-3,0v2h2v-2Zm-3,0v2h2v-2Zm-3,0v2h2v-2Zm-3,0v2h2v-2Zm-3,0v2h2v-2Zm-3,0v2h2v-2Zm-3,0v2h2v-2Zm21-3v2h2v-2Zm-3,0v2h2v-2Zm-3,0v2h2v-2Zm-3,0v2h2v-2Zm-3,0v2h2v-2Zm-3,0v2h2v-2Zm-3,0v2h2v-2Zm15-3v2h2v-2Zm-3,0v2h2v-2Zm-3,0v2h2v-2Zm-3,0v2h2v-2Zm-3,0v2h2v-2Zm9-3v2h2v-2Zm-3,0v2h2v-2Zm-3,0v2h2v-2Zm19,18h-.851c.113-.322.219-.658.313-1h.537v1Zm-29.149,0H-8765v-1h.536c.087.317.192.653.314,1Zm29.149-3h-.132c.043-.33.077-.666.1-1h.033v1Zm-29.869,0H-8765v-1h.032c.024.354.057.69.1,1Zm29.869-3h-.033c-.021-.326-.054-.662-.1-1h.132v1Zm-29.968,0H-8765v-1h.131c-.042.329-.076.665-.1,1Zm29.968-3h-.537c-.089-.326-.193-.662-.312-1h.85v1Zm-29.464,0H-8765v-1h.85c-.113.32-.219.655-.313,1Zm.464-1.407h0V147h-1v-1h1v-2h-1v-1h1v-2h-1v-1h1v-1h1v1h2v-1h1v1h2v-1h1v1h1.6a14.9,14.9,0,0,0-2.6,1.306V141h-2v1.818c-.2.176-.4.369-.607.575s-.4.41-.574.607H-8763v2h.306A14.923,14.923,0,0,0-8764,148.592Zm1-7.592v2h2v-2Zm27,7.584a14.933,14.933,0,0,0-1.3-2.584h.3v-2h-1.816c-.181-.2-.374-.406-.575-.607s-.393-.383-.606-.575V141h-2v.3a14.837,14.837,0,0,0-2.594-1.3H-8743v-1h1v1h2v-1h1v1h2v-1h1v1h1v1h-1v2h1v1h-1v2h1v1h-1v1.585Zm-3-7.584v2h2v-2Zm-6-1.15h0c-.326-.115-.662-.22-1-.313V139h1v.848Zm-10,0h0V139h1v.537c-.332.091-.667.2-1,.312Zm3-.718h0V139h1v.033c-.328.021-.665.054-1,.1Zm4,0h0c-.331-.044-.667-.077-1-.1V139h1v.13Z" transform="translate(9091 -86.999)" fill="#fff"/>
  </g>
</svg>
