<svg xmlns="http://www.w3.org/2000/svg" width="36" height="15.708" viewBox="0 0 36 15.708">
  <path id="cable" d="M-8367-392.291v-4h5v1.748h22.5a2.5,2.5,0,0,0,2.5-2.5,2.5,2.5,0,0,0-2.5-2.5h-6.5v0h-22.5a3.506,3.506,0,0,1-3.5-3.5,3.5,3.5,0,0,1,3.5-3.5h22.5V-408h5v4h-5v-1.542h-22.5a2.5,2.5,0,0,0-2.5,2.5,2.5,2.5,0,0,0,2.5,2.5h29a3.5,3.5,0,0,1,3.5,3.5,3.5,3.5,0,0,1-3.5,3.5H-8362v1.252Zm-2.8-.567v-2.868h2.156v2.868Zm29.44-11.821v-2.641h2.156v2.641Z" transform="translate(8372 407.999)" fill="#eee"/>
</svg>
