<svg xmlns="http://www.w3.org/2000/svg" width="36" height="36.029" viewBox="0 0 36 36.029">
  <g id="AIO_Cooler" data-name="AIO Cooler" transform="translate(-853 -781.978)">
    <path id="Union_273" data-name="Union 273" d="M-7944.106,1081.316a2.412,2.412,0,0,1-.712-1.719,2.415,2.415,0,0,1,.712-1.719l2.016-2.016a19.223,19.223,0,0,0,3.5,3.38l-2.076,2.074a2.415,2.415,0,0,1-1.719.712A2.413,2.413,0,0,1-7944.106,1081.316Zm.449-2.594a1.19,1.19,0,0,0-.359.849,1.2,1.2,0,0,0,.353.853l0,0a1.219,1.219,0,0,0,.865.353,1.219,1.219,0,0,0,.866-.353,1.2,1.2,0,0,0,.359-.849,1.2,1.2,0,0,0-.353-.851l-.006-.006a1.228,1.228,0,0,0-.866-.353A1.219,1.219,0,0,0-7943.658,1078.722Zm9.641,1.749a18.235,18.235,0,0,1-3.055-1.637,18.14,18.14,0,0,1-2.662-2.169,18.2,18.2,0,0,1-2.2-2.626,17.661,17.661,0,0,1-1.657-3.017,17.445,17.445,0,0,1-1.412-6.907,17.467,17.467,0,0,1,1.412-6.913,17.581,17.581,0,0,1,1.657-3.013,18.177,18.177,0,0,1,2.2-2.628,17.974,17.974,0,0,1,2.662-2.167,18.165,18.165,0,0,1,3.055-1.637,18.075,18.075,0,0,1,7-1.4,18.076,18.076,0,0,1,7,1.4,17.831,17.831,0,0,1,3.055,1.637,18,18,0,0,1,2.662,2.167,17.822,17.822,0,0,1,2.2,2.628,17.591,17.591,0,0,1,1.659,3.013,17.492,17.492,0,0,1,1.412,6.913,17.47,17.47,0,0,1-1.412,6.907,17.944,17.944,0,0,1-1.659,3.017,17.746,17.746,0,0,1-2.2,2.626,18.274,18.274,0,0,1-2.662,2.169,18.234,18.234,0,0,1-3.055,1.637,18.073,18.073,0,0,1-7,1.394A18.078,18.078,0,0,1-7934.017,1080.47Zm-4.849-28.059a16.329,16.329,0,0,0-4.909,11.7,16.322,16.322,0,0,0,4.909,11.7,16.754,16.754,0,0,0,11.848,4.847,16.768,16.768,0,0,0,11.854-4.847,16.331,16.331,0,0,0,4.9-11.7,16.341,16.341,0,0,0-4.9-11.7,16.775,16.775,0,0,0-11.854-4.845A16.76,16.76,0,0,0-7938.866,1052.412Zm25.718,28.675-2.038-2.038a19.282,19.282,0,0,0,3.439-3.436l2.036,2.036a2.431,2.431,0,0,1,0,3.438,2.413,2.413,0,0,1-1.719.71A2.413,2.413,0,0,1-7913.148,1081.087Zm.833-2.572,0,.006a1.183,1.183,0,0,0-.355.851,1.19,1.19,0,0,0,.359.849,1.224,1.224,0,0,0,.865.353,1.228,1.228,0,0,0,.866-.353l.006-.006a1.194,1.194,0,0,0,.351-.851,1.19,1.19,0,0,0-.357-.849,1.228,1.228,0,0,0-.866-.353A1.22,1.22,0,0,0-7912.315,1078.514Zm-25.688-3.557a15.139,15.139,0,0,1-4.55-10.843,15.137,15.137,0,0,1,4.55-10.847,15.533,15.533,0,0,1,10.985-4.494,15.538,15.538,0,0,1,10.988,4.494,15.135,15.135,0,0,1,4.548,10.847,15.137,15.137,0,0,1-4.548,10.843,15.536,15.536,0,0,1-10.988,4.492A15.542,15.542,0,0,1-7938,1074.957Zm5.555-23.536a13.922,13.922,0,0,0-4.435,2.951,13.686,13.686,0,0,0-2.991,4.381,13.522,13.522,0,0,0-1.1,5.362,13.512,13.512,0,0,0,1.1,5.36,13.689,13.689,0,0,0,2.991,4.377,13.841,13.841,0,0,0,4.435,2.951,13.98,13.98,0,0,0,5.43,1.085,13.994,13.994,0,0,0,5.431-1.085,13.838,13.838,0,0,0,4.437-2.951,13.793,13.793,0,0,0,2.991-4.377,13.572,13.572,0,0,0,1.092-5.36,13.567,13.567,0,0,0-1.092-5.362,13.79,13.79,0,0,0-2.991-4.381,13.947,13.947,0,0,0-4.437-2.951,14.03,14.03,0,0,0-5.431-1.083A14.016,14.016,0,0,0-7932.448,1051.421Zm-7.458,12.761a12.859,12.859,0,0,1,12.887-12.8,12.858,12.858,0,0,1,12.883,12.8,12.858,12.858,0,0,1-12.883,12.8A12.859,12.859,0,0,1-7939.905,1064.182Zm15.162,6.644.1.172-.06-.2.052-.375a.144.144,0,0,0,.111-.114.345.345,0,0,1,.088-.157.36.36,0,0,0,.094-.2.037.037,0,0,1,.014-.032.234.234,0,0,0,.045-.12.293.293,0,0,0-.034-.159l0-.01h0a.192.192,0,0,1-.026-.126.479.479,0,0,0-.036-.447.479.479,0,0,0-.4-.173.373.373,0,0,0-.066,0c-.026,0-.05,0-.07,0-.052,0-.076-.008-.082-.034a.048.048,0,0,1,0-.04c.012-.02.046-.032.092-.036a1.461,1.461,0,0,0,.656-.2.858.858,0,0,0,.327-.833.9.9,0,0,0-.672-.724,1.741,1.741,0,0,0-.542-.076,5.948,5.948,0,0,0-1.346.215l-.046.012a5.865,5.865,0,0,1-1.218.2.59.59,0,0,1-.062,0c-.764-.026-.894-.471-.9-.734a.927.927,0,0,1,.261-.688,1.192,1.192,0,0,0,1,.642,1.049,1.049,0,0,0,.221-.024c.568-.128.576-.526.574-.57a.774.774,0,0,1-.718.415.86.86,0,0,1-.839-.646,2.26,2.26,0,0,1,.6-.207l.054-.012.034-.008a1.359,1.359,0,0,0,1.053-.654,1.357,1.357,0,0,0,.893.289,2.155,2.155,0,0,0,.912-.211,1.254,1.254,0,0,0,.213-.13,1.784,1.784,0,0,0,.755.179,1.349,1.349,0,0,0,1.163-.632,1.2,1.2,0,0,0,.048-1.2,5.635,5.635,0,0,0-1.057-1.318,6.513,6.513,0,0,1-.832-.967.931.931,0,0,1-.186-.7.4.4,0,0,1,.231-.255.4.4,0,0,1,.159-.038c.209,0,.387.2.529.359l.018.02a1.181,1.181,0,0,0,.132.134.449.449,0,0,0,.287.116.372.372,0,0,0,.307-.173c.147-.209-.028-.475-.094-.572l-.012-.018a.193.193,0,0,1-.03-.185.191.191,0,0,1,.142-.1.11.11,0,0,1,.036-.006c.02,0,.044,0,.078.008l.012,0c.028,0,.058.006.086.006a.193.193,0,0,0,.082-.014c.086-.04.1-.06.11-.072a.052.052,0,0,1,.028-.022.365.365,0,0,0,.177-.134.416.416,0,0,1,.134-.128.133.133,0,0,0,.084-.142l.353-.142.213.01-.187-.046.1-.171-.141.156-.357.14a.115.115,0,0,0-.1-.046.288.288,0,0,0-.058.008.37.37,0,0,1-.09.012.392.392,0,0,1-.091-.012.438.438,0,0,0-.076-.008.422.422,0,0,0-.147.032l-.018,0a.037.037,0,0,1-.016,0h-.008a.336.336,0,0,0-.122.024.27.27,0,0,0-.118.11.23.23,0,0,1-.105.094.485.485,0,0,0-.381.269.51.51,0,0,0,.09.469c.052.072.076.116.054.141a.056.056,0,0,1-.036.018c-.028,0-.056-.022-.082-.06a1.449,1.449,0,0,0-.506-.465.8.8,0,0,0-.323-.068.911.911,0,0,0-.7.337.912.912,0,0,0-.162.806,3.9,3.9,0,0,0,1.109,1.6l0,.006a4.993,4.993,0,0,1,.808.989c.354.676.034,1.007-.189,1.145a.955.955,0,0,1-.5.144,1.084,1.084,0,0,1-.228-.026,1.131,1.131,0,0,0-.076-1.362.728.728,0,0,0-.53-.273.516.516,0,0,0-.253.066.091.091,0,0,1,.034,0h.036a.81.81,0,0,1,.7.51.846.846,0,0,1-.187.947,2.162,2.162,0,0,1-.472-.4l-.046-.048-.018-.02a1.465,1.465,0,0,0-1.015-.594.657.657,0,0,0-.087.006,1.723,1.723,0,0,0-.835-1.591,1.144,1.144,0,0,0-.222-.116,1.419,1.419,0,0,0-1.386-1.424,1.233,1.233,0,0,0-1.039.558,5.631,5.631,0,0,0-.616,1.561,6.439,6.439,0,0,1-.433,1.2c-.1.2-.323.522-.608.522a.45.45,0,0,1-.247-.082c-.255-.174-.151-.491-.066-.748a1.728,1.728,0,0,0,.06-.213.426.426,0,0,0-.068-.341.391.391,0,0,0-.277-.14h-.028c-.235,0-.367.251-.423.359l-.014.026c-.042.08-.094.122-.156.122a.226.226,0,0,1-.147-.072.344.344,0,0,1-.05-.094l0-.008a.322.322,0,0,0-.1-.152.256.256,0,0,0-.118-.06.074.074,0,0,1-.034-.01.343.343,0,0,0-.205-.086.43.43,0,0,1-.178-.056.19.19,0,0,0-.087-.026.116.116,0,0,0-.076.026l-.3-.229-.1-.187.052.183-.2,0,.2.05.3.235a.13.13,0,0,0,.044.15.4.4,0,0,1,.094.154.326.326,0,0,0,.129.183.041.041,0,0,1,.02.028c.008.02.018.044.083.1a.3.3,0,0,0,.156.05.225.225,0,0,1,.132.04.522.522,0,0,0,.373.2.489.489,0,0,0,.415-.315c.036-.082.06-.118.089-.118a.052.052,0,0,1,.046.028c.012.022,0,.052-.018.092a1.542,1.542,0,0,0-.151.672.9.9,0,0,0,.879.754.964.964,0,0,0,.654-.273,3.916,3.916,0,0,0,.838-1.753,5.014,5.014,0,0,1,.464-1.194.9.9,0,0,1,.736-.5.763.763,0,0,1,.355.094.94.94,0,0,1,.464.566h-.046a1.143,1.143,0,0,0-1.1.748.605.605,0,0,0,.211.778.739.739,0,0,1-.032-.772.844.844,0,0,1,.77-.48,1.164,1.164,0,0,1,.239.028,2.027,2.027,0,0,1-.122.626l-.014.042,0,.01c0,.008-.006.018-.008.028a1.436,1.436,0,0,0,.044,1.23,1.714,1.714,0,0,0-.969,1.517,1.2,1.2,0,0,0,.006.247,1.458,1.458,0,0,0-.674,1.6,1.242,1.242,0,0,0,1.135.915c.052,0,.1,0,.155,0a6.5,6.5,0,0,0,1.514-.253,6.249,6.249,0,0,1,1.264-.231l.078,0a.9.9,0,0,1,.632.193.41.41,0,0,1,.1.321c-.022.309-.351.377-.616.433l-.008,0a1.512,1.512,0,0,0-.207.054.426.426,0,0,0-.265.229.37.37,0,0,0,.014.307.454.454,0,0,0,.453.211l.088,0,.028,0h.018a.192.192,0,0,1,.162.064.208.208,0,0,1,.018.173.365.365,0,0,1-.06.092.358.358,0,0,0-.088.162.28.28,0,0,0,.008.132.04.04,0,0,1,0,.036.347.347,0,0,0,.032.221.343.343,0,0,1,.04.175.144.144,0,0,0,.087.144l-.058.369-.114.182.136-.14,0,0Zm-3.505-5.563a1.658,1.658,0,0,1,.495-.883.817.817,0,0,1,.528-.237.3.3,0,0,1,.283.177.409.409,0,0,1-.176.431,3.171,3.171,0,0,1-.9.431c-.092.032-.166.06-.228.084l0,0Zm2.433-.654a.8.8,0,0,1-.475-.333.308.308,0,0,1-.012-.3.3.3,0,0,1,.273-.135.718.718,0,0,1,.215.04,3.066,3.066,0,0,1,.819.556c.076.062.142.116.2.157a1.538,1.538,0,0,1-.526.09A1.638,1.638,0,0,1-7925.816,1064.609Zm-1.41-1.418a3.014,3.014,0,0,1,.074-.977c.018-.11.032-.189.04-.253a1.667,1.667,0,0,1,.526.871.79.79,0,0,1-.06.568.292.292,0,0,1-.255.16C-7927.058,1063.56-7927.18,1063.422-7927.226,1063.191Zm15.383-10.7a19.256,19.256,0,0,0-3.468-3.406l2.142-2.141a2.415,2.415,0,0,1,1.719-.712,2.417,2.417,0,0,1,1.719.712,2.421,2.421,0,0,1,.71,1.719,2.421,2.421,0,0,1-.71,1.719l-2.109,2.11,0,0Zm-.471-4.706a1.187,1.187,0,0,0-.359.851,1.178,1.178,0,0,0,.351.849l.006.006a1.227,1.227,0,0,0,.865.353,1.228,1.228,0,0,0,.866-.353,1.19,1.19,0,0,0,.357-.849,1.189,1.189,0,0,0-.351-.851l-.006-.006a1.228,1.228,0,0,0-.866-.353A1.219,1.219,0,0,0-7912.313,1047.782Zm-29.682,4.458-2.092-2.092a2.437,2.437,0,0,1,0-3.44,2.421,2.421,0,0,1,1.719-.71,2.421,2.421,0,0,1,1.719.71l2.182,2.181a19.216,19.216,0,0,0-3.525,3.35Zm-1.665-4.666,0,0a1.193,1.193,0,0,0-.353.853,1.182,1.182,0,0,0,.359.849,1.219,1.219,0,0,0,.863.353,1.228,1.228,0,0,0,.866-.353l.006-.006a1.2,1.2,0,0,0,.353-.851,1.2,1.2,0,0,0-.359-.849,1.228,1.228,0,0,0-.866-.353A1.224,1.224,0,0,0-7943.66,1047.574Z" transform="translate(8798 -264.021)" fill="#eee"/>
  </g>
</svg>
