<svg xmlns="http://www.w3.org/2000/svg" width="36.003" height="36.017" viewBox="0 0 36.003 36.017">
  <g id="pc_fan" data-name="pc fan" transform="translate(-593 -52)">
    <path id="Union_263" data-name="Union 263" d="M-8016.106,174.125a2.416,2.416,0,0,1-.71-1.72,2.406,2.406,0,0,1,.712-1.72l2.014-2.016a19.279,19.279,0,0,0,3.489,3.394l-2.062,2.062a2.417,2.417,0,0,1-1.722.71A2.416,2.416,0,0,1-8016.106,174.125Zm.475-2.555a1.193,1.193,0,0,0-.356.853,1.194,1.194,0,0,0,.352.853l0,0a1.23,1.23,0,0,0,.865.354,1.217,1.217,0,0,0,.865-.354,1.2,1.2,0,0,0,.36-.851,1.2,1.2,0,0,0-.356-.855l0,0a1.216,1.216,0,0,0-.863-.354A1.223,1.223,0,0,0-8015.631,171.57Zm9.646,1.75a18.1,18.1,0,0,1-3.057-1.64,17.917,17.917,0,0,1-2.66-2.175,17.813,17.813,0,0,1-2.2-2.63,17.7,17.7,0,0,1-1.658-3.024,17.509,17.509,0,0,1-1.413-6.923,17.518,17.518,0,0,1,1.413-6.925,17.609,17.609,0,0,1,1.658-3.02,18.023,18.023,0,0,1,2.2-2.634,17.594,17.594,0,0,1,2.66-2.171,18.176,18.176,0,0,1,3.057-1.642,18.064,18.064,0,0,1,7-1.4,18.072,18.072,0,0,1,7,1.4,18.021,18.021,0,0,1,3.056,1.642,17.951,17.951,0,0,1,2.662,2.171,18.068,18.068,0,0,1,2.2,2.634,17.477,17.477,0,0,1,1.658,3.02,17.51,17.51,0,0,1,1.413,6.925,17.5,17.5,0,0,1-1.413,6.923,17.7,17.7,0,0,1-1.658,3.024,17.964,17.964,0,0,1-2.2,2.63,18.212,18.212,0,0,1-2.662,2.175,18.25,18.25,0,0,1-3.056,1.64,18.034,18.034,0,0,1-7,1.4A18.027,18.027,0,0,1-8005.985,173.321Zm-4.851-28.116a16.373,16.373,0,0,0-4.91,11.724,16.377,16.377,0,0,0,4.91,11.724,16.745,16.745,0,0,0,11.849,4.855,16.757,16.757,0,0,0,11.855-4.855,16.388,16.388,0,0,0,4.907-11.724,16.384,16.384,0,0,0-4.907-11.724,16.75,16.75,0,0,0-11.855-4.857A16.739,16.739,0,0,0-8010.836,145.2Zm25.715,28.734-2.038-2.038a19.22,19.22,0,0,0,3.442-3.443l2.036,2.038a2.417,2.417,0,0,1,.712,1.72,2.418,2.418,0,0,1-.712,1.72,2.418,2.418,0,0,1-1.72.712A2.425,2.425,0,0,1-7985.121,173.938Zm.839-2.577-.006,0a1.2,1.2,0,0,0-.354.855,1.2,1.2,0,0,0,.36.853,1.22,1.22,0,0,0,.863.352,1.22,1.22,0,0,0,.865-.352l.006-.006a1.2,1.2,0,0,0,.352-.853,1.2,1.2,0,0,0-.358-.853,1.219,1.219,0,0,0-.863-.352A1.221,1.221,0,0,0-7984.282,171.361Zm-25.691-3.563a15.191,15.191,0,0,1-4.549-10.869,15.184,15.184,0,0,1,4.549-10.869,15.516,15.516,0,0,1,10.986-4.5,15.522,15.522,0,0,1,10.99,4.5,15.184,15.184,0,0,1,4.549,10.869A15.191,15.191,0,0,1-7988,167.8a15.52,15.52,0,0,1-10.99,4.5A15.529,15.529,0,0,1-8009.974,167.8Zm5.555-23.587a13.914,13.914,0,0,0-4.434,2.958,13.685,13.685,0,0,0-2.99,4.388,13.575,13.575,0,0,0-1.1,5.372,13.568,13.568,0,0,0,1.1,5.372,13.677,13.677,0,0,0,2.99,4.386,13.873,13.873,0,0,0,4.434,2.958,13.988,13.988,0,0,0,5.431,1.086,13.991,13.991,0,0,0,5.433-1.086,13.843,13.843,0,0,0,4.436-2.958,13.809,13.809,0,0,0,2.992-4.386,13.647,13.647,0,0,0,1.094-5.372,13.655,13.655,0,0,0-1.094-5.372,13.754,13.754,0,0,0-2.992-4.388,13.88,13.88,0,0,0-4.436-2.958,13.991,13.991,0,0,0-5.433-1.086A13.989,13.989,0,0,0-8004.418,144.211Zm1.288,25.3a2.1,2.1,0,0,1,.422-1.225,16.853,16.853,0,0,0,2.447-5.614,5.887,5.887,0,0,0,1.346.153,5.908,5.908,0,0,0,2.248-.439c1.147,2.742,1.563,4.537,1.237,5.334-.4.99-2.565,2.016-4.422,2.437A13.513,13.513,0,0,1-8003.13,169.512Zm10.633-.954a1.792,1.792,0,0,1-.789-1.266,16.774,16.774,0,0,0-2.322-5.471,5.81,5.81,0,0,0,2.215-2.791c2.849,1.167,4.475,2.155,4.835,2.94.453.99-.336,3.2-1.362,4.768a13.5,13.5,0,0,1-2.328,1.682c-.083.046-.165.093-.248.137Zm-15.593-1.984a13.264,13.264,0,0,1-2.374-2.98c-.123-.211-.241-.431-.356-.652a3.3,3.3,0,0,1,.8-.278,18.512,18.512,0,0,0,6.167-2.491,5.874,5.874,0,0,0,2.573,2.163c-1.261,2.863-2.332,4.493-3.175,4.847a1.99,1.99,0,0,1-.754.125A7.9,7.9,0,0,1-8008.09,166.574Zm3.72-9.575a5.354,5.354,0,0,1,5.382-5.324A5.355,5.355,0,0,1-7993.6,157a5.353,5.353,0,0,1-5.384,5.324A5.353,5.353,0,0,1-8004.37,157Zm16.978,3.3a18.444,18.444,0,0,0-5.716-2.3,5.8,5.8,0,0,0,.084-.994,5.726,5.726,0,0,0-.555-2.473,16,16,0,0,1,4.9-1.292,1.986,1.986,0,0,1,.694.1c.992.37,1.942,2.187,2.407,3.718a13.114,13.114,0,0,1-.538,3.644.592.592,0,0,1-.084,0A2.522,2.522,0,0,1-7987.393,160.3Zm-23.08.3a3.88,3.88,0,0,1-1.67-1.9,13.01,13.01,0,0,1,.419-5.366,3.664,3.664,0,0,1,.66.308,18.617,18.617,0,0,0,6.33,2.439,5.8,5.8,0,0,0-.073.919,5.741,5.741,0,0,0,.438,2.213,17.379,17.379,0,0,1-5.408,1.491A2,2,0,0,1-8010.472,160.6Zm5.972-5.467c-3.2-1.264-5.014-2.33-5.4-3.167a4.411,4.411,0,0,1,.455-3.066,13.278,13.278,0,0,1,3.793-3.284,2.458,2.458,0,0,1,.48,1.03,16.76,16.76,0,0,0,2.551,5.821,5.821,5.821,0,0,0-1.879,2.666Zm10.321-1.6a5.863,5.863,0,0,0-2.917-2.078c1.228-2.756,2.27-4.33,3.1-4.678a1.979,1.979,0,0,1,.752-.125,9.407,9.407,0,0,1,4.061,1.326,13.2,13.2,0,0,1,1.816,2.428c.063.1.115.2.161.284a2.226,2.226,0,0,1-1.225.608,18.394,18.394,0,0,0-5.745,2.235Zm-7.487-1.69c-1.241-2.905-1.7-4.8-1.36-5.626.4-.994,2.517-1.982,4.3-2.406a13.477,13.477,0,0,1,3.376.481,1.861,1.861,0,0,1-.4,1.36,16.812,16.812,0,0,0-2.433,5.565,5.865,5.865,0,0,0-.732-.044,5.962,5.962,0,0,0-2.748.67l0,0Zm17.851-6.567a19.278,19.278,0,0,0-3.466-3.414l2.143-2.143a2.419,2.419,0,0,1,1.72-.712,2.414,2.414,0,0,1,1.72.712,2.417,2.417,0,0,1,.712,1.72,2.406,2.406,0,0,1-.712,1.72l-2.115,2.117Zm-.467-4.712a1.2,1.2,0,0,0-.36.853,1.2,1.2,0,0,0,.354.853l0,0a1.223,1.223,0,0,0,.867.354,1.219,1.219,0,0,0,.863-.352,1.191,1.191,0,0,0,.358-.853,1.182,1.182,0,0,0-.354-.853l0-.006a1.209,1.209,0,0,0-.863-.354A1.23,1.23,0,0,0-7984.282,140.563Zm-29.711,4.5-2.095-2.094a2.439,2.439,0,0,1,0-3.443,2.421,2.421,0,0,1,1.722-.71,2.416,2.416,0,0,1,1.72.71l2.171,2.171a19.221,19.221,0,0,0-3.517,3.366Zm-1.636-4.71-.006.006a1.192,1.192,0,0,0-.354.853,1.2,1.2,0,0,0,.358.851,1.221,1.221,0,0,0,.865.354,1.222,1.222,0,0,0,.865-.354l.006,0a1.2,1.2,0,0,0,.353-.853,1.185,1.185,0,0,0-.358-.853,1.226,1.226,0,0,0-.865-.354A1.217,1.217,0,0,0-8015.629,140.356Z" transform="translate(8609.971 -86.819)" fill="#eee"/>
  </g>
</svg>
