<svg id="icon-protype" xmlns="http://www.w3.org/2000/svg" width="68.999" height="24.001" viewBox="0 0 68.999 24.001">
  <g id="Razer_Pro_Type_icon_default" data-name="Razer Pro Type icon default" transform="translate(0 0.001)">
    <path id="Subtraction_211" data-name="Subtraction 211" d="M-10932.707-3535h-65.585a1.526,1.526,0,0,1-1.708-1.471v-21.058c0-1.455,1.691-1.471,1.708-1.471h65.585a1.534,1.534,0,0,1,1.706,1.471v21.058C-10931-3535.017-10932.69-3535-10932.707-3535Zm-20.672-5.51a.342.342,0,0,0-.348.348v3.006a.342.342,0,0,0,.348.348h7.942a.342.342,0,0,0,.348-.348v-3.006a.342.342,0,0,0-.348-.348Zm-33.362,0a.34.34,0,0,0-.345.348v3.006a.341.341,0,0,0,.345.348h30.817a.342.342,0,0,0,.348-.348v-3.006a.342.342,0,0,0-.348-.348Zm-10.413,0a.34.34,0,0,0-.345.348v3.006a.341.341,0,0,0,.345.348h7.945a.34.34,0,0,0,.345-.348v-3.006a.341.341,0,0,0-.345-.348Zm60.227,0a.34.34,0,0,0-.346.345v3.009a.34.34,0,0,0,.346.345h3.009a.341.341,0,0,0,.348-.345v-3.009a.34.34,0,0,0-.348-.345Zm-5.547,0a.341.341,0,0,0-.348.345v3.009a.34.34,0,0,0,.348.345h3.007a.341.341,0,0,0,.348-.345v-3.009a.34.34,0,0,0-.348-.345Zm5.547-5.455a.34.34,0,0,0-.346.345v3.009a.342.342,0,0,0,.346.348h3.009a.342.342,0,0,0,.348-.348v-3.009a.34.34,0,0,0-.348-.345Zm-5.547,0a.341.341,0,0,0-.348.345v3.009a.342.342,0,0,0,.348.348h3.007a.342.342,0,0,0,.348-.348v-3.009a.34.34,0,0,0-.348-.345Zm-10.9,0a.341.341,0,0,0-.348.345v3.009a.342.342,0,0,0,.348.348h8.017a.341.341,0,0,0,.346-.348v-3.009a.34.34,0,0,0-.346-.345Zm-5.546,0a.341.341,0,0,0-.348.345v3.009a.342.342,0,0,0,.348.348h3.006a.343.343,0,0,0,.349-.348v-3.009a.341.341,0,0,0-.349-.345Zm-5.552,0a.339.339,0,0,0-.345.345v3.009a.341.341,0,0,0,.345.348h3.009a.341.341,0,0,0,.346-.348v-3.009a.34.34,0,0,0-.346-.345Zm-5.546,0a.341.341,0,0,0-.348.345v3.009a.342.342,0,0,0,.348.348h3.006a.341.341,0,0,0,.346-.348v-3.009a.34.34,0,0,0-.346-.345Zm-5.552,0a.339.339,0,0,0-.345.345v3.009a.341.341,0,0,0,.345.348h3.009a.341.341,0,0,0,.346-.348v-3.009a.34.34,0,0,0-.346-.345Zm-5.549,0a.339.339,0,0,0-.345.345v3.009a.341.341,0,0,0,.345.348h3.009a.341.341,0,0,0,.346-.348v-3.009a.34.34,0,0,0-.346-.345Zm-5.549,0a.341.341,0,0,0-.348.345v3.009a.342.342,0,0,0,.348.348h3.009a.341.341,0,0,0,.346-.348v-3.009a.34.34,0,0,0-.346-.345Zm-10.482,0a.339.339,0,0,0-.345.345v3.009a.341.341,0,0,0,.345.348h7.945a.34.34,0,0,0,.345-.348v-3.009a.339.339,0,0,0-.345-.345Zm60.307-5.455a.341.341,0,0,0-.346.348v3.006a.342.342,0,0,0,.346.348h3.009a.34.34,0,0,0,.345-.348v-3.006a.341.341,0,0,0-.345-.348Zm-5.544,0a.342.342,0,0,0-.348.348v3.006a.342.342,0,0,0,.348.348h3.007a.342.342,0,0,0,.348-.348v-3.006a.342.342,0,0,0-.348-.348Zm-7.9,0a.342.342,0,0,0-.348.348v3.006a.342.342,0,0,0,.348.348h4.931a.342.342,0,0,0,.348-.348v-3.006a.342.342,0,0,0-.348-.348Zm-5.552,0a.342.342,0,0,0-.348.348v3.006a.342.342,0,0,0,.348.348h3.009a.341.341,0,0,0,.346-.348v-3.006a.342.342,0,0,0-.346-.348Zm-5.546,0a.341.341,0,0,0-.346.348v3.006a.342.342,0,0,0,.346.348h3.009a.34.34,0,0,0,.345-.348v-3.006a.341.341,0,0,0-.345-.348Zm-5.549,0a.341.341,0,0,0-.346.348v3.006a.342.342,0,0,0,.346.348h3.009a.34.34,0,0,0,.345-.348v-3.006a.341.341,0,0,0-.345-.348Zm-5.549,0a.341.341,0,0,0-.346.348v3.006a.342.342,0,0,0,.346.348h3.006a.342.342,0,0,0,.348-.348v-3.006a.342.342,0,0,0-.348-.348Zm-5.549,0a.343.343,0,0,0-.349.348v3.006a.343.343,0,0,0,.349.348h3.009a.34.34,0,0,0,.345-.348v-3.006a.341.341,0,0,0-.345-.348Zm-5.55,0a.342.342,0,0,0-.348.348v3.006a.342.342,0,0,0,.348.348h3.007a.342.342,0,0,0,.348-.348v-3.006a.342.342,0,0,0-.348-.348Zm-5.549,0a.342.342,0,0,0-.348.348v3.006a.342.342,0,0,0,.348.348h3.007a.342.342,0,0,0,.348-.348v-3.006a.342.342,0,0,0-.348-.348Zm-8.017,0a.34.34,0,0,0-.345.348v3.006a.341.341,0,0,0,.345.348h5.478a.34.34,0,0,0,.345-.348v-3.006a.341.341,0,0,0-.345-.348Zm48.585-5.455a.34.34,0,0,0-.346.345v3.009a.342.342,0,0,0,.346.348h3.009a.342.342,0,0,0,.348-.348v-3.009a.34.34,0,0,0-.348-.345Zm-5.4,0a.339.339,0,0,0-.345.345v3.009a.341.341,0,0,0,.345.348h3.01a.34.34,0,0,0,.345-.348v-3.009a.34.34,0,0,0-.345-.345Zm-5.395,0a.341.341,0,0,0-.348.345v3.009a.342.342,0,0,0,.348.348h3.007a.342.342,0,0,0,.348-.348v-3.009a.34.34,0,0,0-.348-.345Zm-5.4,0a.339.339,0,0,0-.345.345v3.009a.341.341,0,0,0,.345.348h3.009a.341.341,0,0,0,.346-.348v-3.009a.34.34,0,0,0-.346-.345Zm-5.4,0a.341.341,0,0,0-.348.345v3.009a.342.342,0,0,0,.348.348h3.007a.342.342,0,0,0,.348-.348v-3.009a.34.34,0,0,0-.348-.345Zm-5.4,0a.339.339,0,0,0-.345.345v3.009a.341.341,0,0,0,.345.348h3.009a.341.341,0,0,0,.346-.348v-3.009a.34.34,0,0,0-.346-.345Zm-5.4,0a.34.34,0,0,0-.346.345v3.009a.342.342,0,0,0,.346.348h3.009a.342.342,0,0,0,.348-.348v-3.009a.34.34,0,0,0-.348-.345Zm-5.4,0a.339.339,0,0,0-.345.345v3.009a.341.341,0,0,0,.345.348h3.009a.341.341,0,0,0,.346-.348v-3.009a.34.34,0,0,0-.346-.345Zm-5.395,0a.341.341,0,0,0-.348.345v3.009a.342.342,0,0,0,.348.348h3.007a.342.342,0,0,0,.348-.348v-3.009a.34.34,0,0,0-.348-.345Zm-5.4,0a.339.339,0,0,0-.345.345v3.009a.341.341,0,0,0,.345.348h3.009a.343.343,0,0,0,.349-.348v-3.009a.341.341,0,0,0-.349-.345Z" transform="translate(11000 3559)" fill="#eee"/>
  </g>
</svg>
