<svg id="icon-ornata" xmlns="http://www.w3.org/2000/svg" width="66.001" height="34.001" viewBox="0 0 66.001 34.001">
  <g id="Razer_Ornata_icon_default" data-name="Razer Ornata icon default" transform="translate(0.001 0.001)">
    <g id="Group_415" data-name="Group 415" transform="translate(0 26.649)">
      <rect id="Rectangle_142" data-name="Rectangle 142" width="66" height="7.351" fill="#eee"/>
    </g>
    <g id="Group_416" data-name="Group 416">
      <path id="Subtraction_209" data-name="Subtraction 209" d="M-10724-3523.27h-66V-3549h66v25.73Zm-22.11-7.046a.314.314,0,0,0-.319.317v2.765a.315.315,0,0,0,.319.32h7.279a.315.315,0,0,0,.319-.32V-3530a.313.313,0,0,0-.319-.317Zm-30.581,0a.314.314,0,0,0-.319.317v2.765a.315.315,0,0,0,.319.32h28.25a.313.313,0,0,0,.316-.32V-3530a.312.312,0,0,0-.316-.317Zm-9.545,0a.314.314,0,0,0-.319.317v2.765a.315.315,0,0,0,.319.32h7.281a.313.313,0,0,0,.317-.32V-3530a.312.312,0,0,0-.317-.317Zm55.206,0a.313.313,0,0,0-.316.32v2.762a.314.314,0,0,0,.316.32h2.76a.313.313,0,0,0,.316-.32V-3530a.314.314,0,0,0-.316-.32Zm-5.085,0a.315.315,0,0,0-.319.32v2.762a.315.315,0,0,0,.319.32h2.757a.313.313,0,0,0,.316-.32V-3530a.314.314,0,0,0-.316-.32Zm5.085-5.01a.312.312,0,0,0-.316.317v2.765a.314.314,0,0,0,.316.319h2.76a.312.312,0,0,0,.316-.319v-2.765a.312.312,0,0,0-.316-.317Zm-5.085,0a.314.314,0,0,0-.319.317v2.765a.315.315,0,0,0,.319.319h2.757a.312.312,0,0,0,.316-.319v-2.765a.312.312,0,0,0-.316-.317Zm-10,0a.314.314,0,0,0-.319.317v2.765a.315.315,0,0,0,.319.319h7.35a.312.312,0,0,0,.316-.319v-2.765a.312.312,0,0,0-.316-.317Zm-5.086,0a.312.312,0,0,0-.316.317v2.765a.314.314,0,0,0,.316.319h2.757a.315.315,0,0,0,.32-.319v-2.765a.313.313,0,0,0-.32-.317Zm-5.088,0a.312.312,0,0,0-.316.317v2.765a.314.314,0,0,0,.316.319h2.76a.312.312,0,0,0,.316-.319v-2.765a.312.312,0,0,0-.316-.317Zm-5.083,0a.314.314,0,0,0-.319.317v2.765a.315.315,0,0,0,.319.319h2.757a.313.313,0,0,0,.317-.319v-2.765a.312.312,0,0,0-.317-.317Zm-5.088,0a.314.314,0,0,0-.319.317v2.765a.315.315,0,0,0,.319.319h2.757a.312.312,0,0,0,.316-.319v-2.765a.312.312,0,0,0-.316-.317Zm-5.088,0a.312.312,0,0,0-.317.317v2.765a.314.314,0,0,0,.317.319h2.759a.313.313,0,0,0,.317-.319v-2.765a.312.312,0,0,0-.317-.317Zm-5.086,0a.312.312,0,0,0-.316.317v2.765a.314.314,0,0,0,.316.319h2.757a.312.312,0,0,0,.316-.319v-2.765a.312.312,0,0,0-.316-.317Zm-9.607,0a.314.314,0,0,0-.319.317v2.765a.315.315,0,0,0,.319.319h7.281a.313.313,0,0,0,.317-.319v-2.765a.312.312,0,0,0-.317-.317Zm55.279-5.012a.312.312,0,0,0-.316.317v2.765a.314.314,0,0,0,.316.32h2.757a.315.315,0,0,0,.319-.32v-2.765a.313.313,0,0,0-.319-.317Zm-5.082,0a.312.312,0,0,0-.317.317v2.765a.314.314,0,0,0,.317.32h2.756a.315.315,0,0,0,.32-.32v-2.765a.313.313,0,0,0-.32-.317Zm-7.244,0a.314.314,0,0,0-.319.317v2.765a.315.315,0,0,0,.319.32h4.522a.313.313,0,0,0,.316-.32v-2.765a.312.312,0,0,0-.316-.317Zm-5.091,0a.312.312,0,0,0-.317.317v2.765a.314.314,0,0,0,.317.32h2.759a.313.313,0,0,0,.317-.32v-2.765a.312.312,0,0,0-.317-.317Zm-5.083,0a.312.312,0,0,0-.316.317v2.765a.314.314,0,0,0,.316.32h2.757a.315.315,0,0,0,.319-.32v-2.765a.313.313,0,0,0-.319-.317Zm-5.085,0a.314.314,0,0,0-.32.317v2.765a.315.315,0,0,0,.32.32h2.756a.313.313,0,0,0,.317-.32v-2.765a.312.312,0,0,0-.317-.317Zm-5.089,0a.312.312,0,0,0-.316.317v2.765a.314.314,0,0,0,.316.32h2.76a.313.313,0,0,0,.316-.32v-2.765a.312.312,0,0,0-.316-.317Zm-5.085,0a.312.312,0,0,0-.317.317v2.765a.314.314,0,0,0,.317.32h2.756a.313.313,0,0,0,.317-.32v-2.765a.312.312,0,0,0-.317-.317Zm-5.086,0a.314.314,0,0,0-.319.317v2.765a.315.315,0,0,0,.319.32h2.757a.313.313,0,0,0,.316-.32v-2.765a.312.312,0,0,0-.316-.317Zm-5.088,0a.312.312,0,0,0-.317.317v2.765a.314.314,0,0,0,.317.32h2.757a.315.315,0,0,0,.319-.32v-2.765a.313.313,0,0,0-.319-.317Zm-7.347,0a.314.314,0,0,0-.319.317v2.765a.315.315,0,0,0,.319.32h5.018a.315.315,0,0,0,.319-.32v-2.765a.313.313,0,0,0-.319-.317Zm55.274-5.015a.313.313,0,0,0-.317.32v2.765a.312.312,0,0,0,.317.317h2.759a.312.312,0,0,0,.317-.317v-2.765a.314.314,0,0,0-.317-.32Zm-5.15,0a.313.313,0,0,0-.317.32v2.765a.312.312,0,0,0,.317.317h2.759a.312.312,0,0,0,.317-.317v-2.765a.314.314,0,0,0-.317-.32Zm-5.587,0a.315.315,0,0,0-.319.32v2.765a.313.313,0,0,0,.319.317h2.757a.312.312,0,0,0,.316-.317v-2.765a.314.314,0,0,0-.316-.32Zm-4.953,0a.313.313,0,0,0-.316.32v2.765a.312.312,0,0,0,.316.317h2.76a.312.312,0,0,0,.316-.317v-2.765a.314.314,0,0,0-.316-.32Zm-4.944,0a.315.315,0,0,0-.319.32v2.765a.313.313,0,0,0,.319.317h2.757a.314.314,0,0,0,.319-.317v-2.765a.315.315,0,0,0-.319-.32Zm-4.95,0a.313.313,0,0,0-.316.32v2.765a.312.312,0,0,0,.316.317h2.76a.312.312,0,0,0,.316-.317v-2.765a.314.314,0,0,0-.316-.32Zm-4.947,0a.313.313,0,0,0-.316.32v2.765a.312.312,0,0,0,.316.317h2.757a.314.314,0,0,0,.319-.317v-2.765a.315.315,0,0,0-.319-.32Zm-4.95,0a.313.313,0,0,0-.316.32v2.765a.312.312,0,0,0,.316.317h2.76a.312.312,0,0,0,.316-.317v-2.765a.314.314,0,0,0-.316-.32Zm-4.947,0a.315.315,0,0,0-.319.32v2.765a.313.313,0,0,0,.319.317h2.757a.312.312,0,0,0,.316-.317v-2.765a.314.314,0,0,0-.316-.32Zm-4.947,0a.315.315,0,0,0-.319.32v2.765a.313.313,0,0,0,.319.317h2.757a.312.312,0,0,0,.316-.317v-2.765a.314.314,0,0,0-.316-.32Zm-4.947,0a.313.313,0,0,0-.317.32v2.765a.312.312,0,0,0,.317.317h2.759a.312.312,0,0,0,.317-.317v-2.765a.314.314,0,0,0-.317-.32Zm-4.95,0a.315.315,0,0,0-.319.32v2.765a.313.313,0,0,0,.319.317h2.757a.312.312,0,0,0,.316-.317v-2.765a.314.314,0,0,0-.316-.32Z" transform="translate(10790 3549)" fill="#eee"/>
    </g>
  </g>
</svg>
