<svg xmlns="http://www.w3.org/2000/svg" width="54.685" height="34.501" viewBox="0 0 54.685 34.501">
  <g id="icon-blackwidow" transform="translate(0.499)">
    <g id="Razer_BlackWidow_icon_default" data-name="Razer BlackWidow icon default" transform="translate(0.001 0.001)">
      <g id="Group_319" data-name="Group 319">
        <path id="Subtraction_206" data-name="Subtraction 206" d="M-10442.865-3523.947h-50.584a1.516,1.516,0,0,1-1.552-1.536v-21.982a1.522,1.522,0,0,1,1.552-1.536h50.584a1.515,1.515,0,0,1,1.549,1.536v21.982A1.52,1.52,0,0,1-10442.865-3523.947Zm-9.3-6.861a.3.3,0,0,0-.308.311v2.692a.3.3,0,0,0,.308.308h7.109a.3.3,0,0,0,.308-.308v-2.692a.305.305,0,0,0-.308-.311Zm-29.848,0a.306.306,0,0,0-.311.311v2.692a.3.3,0,0,0,.311.308h27.572a.3.3,0,0,0,.311-.308v-2.692a.306.306,0,0,0-.311-.311Zm-9.315,0a.306.306,0,0,0-.311.311v2.692a.3.3,0,0,0,.311.308h7.106a.3.3,0,0,0,.311-.308v-2.692a.306.306,0,0,0-.311-.311Zm39.163-4.881a.3.3,0,0,0-.308.311v2.692a.3.3,0,0,0,.308.308h7.175a.305.305,0,0,0,.311-.308v-2.692a.306.306,0,0,0-.311-.311Zm-4.962,0a.3.3,0,0,0-.309.311v2.692a.3.3,0,0,0,.309.308h2.691a.305.305,0,0,0,.311-.308v-2.692a.306.306,0,0,0-.311-.311Zm-4.965,0a.3.3,0,0,0-.309.311v2.692a.3.3,0,0,0,.309.308h2.691a.305.305,0,0,0,.311-.308v-2.692a.306.306,0,0,0-.311-.311Zm-4.965,0a.3.3,0,0,0-.309.311v2.692a.3.3,0,0,0,.309.308h2.691a.305.305,0,0,0,.311-.308v-2.692a.306.306,0,0,0-.311-.311Zm-4.965,0a.3.3,0,0,0-.309.311v2.692a.3.3,0,0,0,.309.308h2.691a.305.305,0,0,0,.311-.308v-2.692a.306.306,0,0,0-.311-.311Zm-4.965,0a.3.3,0,0,0-.309.311v2.692a.3.3,0,0,0,.309.308h2.691a.305.305,0,0,0,.311-.308v-2.692a.306.306,0,0,0-.311-.311Zm-4.965,0a.307.307,0,0,0-.312.311v2.692a.3.3,0,0,0,.312.308h2.691a.305.305,0,0,0,.311-.308v-2.692a.306.306,0,0,0-.311-.311Zm-9.377,0a.306.306,0,0,0-.311.311v2.692a.3.3,0,0,0,.311.308h7.106a.305.305,0,0,0,.311-.308v-2.692a.306.306,0,0,0-.311-.311Zm41.924-4.881a.3.3,0,0,0-.309.308v2.692a.306.306,0,0,0,.309.311h4.414a.306.306,0,0,0,.311-.311v-2.692a.3.3,0,0,0-.311-.308Zm-4.968,0a.3.3,0,0,0-.309.308v2.692a.306.306,0,0,0,.309.311h2.691a.307.307,0,0,0,.312-.311v-2.692a.3.3,0,0,0-.312-.308Zm-4.96,0a.305.305,0,0,0-.311.308v2.692a.306.306,0,0,0,.311.311h2.689a.306.306,0,0,0,.311-.311v-2.692a.3.3,0,0,0-.311-.308Zm-4.965,0a.305.305,0,0,0-.311.308v2.692a.306.306,0,0,0,.311.311h2.689a.306.306,0,0,0,.311-.311v-2.692a.3.3,0,0,0-.311-.308Zm-4.965,0a.305.305,0,0,0-.311.308v2.692a.306.306,0,0,0,.311.311h2.689a.306.306,0,0,0,.311-.311v-2.692a.3.3,0,0,0-.311-.308Zm-4.968,0a.305.305,0,0,0-.311.308v2.692a.306.306,0,0,0,.311.311h2.692a.306.306,0,0,0,.311-.311v-2.692a.3.3,0,0,0-.311-.308Zm-4.962,0a.305.305,0,0,0-.311.308v2.692a.306.306,0,0,0,.311.311h2.689a.306.306,0,0,0,.311-.311v-2.692a.3.3,0,0,0-.311-.308Zm-4.968,0a.305.305,0,0,0-.311.308v2.692a.306.306,0,0,0,.311.311h2.692a.306.306,0,0,0,.311-.311v-2.692a.3.3,0,0,0-.311-.308Zm-7.169,0a.305.305,0,0,0-.311.308v2.692a.306.306,0,0,0,.311.311h4.9a.306.306,0,0,0,.311-.311v-2.692a.3.3,0,0,0-.311-.308Zm43.47-4.881a.305.305,0,0,0-.311.308v2.692a.306.306,0,0,0,.311.311h2.691a.307.307,0,0,0,.312-.311v-2.692a.3.3,0,0,0-.312-.308Zm-4.833,0a.3.3,0,0,0-.309.308v2.692a.306.306,0,0,0,.309.311h2.691a.306.306,0,0,0,.311-.311v-2.692a.3.3,0,0,0-.311-.308Zm-4.825,0a.306.306,0,0,0-.312.308v2.692a.306.306,0,0,0,.312.311h2.688a.307.307,0,0,0,.312-.311v-2.692a.3.3,0,0,0-.312-.308Zm-4.834,0a.3.3,0,0,0-.308.308v2.692a.305.305,0,0,0,.308.311h2.692a.306.306,0,0,0,.311-.311v-2.692a.3.3,0,0,0-.311-.308Zm-4.83,0a.3.3,0,0,0-.309.308v2.692a.306.306,0,0,0,.309.311h2.694a.306.306,0,0,0,.311-.311v-2.692a.3.3,0,0,0-.311-.308Zm-4.828,0a.305.305,0,0,0-.311.308v2.692a.306.306,0,0,0,.311.311h2.692a.3.3,0,0,0,.308-.311v-2.692a.3.3,0,0,0-.308-.308Zm-4.83,0a.306.306,0,0,0-.312.308v2.692a.306.306,0,0,0,.312.311h2.691a.3.3,0,0,0,.309-.311v-2.692a.3.3,0,0,0-.309-.308Zm-4.831,0a.305.305,0,0,0-.311.308v2.692a.306.306,0,0,0,.311.311h2.692a.306.306,0,0,0,.311-.311v-2.692a.3.3,0,0,0-.311-.308Zm-4.828,0a.3.3,0,0,0-.308.308v2.692a.305.305,0,0,0,.308.311h2.692a.306.306,0,0,0,.311-.311v-2.692a.3.3,0,0,0-.311-.308Zm-4.83,0a.305.305,0,0,0-.311.308v2.692a.306.306,0,0,0,.311.311h2.691a.3.3,0,0,0,.309-.311v-2.692a.3.3,0,0,0-.309-.308Z" transform="translate(10495 3549)" fill="#eee"/>
      </g>
      <path id="Path_90" data-name="Path 90" d="M-2597-2573h53.684v5.209l-1.971,1.949h-49.45l-2.263-1.949Z" transform="translate(2597 2599.842)" fill="#eee" stroke="#eee" stroke-width="1"/>
    </g>
  </g>
</svg>
