<svg id="icon-tartarus" xmlns="http://www.w3.org/2000/svg" xmlns:xlink="http://www.w3.org/1999/xlink" width="27.54" height="34.001" viewBox="0 0 27.54 34.001">
  <defs>
    <clipPath id="clip-path">
      <path id="Path_8048" data-name="Path 8048" d="M11133.306,3549.133s-11.1-.642-20.395,1.958c-.7.491-.618.709-.562,1.309s1.437,16,1.437,16l1.853,1.711-2.153,7.157s-.278,3.607,7.873,3.871,8.972-1.357,9.067-2.42.57-7.388.57-7.388,4.208-.474,4.685-.6a43.6,43.6,0,0,0,4.029-3.286s.453-7.8-.256-8.711a15.468,15.468,0,0,0-3.025-2.3l-3.122.954Z" transform="translate(-11112.313 -3549.063)" fill="#eee"/>
    </clipPath>
  </defs>
  <g id="Razer_Tartarus_icon_default" data-name="Razer Tartarus icon default" transform="translate(-1192.312 -99.063)">
    <path id="Subtraction_215" data-name="Subtraction 215" d="M10.751,34h0c-.515,0-1.081-.011-1.68-.03-2.433-.078-5.648-.524-7.152-2.2A2.494,2.494,0,0,1,1.2,30.1l2.128-9.057L1.472,19.333C1.469,19.3.1,4.056.035,3.337c0-.027,0-.052-.007-.076l0-.046C-.029,2.7-.05,2.484.6,2.029A68.371,68.371,0,0,1,17.817,0c.817,0,1.588.012,2.292.034v13.1h1.718l.194-5.131,2.093-.639.009.015c.276.471,1.224,2.071,1.831,2.853.7.9.26,8.633.256,8.711l0,.006a19.551,19.551,0,0,1-2.839,2.713c-.412.106-3.643.478-4.623.59l-.061.007s0,.027,0,.063v.021c0,.036,0,.081-.008.135l-.01.169c-.364,6.58-.486,8.471-.525,8.9a1.857,1.857,0,0,1-1.256,1.593A15.52,15.52,0,0,1,10.751,34ZM24.033,16.188a1.823,1.823,0,0,0-1.563,1.384,1.676,1.676,0,0,0,.749,2.192,1.073,1.073,0,0,0,.329.052,1.827,1.827,0,0,0,1.564-1.385,2.188,2.188,0,0,0,.018-1.372,1.233,1.233,0,0,0-.767-.819A1.05,1.05,0,0,0,24.033,16.188Zm-7.959-4.28a2,2,0,0,0-2,2v2.429a2,2,0,0,0,2,2h.611a2,2,0,0,0,2-2V13.909a2,2,0,0,0-2-2ZM6.99,12.9l-.071,0-2.259.157a1,1,0,0,0-.928,1.067l.158,2.25a1,1,0,0,0,1,.931l.069,0,2.259-.158a1,1,0,0,0,.928-1.067l-.158-2.25A1,1,0,0,0,6.99,12.9Zm5.1-.357-.071,0L9.765,12.7a1,1,0,0,0-.927,1.067l.157,2.25a1,1,0,0,0,1,.931l.071,0,2.259-.158a1,1,0,0,0,.929-1.067l-.158-2.25A1,1,0,0,0,12.1,12.544ZM6.633,7.807l-.07,0L4.3,7.968a1,1,0,0,0-.927,1.067l.157,2.25a1,1,0,0,0,1,.93l.071,0,2.259-.158a1,1,0,0,0,.928-1.067L7.63,8.737A1,1,0,0,0,6.633,7.807Zm5.106-.356-.071,0L9.41,7.61a1,1,0,0,0-.928,1.067l.158,2.25a1,1,0,0,0,1,.931l.071,0,2.259-.158a1,1,0,0,0,.929-1.067l-.158-2.25A1,1,0,0,0,11.739,7.45Zm5.107-.357-.071,0-2.26.158a1,1,0,0,0-.928,1.067l.157,2.25a1,1,0,0,0,1,.931l.071,0,2.259-.157A1,1,0,0,0,18,10.274l-.158-2.25A1,1,0,0,0,16.845,7.093ZM6.278,2.713l-.071,0-2.259.158A1,1,0,0,0,3.02,3.941L3.178,6.19a1,1,0,0,0,1,.931l.071,0L6.5,6.961a1,1,0,0,0,.928-1.067l-.157-2.25A1,1,0,0,0,6.278,2.713Zm5.1-.356-.071,0-2.259.158a1,1,0,0,0-.928,1.067l.158,2.25a1,1,0,0,0,1,.931l.069,0L11.608,6.6a1,1,0,0,0,.929-1.067l-.158-2.25A1,1,0,0,0,11.383,2.356ZM16.489,2l-.071,0-2.26.158a1,1,0,0,0-.928,1.067l.158,2.25a1,1,0,0,0,1,.931l.071,0,2.26-.158a1,1,0,0,0,.927-1.067l-.157-2.25A1,1,0,0,0,16.489,2Z" transform="translate(1192.312 99.063)" fill="#eee"/>
    <g id="Mask_Group_12" data-name="Mask Group 12" transform="translate(1192.314 99.063)" clip-path="url(#clip-path)">
      <path id="Path_8049" data-name="Path 8049" d="M11176.09,3572.342s5.641-4.953,13.214-3.5,2.608,15.138,2.608,15.138" transform="translate(-11174.445 -3549.577)" fill="none" stroke="#1a1a1a" stroke-width="0.75"/>
      <path id="Path_8052" data-name="Path 8052" d="M1242.276,119.963l3.8-1.278v-6.533" transform="translate(-1225.64 -100.029)" fill="none" stroke="#1a1a1a" stroke-width="0.75"/>
    </g>
    <path id="Subtraction_217" data-name="Subtraction 217" d="M1.778,4.631H1a1,1,0,0,1-.984-.82H2.762A1,1,0,0,1,1.778,4.631Zm1-1.367H0V2.349H2.778v.913Zm0-1.463H0V1A1.019,1.019,0,0,1,.006.887H2.772A1.023,1.023,0,0,1,2.778,1v.8ZM2.528.338H.251A1,1,0,0,1,1,0h.779a1,1,0,0,1,.748.336Z" transform="translate(1207.303 111.878)" fill="#eee"/>
  </g>
</svg>
