<svg id="icon-turret" xmlns="http://www.w3.org/2000/svg" width="74.501" height="32.002" viewBox="0 0 74.501 32.002">
  <g id="Turret_icon_default" data-name="Turret icon default" transform="translate(-433.899 -194.5)">
    <path id="Subtraction_210" data-name="Subtraction 210" d="M-10398.833-3324.5h-56.534a1.694,1.694,0,0,1-1.732-1.716v-28.569a1.7,1.7,0,0,1,1.732-1.716h56.534a1.7,1.7,0,0,1,1.734,1.716v28.569A1.7,1.7,0,0,1-10398.833-3324.5Zm-10.388-11.668a.34.34,0,0,0-.346.346v3.008a.341.341,0,0,0,.346.346h7.944a.341.341,0,0,0,.347-.346v-3.008a.341.341,0,0,0-.347-.346Zm-33.361,0a.34.34,0,0,0-.346.346v3.008a.341.341,0,0,0,.346.346h30.818a.341.341,0,0,0,.347-.346v-3.008a.341.341,0,0,0-.347-.346Zm-10.413,0a.341.341,0,0,0-.347.346v3.008a.341.341,0,0,0,.347.346h7.944a.34.34,0,0,0,.346-.346v-3.008a.341.341,0,0,0-.346-.346Zm43.774-5.456a.34.34,0,0,0-.346.346v3.008a.341.341,0,0,0,.346.346h8.018a.341.341,0,0,0,.347-.346v-3.008a.341.341,0,0,0-.347-.346Zm-5.545,0a.341.341,0,0,0-.347.346v3.008a.341.341,0,0,0,.347.346h3.008a.34.34,0,0,0,.346-.346v-3.008a.341.341,0,0,0-.346-.346Zm-5.551,0a.341.341,0,0,0-.347.346v3.008a.341.341,0,0,0,.347.346h3.008a.341.341,0,0,0,.347-.346v-3.008a.341.341,0,0,0-.347-.346Zm-5.548,0a.341.341,0,0,0-.347.346v3.008a.341.341,0,0,0,.347.346h3.008a.34.34,0,0,0,.346-.346v-3.008a.341.341,0,0,0-.346-.346Zm-5.551,0a.341.341,0,0,0-.347.346v3.008a.341.341,0,0,0,.347.346h3.008a.341.341,0,0,0,.347-.346v-3.008a.341.341,0,0,0-.347-.346Zm-5.548,0a.341.341,0,0,0-.347.346v3.008a.341.341,0,0,0,.347.346h3.008a.341.341,0,0,0,.347-.346v-3.008a.341.341,0,0,0-.347-.346Zm-5.551,0a.34.34,0,0,0-.346.346v3.008a.341.341,0,0,0,.346.346h3.011a.339.339,0,0,0,.344-.346v-3.008a.34.34,0,0,0-.344-.346Zm-10.481,0a.341.341,0,0,0-.347.346v3.008a.341.341,0,0,0,.347.346h7.944a.34.34,0,0,0,.346-.346v-3.008a.341.341,0,0,0-.346-.346Zm46.858-5.456a.341.341,0,0,0-.347.346v3.007a.341.341,0,0,0,.347.346h4.934a.341.341,0,0,0,.347-.346v-3.007a.341.341,0,0,0-.347-.346Zm-5.551,0a.341.341,0,0,0-.347.346v3.007a.341.341,0,0,0,.347.346h3.008a.341.341,0,0,0,.347-.346v-3.007a.341.341,0,0,0-.347-.346Zm-5.545,0a.341.341,0,0,0-.347.346v3.007a.341.341,0,0,0,.347.346h3.007a.341.341,0,0,0,.347-.346v-3.007a.341.341,0,0,0-.347-.346Zm-5.551,0a.341.341,0,0,0-.347.346v3.007a.341.341,0,0,0,.347.346h3.008a.342.342,0,0,0,.349-.346v-3.007a.342.342,0,0,0-.349-.346Zm-5.548,0a.341.341,0,0,0-.347.346v3.007a.341.341,0,0,0,.347.346h3.008a.34.34,0,0,0,.346-.346v-3.007a.341.341,0,0,0-.346-.346Zm-5.551,0a.341.341,0,0,0-.347.346v3.007a.341.341,0,0,0,.347.346h3.01a.341.341,0,0,0,.347-.346v-3.007a.341.341,0,0,0-.347-.346Zm-5.548,0a.341.341,0,0,0-.347.346v3.007a.341.341,0,0,0,.347.346h3.008a.34.34,0,0,0,.346-.346v-3.007a.341.341,0,0,0-.346-.346Zm-5.548,0a.341.341,0,0,0-.347.346v3.007a.341.341,0,0,0,.347.346h3.008a.34.34,0,0,0,.346-.346v-3.007a.341.341,0,0,0-.346-.346Zm-8.018,0a.341.341,0,0,0-.347.346v3.007a.341.341,0,0,0,.347.346h5.477a.341.341,0,0,0,.347-.346v-3.007a.341.341,0,0,0-.347-.346Zm48.585-5.456a.339.339,0,0,0-.344.346v3.01a.34.34,0,0,0,.344.346h3.008a.341.341,0,0,0,.347-.346v-3.01a.341.341,0,0,0-.347-.346Zm-5.4,0a.342.342,0,0,0-.349.346v3.01a.342.342,0,0,0,.349.346h3.008a.341.341,0,0,0,.347-.346v-3.01a.341.341,0,0,0-.347-.346Zm-5.4,0a.342.342,0,0,0-.349.346v3.01a.342.342,0,0,0,.349.346h3.008a.341.341,0,0,0,.347-.346v-3.01a.341.341,0,0,0-.347-.346Zm-5.4,0a.34.34,0,0,0-.346.346v3.01a.341.341,0,0,0,.346.346h3.011a.341.341,0,0,0,.347-.346v-3.01a.341.341,0,0,0-.347-.346Zm-5.4,0a.342.342,0,0,0-.349.346v3.01a.342.342,0,0,0,.349.346h3.008a.341.341,0,0,0,.347-.346v-3.01a.341.341,0,0,0-.347-.346Zm-5.4,0a.342.342,0,0,0-.349.346v3.01a.342.342,0,0,0,.349.346h3.008a.341.341,0,0,0,.347-.346v-3.01a.341.341,0,0,0-.347-.346Zm-5.4,0a.341.341,0,0,0-.347.346v3.01a.341.341,0,0,0,.347.346h3.01a.339.339,0,0,0,.344-.346v-3.01a.34.34,0,0,0-.344-.346Zm-5.4,0a.341.341,0,0,0-.347.346v3.01a.341.341,0,0,0,.347.346h3.01a.341.341,0,0,0,.347-.346v-3.01a.341.341,0,0,0-.347-.346Zm-5.394,0a.342.342,0,0,0-.349.346v3.01a.342.342,0,0,0,.349.346h3.008a.341.341,0,0,0,.347-.346v-3.01a.341.341,0,0,0-.347-.346Zm-5.4,0a.341.341,0,0,0-.347.346v3.01a.341.341,0,0,0,.347.346h3.01a.341.341,0,0,0,.347-.346v-3.01a.341.341,0,0,0-.347-.346Z" transform="translate(10890.999 3551)" fill="#eee"/>
    <rect id="Rectangle_144" data-name="Rectangle 144" width="12" height="26" transform="translate(495.9 197.5)" fill="#eee" stroke="#eee" stroke-width="1"/>
  </g>
</svg>
