<svg id="icon-cynosa" xmlns="http://www.w3.org/2000/svg" width="70" height="28.002" viewBox="0 0 70 28.002">
  <g id="Razer_Cynosa_icon_default" data-name="Razer Cynosa icon default" transform="translate(0.001 0)">
    <path id="Subtraction_208" data-name="Subtraction 208" d="M-10651.832-3527l-31.437,0a1.692,1.692,0,0,1-1.732-1.714v-24.569a1.7,1.7,0,0,1,1.732-1.716h31.437v.5h2.971v-.5h32.128a1.694,1.694,0,0,1,1.732,1.716v24.569a1.7,1.7,0,0,1-1.732,1.714h-32.128v-1.5h-2.971v1.5h0Zm14.175-7.669a.342.342,0,0,0-.349.346v3.009a.341.341,0,0,0,.349.346h7.942a.34.34,0,0,0,.346-.346v-3.009a.34.34,0,0,0-.346-.346Zm-33.08,0a.339.339,0,0,0-.344.346v3.009a.34.34,0,0,0,.344.346h30.819a.34.34,0,0,0,.346-.346v-3.009a.34.34,0,0,0-.346-.346Zm-10.158,0a.34.34,0,0,0-.346.346v3.009a.34.34,0,0,0,.346.346h7.943a.34.34,0,0,0,.346-.346v-3.009a.34.34,0,0,0-.346-.346Zm59.526,0a.341.341,0,0,0-.347.346v3.009a.341.341,0,0,0,.347.346h3.009a.34.34,0,0,0,.346-.346v-3.009a.34.34,0,0,0-.346-.346Zm-5.549,0a.34.34,0,0,0-.346.346v3.009a.34.34,0,0,0,.346.346h3.009a.339.339,0,0,0,.344-.346v-3.009a.34.34,0,0,0-.344-.346Zm5.549-5.452a.341.341,0,0,0-.347.346v3.009a.341.341,0,0,0,.347.346h3.009a.34.34,0,0,0,.346-.346v-3.009a.34.34,0,0,0-.346-.346Zm-5.549,0a.34.34,0,0,0-.346.346v3.009a.34.34,0,0,0,.346.346h3.009a.339.339,0,0,0,.344-.346v-3.009a.34.34,0,0,0-.344-.346Zm-10.739,0a.342.342,0,0,0-.349.346v3.009a.341.341,0,0,0,.349.346h8.018a.34.34,0,0,0,.346-.346v-3.009a.34.34,0,0,0-.346-.346Zm-5.449,0a.34.34,0,0,0-.346.346v3.009a.34.34,0,0,0,.346.346h3.009a.34.34,0,0,0,.346-.346v-3.009a.34.34,0,0,0-.346-.346Zm-5.492,0a.34.34,0,0,0-.346.346v3.009a.34.34,0,0,0,.346.346h3.009a.341.341,0,0,0,.347-.346v-3.009a.341.341,0,0,0-.347-.346Zm-5.491,0a.341.341,0,0,0-.347.346v3.009a.341.341,0,0,0,.347.346h3.009a.342.342,0,0,0,.349-.346v-3.009a.341.341,0,0,0-.349-.346Zm-5.489,0a.342.342,0,0,0-.349.346v3.009a.341.341,0,0,0,.349.346h3.006a.34.34,0,0,0,.346-.346v-3.009a.34.34,0,0,0-.346-.346Zm-5.492,0a.34.34,0,0,0-.346.346v3.009a.34.34,0,0,0,.346.346h3.009a.34.34,0,0,0,.346-.346v-3.009a.34.34,0,0,0-.346-.346Zm-5.492,0a.34.34,0,0,0-.346.346v3.009a.34.34,0,0,0,.346.346h3.009a.341.341,0,0,0,.347-.346v-3.009a.341.341,0,0,0-.347-.346Zm-10.332,0a.34.34,0,0,0-.346.346v3.009a.34.34,0,0,0,.346.346h7.943a.34.34,0,0,0,.346-.346v-3.009a.34.34,0,0,0-.346-.346Zm59.606-5.457a.342.342,0,0,0-.349.346v3.009a.343.343,0,0,0,.349.349h3.009a.341.341,0,0,0,.346-.349v-3.009a.34.34,0,0,0-.346-.346Zm-5.546,0a.34.34,0,0,0-.346.346v3.009a.342.342,0,0,0,.346.349h3.009a.342.342,0,0,0,.347-.349v-3.009a.341.341,0,0,0-.347-.346Zm-7.747,0a.34.34,0,0,0-.346.346v3.009a.342.342,0,0,0,.346.349h4.932a.343.343,0,0,0,.349-.349v-3.009a.341.341,0,0,0-.349-.346Zm-5.479,0a.34.34,0,0,0-.346.346v3.009a.342.342,0,0,0,.346.349h3.009a.342.342,0,0,0,.347-.349v-3.009a.341.341,0,0,0-.347-.346Zm-5.486,0a.34.34,0,0,0-.346.346v3.009a.342.342,0,0,0,.346.349h3.009a.341.341,0,0,0,.346-.349v-3.009a.34.34,0,0,0-.346-.346Zm-5.491,0a.341.341,0,0,0-.347.346v3.009a.343.343,0,0,0,.347.349h3.008a.342.342,0,0,0,.347-.349v-3.009a.341.341,0,0,0-.347-.346Zm-5.492,0a.34.34,0,0,0-.346.346v3.009a.342.342,0,0,0,.346.349h3.009a.341.341,0,0,0,.346-.349v-3.009a.34.34,0,0,0-.346-.346Zm-5.489,0a.342.342,0,0,0-.349.346v3.009a.343.343,0,0,0,.349.349h3.006a.343.343,0,0,0,.349-.349v-3.009a.341.341,0,0,0-.349-.346Zm-5.492,0a.34.34,0,0,0-.346.346v3.009a.342.342,0,0,0,.346.349h3.009a.341.341,0,0,0,.346-.349v-3.009a.34.34,0,0,0-.346-.346Zm-5.491,0a.341.341,0,0,0-.347.346v3.009a.343.343,0,0,0,.347.349h3.008a.342.342,0,0,0,.347-.349v-3.009a.341.341,0,0,0-.347-.346Zm-7.893,0a.34.34,0,0,0-.346.346v3.009a.342.342,0,0,0,.346.349h5.476a.342.342,0,0,0,.347-.349v-3.009a.341.341,0,0,0-.347-.346Zm48.038-5.454a.34.34,0,0,0-.346.346v3.009a.34.34,0,0,0,.346.346h3.009a.34.34,0,0,0,.346-.346v-3.009a.34.34,0,0,0-.346-.346Zm-5.345,0a.34.34,0,0,0-.346.346v3.009a.34.34,0,0,0,.346.346h3.009a.341.341,0,0,0,.347-.346v-3.009a.341.341,0,0,0-.347-.346Zm-5.339,0a.34.34,0,0,0-.346.346v3.009a.34.34,0,0,0,.346.346h3.009a.34.34,0,0,0,.346-.346v-3.009a.34.34,0,0,0-.346-.346Zm-5.342,0a.34.34,0,0,0-.346.346v3.009a.34.34,0,0,0,.346.346h3.009a.34.34,0,0,0,.346-.346v-3.009a.34.34,0,0,0-.346-.346Zm-5.342,0a.34.34,0,0,0-.346.346v3.009a.34.34,0,0,0,.346.346h3.009a.341.341,0,0,0,.347-.346v-3.009a.341.341,0,0,0-.347-.346Zm-5.344,0a.339.339,0,0,0-.344.346v3.009a.34.34,0,0,0,.344.346h3.009a.342.342,0,0,0,.349-.346v-3.009a.341.341,0,0,0-.349-.346Zm-5.342,0a.34.34,0,0,0-.346.346v3.009a.34.34,0,0,0,.346.346h3.009a.34.34,0,0,0,.346-.346v-3.009a.34.34,0,0,0-.346-.346Zm-5.342,0a.34.34,0,0,0-.346.346v3.009a.34.34,0,0,0,.346.346h3.009a.34.34,0,0,0,.346-.346v-3.009a.34.34,0,0,0-.346-.346Zm-5.242,0a.341.341,0,0,0-.347.346v3.009a.341.341,0,0,0,.347.346h3.009a.34.34,0,0,0,.346-.346v-3.009a.34.34,0,0,0-.346-.346Zm-5.4,0a.34.34,0,0,0-.346.346v3.009a.34.34,0,0,0,.346.346h3.009a.34.34,0,0,0,.346-.346v-3.009a.34.34,0,0,0-.346-.346Z" transform="translate(10685 3555)" fill="#eee"/>
  </g>
</svg>
