<svg id="icon-huntsman" xmlns="http://www.w3.org/2000/svg" width="60.001" height="27.999" viewBox="0 0 60.001 27.999">
  <g id="Razer_Huntsman_icon_default" data-name="Razer Huntsman icon default" transform="translate(0 -6)">
    <g id="Group_391" data-name="Group 391" transform="translate(0 6)">
      <path id="Subtraction_207" data-name="Subtraction 207" d="M-10531.731-3527h-56.536a1.693,1.693,0,0,1-1.732-1.714v-24.568a1.7,1.7,0,0,1,1.732-1.717h56.536a1.694,1.694,0,0,1,1.732,1.717v24.568A1.7,1.7,0,0,1-10531.731-3527Zm-10.39-7.667a.342.342,0,0,0-.348.348v3.006a.342.342,0,0,0,.348.348h7.941a.343.343,0,0,0,.349-.348v-3.006a.343.343,0,0,0-.349-.348Zm-33.362,0a.341.341,0,0,0-.346.348v3.006a.342.342,0,0,0,.346.348h30.819a.341.341,0,0,0,.346-.348v-3.006a.342.342,0,0,0-.346-.348Zm-10.413,0a.341.341,0,0,0-.346.348v3.006a.342.342,0,0,0,.346.348h7.944a.342.342,0,0,0,.348-.348v-3.006a.342.342,0,0,0-.348-.348Zm43.775-5.454a.341.341,0,0,0-.348.346v3.009a.341.341,0,0,0,.348.345h8.016a.34.34,0,0,0,.346-.345v-3.009a.34.34,0,0,0-.346-.346Zm-5.547,0a.341.341,0,0,0-.348.346v3.009a.341.341,0,0,0,.348.345h3.009a.34.34,0,0,0,.346-.345v-3.009a.34.34,0,0,0-.346-.346Zm-5.549,0a.342.342,0,0,0-.349.346v3.009a.341.341,0,0,0,.349.345h3.006a.341.341,0,0,0,.348-.345v-3.009a.341.341,0,0,0-.348-.346Zm-5.55,0a.339.339,0,0,0-.345.346v3.009a.34.34,0,0,0,.345.345h3.009a.34.34,0,0,0,.346-.345v-3.009a.34.34,0,0,0-.346-.346Zm-5.549,0a.34.34,0,0,0-.346.346v3.009a.34.34,0,0,0,.346.345h3.009a.339.339,0,0,0,.345-.345v-3.009a.34.34,0,0,0-.345-.346Zm-5.55,0a.34.34,0,0,0-.346.346v3.009a.34.34,0,0,0,.346.345h3.009a.34.34,0,0,0,.346-.345v-3.009a.34.34,0,0,0-.346-.346Zm-5.549,0a.34.34,0,0,0-.346.346v3.009a.34.34,0,0,0,.346.345h3.008a.34.34,0,0,0,.346-.345v-3.009a.34.34,0,0,0-.346-.346Zm-10.482,0a.34.34,0,0,0-.346.346v3.009a.34.34,0,0,0,.346.345h7.944a.341.341,0,0,0,.348-.345v-3.009a.341.341,0,0,0-.348-.346Zm46.858-5.456a.341.341,0,0,0-.346.348v3.006a.342.342,0,0,0,.346.348h4.933a.343.343,0,0,0,.349-.348v-3.006a.343.343,0,0,0-.349-.348Zm-5.552,0a.341.341,0,0,0-.346.348v3.006a.342.342,0,0,0,.346.348h3.009a.34.34,0,0,0,.345-.348v-3.006a.342.342,0,0,0-.345-.348Zm-5.544,0a.341.341,0,0,0-.346.348v3.006a.342.342,0,0,0,.346.348h3.009a.34.34,0,0,0,.345-.348v-3.006a.342.342,0,0,0-.345-.348Zm-5.55,0a.342.342,0,0,0-.348.348v3.006a.343.343,0,0,0,.348.348h3.009a.341.341,0,0,0,.346-.348v-3.006a.342.342,0,0,0-.346-.348Zm-5.549,0a.341.341,0,0,0-.346.348v3.006a.342.342,0,0,0,.346.348h3.006a.342.342,0,0,0,.348-.348v-3.006a.342.342,0,0,0-.348-.348Zm-5.55,0a.342.342,0,0,0-.348.348v3.006a.343.343,0,0,0,.348.348h3.009a.341.341,0,0,0,.346-.348v-3.006a.342.342,0,0,0-.346-.348Zm-5.549,0a.341.341,0,0,0-.346.348v3.006a.342.342,0,0,0,.346.348h3.008a.341.341,0,0,0,.346-.348v-3.006a.342.342,0,0,0-.346-.348Zm-5.55,0a.341.341,0,0,0-.346.348v3.006a.342.342,0,0,0,.346.348h3.009a.341.341,0,0,0,.346-.348v-3.006a.342.342,0,0,0-.346-.348Zm-8.016,0a.341.341,0,0,0-.346.348v3.006a.342.342,0,0,0,.346.348h5.478a.341.341,0,0,0,.346-.348v-3.006a.342.342,0,0,0-.346-.348Zm48.586-5.456a.341.341,0,0,0-.346.348v3.009a.34.34,0,0,0,.346.345h3.009a.34.34,0,0,0,.346-.345v-3.009a.342.342,0,0,0-.346-.348Zm-5.4,0a.341.341,0,0,0-.346.348v3.009a.34.34,0,0,0,.346.345h3.009a.34.34,0,0,0,.346-.345v-3.009a.342.342,0,0,0-.346-.348Zm-5.4,0a.342.342,0,0,0-.348.348v3.009a.341.341,0,0,0,.348.345h3.009a.34.34,0,0,0,.346-.345v-3.009a.342.342,0,0,0-.346-.348Zm-5.4,0a.341.341,0,0,0-.346.348v3.009a.34.34,0,0,0,.346.345h3.009a.341.341,0,0,0,.348-.345v-3.009a.342.342,0,0,0-.348-.348Zm-5.4,0a.341.341,0,0,0-.346.348v3.009a.34.34,0,0,0,.346.345h3.009a.341.341,0,0,0,.348-.345v-3.009a.342.342,0,0,0-.348-.348Zm-5.4,0a.34.34,0,0,0-.345.348v3.009a.34.34,0,0,0,.345.345h3.009a.34.34,0,0,0,.346-.345v-3.009a.342.342,0,0,0-.346-.348Zm-5.4,0a.343.343,0,0,0-.349.348v3.009a.341.341,0,0,0,.349.345h3.009a.34.34,0,0,0,.346-.345v-3.009a.342.342,0,0,0-.346-.348Zm-5.4,0a.343.343,0,0,0-.349.348v3.009a.341.341,0,0,0,.349.345h3.008a.34.34,0,0,0,.346-.345v-3.009a.342.342,0,0,0-.346-.348Zm-5.4,0a.343.343,0,0,0-.349.348v3.009a.341.341,0,0,0,.349.345h3.006a.341.341,0,0,0,.348-.345v-3.009a.342.342,0,0,0-.348-.348Zm-5.4,0a.341.341,0,0,0-.346.348v3.009a.34.34,0,0,0,.346.345h3.009a.341.341,0,0,0,.348-.345v-3.009a.342.342,0,0,0-.348-.348Z" transform="translate(10590 3555)" fill="#eee"/>
    </g>
  </g>
</svg>
