<svg xmlns="http://www.w3.org/2000/svg" width="76.001" height="32" viewBox="0 0 76.001 32">
  <g id="icon-deathstalker" transform="translate(0.159 1.466)">
    <path id="Subtraction_211" data-name="Subtraction 211" d="M74.119,32H1.881A1.875,1.875,0,0,1,0,30.084V2.642A1.863,1.863,0,0,1,1.881.725H7.133V.372a.1.1,0,0,1,.1-.1h2a.1.1,0,0,1,.1.1V.725H11.49V.2a.2.2,0,0,1,.2-.2h3.555a.2.2,0,0,1,.2.2V.725h2.2V.2a.2.2,0,0,1,.2-.2H21.4a.2.2,0,0,1,.2.2V.725h2.2V.2A.2.2,0,0,1,24,0h3.556a.2.2,0,0,1,.2.2V.725H74.119A1.875,1.875,0,0,1,76,2.642V30.084A1.863,1.863,0,0,1,74.119,32Zm-4.088-6.107a.351.351,0,0,0-.354.364v3.162a.355.355,0,0,0,.354.364H73.1a.351.351,0,0,0,.353-.364V26.257a.355.355,0,0,0-.353-.364Zm-5.524,0a.351.351,0,0,0-.354.364v3.162a.355.355,0,0,0,.354.364h3.065a.351.351,0,0,0,.353-.364V26.257a.355.355,0,0,0-.353-.364Zm-5.525,0a.351.351,0,0,0-.353.364v3.162a.355.355,0,0,0,.353.364h3.066a.351.351,0,0,0,.353-.364V26.257a.355.355,0,0,0-.353-.364Zm-11.471,0a.351.351,0,0,0-.354.364v3.162a.356.356,0,0,0,.354.365h8.095a.352.352,0,0,0,.354-.365V26.256a.355.355,0,0,0-.354-.364Zm-34,0a.351.351,0,0,0-.353.364v3.162a.355.355,0,0,0,.353.365H44.92a.351.351,0,0,0,.353-.365V26.256a.355.355,0,0,0-.353-.364Zm-10.613,0a.351.351,0,0,0-.353.364v3.162a.355.355,0,0,0,.353.365H11a.351.351,0,0,0,.353-.365V26.256A.355.355,0,0,0,11,25.892Zm61.607-5.733a.351.351,0,0,0-.354.364v3.162a.356.356,0,0,0,.354.365h3.065a.351.351,0,0,0,.353-.365V20.523a.355.355,0,0,0-.353-.364Zm-18.8,0s-.428,0-.428.364v3.162a.382.382,0,0,0,.428.365h9.9s.427,0,.427-.365V20.523a.381.381,0,0,0-.427-.364Zm-5.731,0a.351.351,0,0,0-.353.364v3.162a.355.355,0,0,0,.353.365h3.066a.35.35,0,0,0,.352-.365V20.523a.354.354,0,0,0-.352-.364Zm-5.656,0a.351.351,0,0,0-.353.364v3.162a.355.355,0,0,0,.353.365h3.065a.351.351,0,0,0,.353-.365V20.523a.355.355,0,0,0-.353-.364Zm-5.656,0a.351.351,0,0,0-.353.364v3.162a.355.355,0,0,0,.353.365H31.73a.351.351,0,0,0,.353-.365V20.523a.355.355,0,0,0-.353-.364Zm-5.656,0a.351.351,0,0,0-.353.364v3.162a.355.355,0,0,0,.353.365h3.065a.352.352,0,0,0,.354-.365V20.523a.355.355,0,0,0-.354-.364Zm-5.656,0a.351.351,0,0,0-.354.364v3.162a.356.356,0,0,0,.354.365h3.065a.351.351,0,0,0,.353-.365V20.523a.355.355,0,0,0-.353-.364Zm-14.3,0c-.005,0-.5,0-.5.364v3.162s.006.365.5.365h11.56c.005,0,.5,0,.5-.365V20.523s-.006-.364-.5-.364Zm44.46-5.734a.351.351,0,0,0-.354.364v3.162a.356.356,0,0,0,.354.365h8.17a.351.351,0,0,0,.353-.365V14.789a.355.355,0,0,0-.353-.364Zm-5.653,0a.351.351,0,0,0-.353.364v3.162a.355.355,0,0,0,.353.365h3.066a.351.351,0,0,0,.353-.365V14.789a.355.355,0,0,0-.353-.364Zm-5.656,0a.351.351,0,0,0-.353.364v3.162a.355.355,0,0,0,.353.365H39.27a.351.351,0,0,0,.353-.365V14.789a.355.355,0,0,0-.353-.364Zm-5.654,0a.351.351,0,0,0-.353.364v3.162a.355.355,0,0,0,.353.365h3.065a.351.351,0,0,0,.353-.365V14.789a.355.355,0,0,0-.353-.364Zm-5.656,0a.351.351,0,0,0-.354.364v3.162a.356.356,0,0,0,.354.365h3.065a.351.351,0,0,0,.353-.365V14.789a.355.355,0,0,0-.353-.364Zm-5.656,0a.351.351,0,0,0-.353.364v3.162a.355.355,0,0,0,.353.365H22.3a.352.352,0,0,0,.354-.365V14.789a.355.355,0,0,0-.354-.364Zm-5.656,0a.351.351,0,0,0-.353.364v3.162a.355.355,0,0,0,.353.365h3.066A.351.351,0,0,0,17,17.951V14.789a.355.355,0,0,0-.353-.364Zm-10.682,0a.351.351,0,0,0-.353.364v3.162a.355.355,0,0,0,.353.365H11a.351.351,0,0,0,.353-.365V14.789A.355.355,0,0,0,11,14.425Zm67.131,0a.351.351,0,0,0-.354.364v3.162a.355.355,0,0,0,.354.364H73.1a.351.351,0,0,0,.353-.364V14.789a.355.355,0,0,0-.353-.364Zm-5.512,0a.351.351,0,0,0-.353.364v3.162a.355.355,0,0,0,.353.364h3.065a.351.351,0,0,0,.354-.364V14.789a.355.355,0,0,0-.354-.364Zm-5.538,0a.351.351,0,0,0-.353.364v3.162a.355.355,0,0,0,.353.364h3.065a.351.351,0,0,0,.354-.364V14.789a.355.355,0,0,0-.354-.364ZM70.032,8.691a.351.351,0,0,0-.354.364v3.162a.356.356,0,0,0,.354.365H73.1a.351.351,0,0,0,.353-.365V9.055a.355.355,0,0,0-.353-.364Zm-5.512,0a.351.351,0,0,0-.353.364v3.162a.355.355,0,0,0,.353.365h3.066a.351.351,0,0,0,.353-.365V9.055a.355.355,0,0,0-.353-.364Zm-5.538,0a.351.351,0,0,0-.353.364v3.162a.355.355,0,0,0,.353.365h3.065a.352.352,0,0,0,.354-.365V9.055a.355.355,0,0,0-.354-.364Zm-8.328,0a.351.351,0,0,0-.353.364v3.162a.355.355,0,0,0,.353.365h5.027a.351.351,0,0,0,.353-.365V9.055a.355.355,0,0,0-.353-.364ZM45,8.691a.351.351,0,0,0-.354.364v3.162a.356.356,0,0,0,.354.365h3.065a.351.351,0,0,0,.353-.365V9.055a.355.355,0,0,0-.353-.364Zm-5.652,0a.35.35,0,0,0-.352.364v3.162a.355.355,0,0,0,.352.365h3.066a.351.351,0,0,0,.353-.365V9.055a.355.355,0,0,0-.353-.364Zm-5.655,0a.351.351,0,0,0-.354.364v3.162a.356.356,0,0,0,.354.365h3.065a.351.351,0,0,0,.353-.365V9.055a.355.355,0,0,0-.353-.364Zm-5.656,0a.351.351,0,0,0-.353.364v3.162a.355.355,0,0,0,.353.365H31.1a.352.352,0,0,0,.354-.365V9.055a.355.355,0,0,0-.354-.364Zm-5.655,0a.351.351,0,0,0-.354.364v3.162a.356.356,0,0,0,.354.365h3.065a.352.352,0,0,0,.354-.365V9.055a.355.355,0,0,0-.354-.364Zm-5.656,0a.351.351,0,0,0-.353.364v3.162a.355.355,0,0,0,.353.365H19.79a.352.352,0,0,0,.354-.365V9.055a.355.355,0,0,0-.354-.364Zm-5.655,0a.351.351,0,0,0-.354.364v3.162a.356.356,0,0,0,.354.365h3.065a.352.352,0,0,0,.354-.365V9.055a.355.355,0,0,0-.354-.364Zm-8.169,0a.351.351,0,0,0-.353.364v3.162a.355.355,0,0,0,.353.365H8.482a.351.351,0,0,0,.353-.365V9.055a.355.355,0,0,0-.353-.364ZM52.416,2.957a.352.352,0,0,0-.354.365V6.484a.355.355,0,0,0,.354.364h3.065a.351.351,0,0,0,.353-.364V3.322a.355.355,0,0,0-.353-.365Zm-5.5,0a.352.352,0,0,0-.354.365V6.484a.355.355,0,0,0,.354.364h3.064a.351.351,0,0,0,.354-.364V3.322a.356.356,0,0,0-.354-.365Zm-5.5,0a.351.351,0,0,0-.353.365V6.484a.355.355,0,0,0,.353.364h3.065a.351.351,0,0,0,.354-.364V3.322a.356.356,0,0,0-.354-.365Zm-5.5,0a.351.351,0,0,0-.353.365V6.484a.355.355,0,0,0,.353.364h3.065a.351.351,0,0,0,.353-.364V3.322a.355.355,0,0,0-.353-.365Zm-5.5,0a.35.35,0,0,0-.352.365V6.484a.354.354,0,0,0,.352.364h3.066a.351.351,0,0,0,.353-.364V3.322a.355.355,0,0,0-.353-.365Zm-5.5,0a.351.351,0,0,0-.353.365V6.484a.355.355,0,0,0,.353.364h3.066a.351.351,0,0,0,.353-.364V3.322a.355.355,0,0,0-.353-.365Zm-5.5,0a.352.352,0,0,0-.354.365V6.484a.355.355,0,0,0,.354.364h3.065a.351.351,0,0,0,.353-.364V3.322a.355.355,0,0,0-.353-.365Zm-5.5,0a.352.352,0,0,0-.354.365V6.484a.355.355,0,0,0,.354.364H16.97a.351.351,0,0,0,.353-.364V3.322a.355.355,0,0,0-.353-.365Zm-5.5,0a.351.351,0,0,0-.353.365V6.484a.355.355,0,0,0,.353.364h3.066a.351.351,0,0,0,.353-.364V3.322a.355.355,0,0,0-.353-.365Zm-5.5,0a.351.351,0,0,0-.353.365V6.484a.355.355,0,0,0,.353.364H5.967a.351.351,0,0,0,.353-.364V3.322a.355.355,0,0,0-.353-.365Zm68.682.061V6.645H72.95a.5.5,0,0,0,.5-.5V3.518a.5.5,0,0,0-.5-.5Zm-7.028,0a.5.5,0,0,0-.5.5V6.144a.5.5,0,0,0,.5.5h1.367V3.019Zm-4.138,0a1.788,1.788,0,0,0-1.758,1.813,1.759,1.759,0,1,0,3.516,0A1.788,1.788,0,0,0,60.416,3.019Zm5.752.168V6.476h5.17V3.187Zm5.207,1.291v.708h.17V4.478Zm-5.414,0v.708h.169V4.478Z" transform="translate(-0.159 -1.466)" fill="#eee"/>
  </g>
</svg>
