<svg id="Layer_1" data-name="Layer 1" xmlns="http://www.w3.org/2000/svg" viewBox="0 0 20.83 20.83"><defs><style>.cls-1{fill:#44d62c;}.cls-2{fill:none;stroke:#44d62c;stroke-linecap:round;stroke-miterlimit:10;stroke-width:0.52px;}</style></defs><path class="cls-1" d="M11.79,7.18a2.78,2.78,0,0,1,1.13.8.11.11,0,0,1,0,.08,3.71,3.71,0,0,1-1.52,2,14.18,14.18,0,0,0,.26-2.79A.08.08,0,0,1,11.79,7.18Z"/><path class="cls-1" d="M13.81,9.49a2.92,2.92,0,0,1,.06,1.38.06.06,0,0,1,0,.06,3.63,3.63,0,0,1-2.5,0,13.9,13.9,0,0,0,2.35-1.52A.09.09,0,0,1,13.81,9.49Z"/><path class="cls-1" d="M13.22,12.49a2.85,2.85,0,0,1-1,.91H12.1a3.65,3.65,0,0,1-1.59-1.94,13.57,13.57,0,0,0,2.66.9A.08.08,0,0,1,13.22,12.49Z"/><path class="cls-1" d="M10.54,13.9a3,3,0,0,1-1.37-.21.07.07,0,0,1,0-.06,3.59,3.59,0,0,1,.45-2.46,13.65,13.65,0,0,0,1,2.6A.09.09,0,0,1,10.54,13.9Z"/><path class="cls-1" d="M7.68,12.66a2.82,2.82,0,0,1-.63-1.23.11.11,0,0,1,0-.08,3.6,3.6,0,0,1,2.27-1,13.81,13.81,0,0,0-1.53,2.34A.08.08,0,0,1,7.68,12.66Z"/><path class="cls-1" d="M6.9,9.73a3,3,0,0,1,.55-1.28.08.08,0,0,1,.07,0A3.63,3.63,0,0,1,9.79,9.48,14.17,14.17,0,0,0,7,9.82.08.08,0,0,1,6.9,9.73Z"/><path class="cls-1" d="M8.76,7.27a2.86,2.86,0,0,1,1.33-.35.08.08,0,0,1,.07,0,3.68,3.68,0,0,1,.55,2.45,14,14,0,0,0-2-2A.08.08,0,0,1,8.76,7.27Z"/><path class="cls-1" d="M10.39,9a1.44,1.44,0,1,0,1.45,1.44A1.44,1.44,0,0,0,10.39,9Zm0,2.61a1.17,1.17,0,1,1,1.17-1.17A1.16,1.16,0,0,1,10.39,11.56Z"/><circle class="cls-1" cx="10.39" cy="10.39" r="0.74"/><g id="Layer_2" data-name="Layer 2"><path class="cls-1" d="M10.42,20.83A10.42,10.42,0,1,1,20.83,10.42,10.41,10.41,0,0,1,10.42,20.83Zm0-20A9.63,9.63,0,1,0,20,10.42,9.63,9.63,0,0,0,10.42.79Z"/></g><path class="cls-2" d="M14,4.44H15.2a1.13,1.13,0,0,1,1.13,1.13V7.06"/><path class="cls-2" d="M4.5,6.94V5.69A1.14,1.14,0,0,1,5.64,4.56H7.12"/><path class="cls-2" d="M6.88,16.4H5.64A1.14,1.14,0,0,1,4.5,15.26V13.77"/><path class="cls-2" d="M16.33,13.89v1.25a1.13,1.13,0,0,1-1.13,1.13H13.71"/></svg>