<svg id="Layer_1" data-name="Layer 1" xmlns="http://www.w3.org/2000/svg" xmlns:xlink="http://www.w3.org/1999/xlink" viewBox="0 0 20.84 20.84"><defs><style>.cls-1,.cls-4{fill:none;}.cls-2{fill:#44d62c;}.cls-3{clip-path:url(#clip-path);}.cls-4{stroke:#44d62c;stroke-linecap:round;stroke-miterlimit:10;stroke-width:0.61px;}</style><clipPath id="clip-path" transform="translate(0.01 0.01)"><path class="cls-1" d="M11.37,17.3h0a.11.11,0,0,1,0,.08v.05l-.06.19a6.36,6.36,0,0,1-.87.06H9.53l-.07-.25a1.6,1.6,0,0,0-.1-.23.64.64,0,0,0-.08-.14L9.21,17A1.36,1.36,0,0,0,9,16.63H9a1.34,1.34,0,0,0-.81-.34,1.7,1.7,0,0,0-1.08.37l-.2.15a6.61,6.61,0,0,1-1.4-1l.07-.22a1.92,1.92,0,0,0,.11-.79,1.33,1.33,0,0,0-.26-.69,1.51,1.51,0,0,0-1.33-.59H3.8a9.25,9.25,0,0,1-.37-1c-.07-.23-.12-.44-.16-.64l.21-.14a1.57,1.57,0,0,0,.74-1.27h0a1.55,1.55,0,0,0-.74-1.26l-.21-.14A7.07,7.07,0,0,1,3.75,7.4H4a1.52,1.52,0,0,0,1.34-.59,1.41,1.41,0,0,0,.25-.69,1.77,1.77,0,0,0-.11-.79L5.4,5.11a8.26,8.26,0,0,1,1.42-1l.2.16a1.6,1.6,0,0,0,1.07.37,1.44,1.44,0,0,0,1.27-1h0a.14.14,0,0,1,0-.09h0l.06-.2c.3-.06.6-.1.9-.13h.87l.08.25a2.44,2.44,0,0,0,.1.24.64.64,0,0,0,.08.14l.06.1a1.69,1.69,0,0,0,.27.32h0a1.34,1.34,0,0,0,.81.34,1.66,1.66,0,0,0,1.07-.37L13.92,4a8.11,8.11,0,0,1,1.4,1l-.07.22a1.9,1.9,0,0,0-.11.78,1.33,1.33,0,0,0,.26.69,1.52,1.52,0,0,0,1.33.6H17a7,7,0,0,1,.37,1c.07.23.12.44.16.64l-.2.14a1.55,1.55,0,0,0-.75,1.27h0a1.53,1.53,0,0,0,.75,1.26l.2.14A7.47,7.47,0,0,1,17,13.4h-.26a1.49,1.49,0,0,0-1.34.6,1.33,1.33,0,0,0-.26.69,1.92,1.92,0,0,0,.11.79l.08.22a7.35,7.35,0,0,1-1.41,1l-.21-.15a1.72,1.72,0,0,0-1.07-.38,1.45,1.45,0,0,0-1.27,1Z"/></clipPath></defs><g id="Layer_2" data-name="Layer 2"><path class="cls-2" d="M18.23,11.24l-.42-.33a1,1,0,0,1-.39-.6.91.91,0,0,1,.39-.53l.42-.29a.36.36,0,0,0,.15-.29V9.08A6.5,6.5,0,0,0,18.14,8a8.6,8.6,0,0,0-.52-1.3.4.4,0,0,0-.36-.22h-.51a.77.77,0,0,1-.68-.27A.5.5,0,0,1,16,5.9a.86.86,0,0,1,0-.39L16.15,5a.41.41,0,0,0,0-.22A.36.36,0,0,0,16,4.6a7.9,7.9,0,0,0-2-1.49.35.35,0,0,0-.41,0l-.41.3a.82.82,0,0,1-.54.28c-.27,0-.5-.23-.6-.6L12,2.64a.37.37,0,0,0-.31-.28,10.94,10.94,0,0,0-1.14-.09h-.21a10.94,10.94,0,0,0-1.14.09.37.37,0,0,0-.31.28l-.15.49h0V3.2h0a.69.69,0,0,1-.6.52.87.87,0,0,1-.57-.22l-.4-.3a.35.35,0,0,0-.41,0,7.85,7.85,0,0,0-2,1.39H4.72a.43.43,0,0,0-.11.21.41.41,0,0,0,0,.22l.17.49a.82.82,0,0,1,.06.38.53.53,0,0,1-.1.32.28.28,0,0,1-.1.09h0a.89.89,0,0,1-.53.13H3.55a.44.44,0,0,0-.36.22A7.81,7.81,0,0,0,2.45,9.1h0a.4.4,0,0,0,.16.41L3,9.84a.93.93,0,0,1,.38.6A.85.85,0,0,1,3,11l-.42.29a.36.36,0,0,0-.15.3.11.11,0,0,0,0,.11,9.56,9.56,0,0,0,.24,1.06A8.07,8.07,0,0,0,3.22,14a.39.39,0,0,0,.36.21h.51a.76.76,0,0,1,.68.26.63.63,0,0,1,.1.32.86.86,0,0,1-.06.39l-.17.48a.41.41,0,0,0,0,.22.36.36,0,0,0,.11.21,7.9,7.9,0,0,0,2,1.49.38.38,0,0,0,.41,0l.4-.31a.91.91,0,0,1,.57-.21c.27,0,.5.22.6.59l.15.49a.4.4,0,0,0,.31.28,10.94,10.94,0,0,0,1.14.09h.21a10.94,10.94,0,0,0,1.14-.09.4.4,0,0,0,.31-.28l.15-.49h0v-.08h0a.69.69,0,0,1,.56-.49,1,1,0,0,1,.57.21l.4.31a.4.4,0,0,0,.42,0,8.18,8.18,0,0,0,2-1.4l.06-.06a.38.38,0,0,0,.1-.2.45.45,0,0,0,0-.23L16,15.25a1.32,1.32,0,0,1-.06-.39.63.63,0,0,1,.1-.32.39.39,0,0,1,.1-.08l.05-.05a1,1,0,0,1,.53-.13h.51a.36.36,0,0,0,.36-.21,7.84,7.84,0,0,0,.75-2.36h0A.42.42,0,0,0,18.23,11.24Zm-6.82,6h0a.11.11,0,0,1,0,.08h0l-.06.19a6.36,6.36,0,0,1-.87.06H9.57L9.5,17.4a1.6,1.6,0,0,0-.1-.23A.89.89,0,0,0,9.32,17a.41.41,0,0,0-.07-.11A1.32,1.32,0,0,0,9,16.61H9a1.25,1.25,0,0,0-.81-.35,1.76,1.76,0,0,0-1.08.37l-.2.15a6.61,6.61,0,0,1-1.4-1l.07-.22a1.92,1.92,0,0,0,.11-.79,1.33,1.33,0,0,0-.26-.69,1.51,1.51,0,0,0-1.33-.59H3.8c-.14-.32-.26-.66-.37-1a4.15,4.15,0,0,1-.16-.64l.21-.14a1.57,1.57,0,0,0,.74-1.27h0a1.55,1.55,0,0,0-.74-1.26L3.26,9a7.39,7.39,0,0,1,.53-1.65h.26a1.52,1.52,0,0,0,1.34-.59,1.32,1.32,0,0,0,.25-.69,1.91,1.91,0,0,0-.1-.79l-.09-.22a8.26,8.26,0,0,1,1.42-1l.2.16a1.6,1.6,0,0,0,1.07.37,1.44,1.44,0,0,0,1.27-1h0a.14.14,0,0,1,0-.09V3.42l.06-.2a9.06,9.06,0,0,1,.91-.13h.87l.07.25a2.44,2.44,0,0,0,.1.24.64.64,0,0,0,.08.14.36.36,0,0,0,.07.1,1.35,1.35,0,0,0,.26.32h0a1.34,1.34,0,0,0,.81.34,1.76,1.76,0,0,0,1.08-.37L14,4a7.6,7.6,0,0,1,1.4,1l-.07.22a1.9,1.9,0,0,0-.11.78,1.33,1.33,0,0,0,.26.69,1.52,1.52,0,0,0,1.33.6H17a7,7,0,0,1,.37,1c.07.23.12.44.16.64l-.2.14a1.55,1.55,0,0,0-.75,1.27h0a1.53,1.53,0,0,0,.75,1.26l.2.14A7.23,7.23,0,0,1,17,13.37h-.26a1.47,1.47,0,0,0-1.33.59,1.33,1.33,0,0,0-.26.69,1.92,1.92,0,0,0,.11.79l.08.22a6.94,6.94,0,0,1-1.41,1l-.2-.15a1.77,1.77,0,0,0-1.08-.38,1.45,1.45,0,0,0-1.27,1Z" transform="translate(0.01 0.01)"/><path class="cls-2" d="M10.42,20.83A10.42,10.42,0,1,1,20.83,10.4v0A10.41,10.41,0,0,1,10.42,20.83Zm0-20.09A9.68,9.68,0,1,0,20,10.52v-.06h0A9.68,9.68,0,0,0,10.42.74Z" transform="translate(0.01 0.01)"/></g><g class="cls-3"><path class="cls-2" d="M13.87,8.15V19.6h.53V8.15a1.59,1.59,0,0,0-1.59-1.59H3.48v.53h9.33A1.05,1.05,0,0,1,13.87,8.15Z" transform="translate(0.01 0.01)"/></g><path class="cls-4" d="M3.82,12.63H6.89a.25.25,0,0,0,.27-.17l.85-4a.31.31,0,0,1,.34-.15.21.21,0,0,1,.2.15l1,3.43a.27.27,0,0,0,.32.15.21.21,0,0,0,.2-.15L11.27,9a.3.3,0,0,1,.35-.13A.24.24,0,0,1,11.8,9l.68,2h1.24" transform="translate(0.01 0.01)"/></svg>