<svg xmlns="http://www.w3.org/2000/svg" width="34.964" height="34" viewBox="0 0 34.964 34"><defs><style>.a{fill:#eee;}</style></defs><g transform="translate(-968.016 -428)"><g transform="translate(3439.539 2902)"><g transform="translate(-2471.542 -2458.479)"><g transform="translate(0 1.976) rotate(-13)"><path class="a" d="M1.009.007,2.276,0a.936.936,0,0,1,.932.953L3.141,13.871a.96.96,0,0,1-.943.963L.932,14.84A.936.936,0,0,1,0,13.887L.067.97A.96.96,0,0,1,1.009.007Z" transform="translate(5.574 0)"/><path class="a" d="M2.08,13.793A3.933,3.933,0,0,0,0,12.21S.177,4.39.244,2.334A5.1,5.1,0,0,0,2.165.764a1.356,1.356,0,0,1,2.576.592V13.426a1.356,1.356,0,0,1-2.662.367Z" transform="translate(0 0.083)"/></g></g><g transform="translate(-2467.75 -2474)"><path class="a" d="M27.21,16.061h0l-3.009-.8a15.147,15.147,0,0,0-2.65-7.306,3.318,3.318,0,0,0,.163-1.021c0-2.805-3.637-5.088-8.108-5.088S5.5,4.132,5.5,6.937a3.252,3.252,0,0,0,.165,1.02,15.144,15.144,0,0,0-2.648,7.294L0,16.055a20.348,20.348,0,0,1,1.052-5.687,17.613,17.613,0,0,1,2.92-5.4A13.861,13.861,0,0,1,8.3,1.334a11.209,11.209,0,0,1,10.606,0,13.861,13.861,0,0,1,4.331,3.638,17.636,17.636,0,0,1,2.92,5.4,20.388,20.388,0,0,1,1.052,5.691Z" transform="translate(0 0)"/><path class="a" d="M.036,5.088h0A3.286,3.286,0,0,1,0,4.626C0,2.075,3.227,0,7.193,0s7.193,2.075,7.193,4.626a3.039,3.039,0,0,1-.035.457A4.381,4.381,0,0,0,12.036,2.13,9.717,9.717,0,0,0,7.193.925a9.717,9.717,0,0,0-4.842,1.2A4.369,4.369,0,0,0,.036,5.088Z" transform="translate(6.411 2.776)"/></g><g transform="translate(-2448.513 -2458.479)"><g transform="translate(8.628 16.477) rotate(-167)"><path class="a" d="M.933,0,2.2.007A.96.96,0,0,1,3.142.97l.068,12.918a.936.936,0,0,1-.932.953L1.01,14.834a.96.96,0,0,1-.943-.963L0,.953A.936.936,0,0,1,.933,0Z" transform="translate(5.647 0.025)"/><path class="a" d="M2.156,14.006A5.108,5.108,0,0,0,.244,12.449C.177,10.392,0,2.572,0,2.572A3.922,3.922,0,0,0,2.074,1a1.357,1.357,0,0,1,2.665.358V13.427a1.356,1.356,0,0,1-2.583.579Z" transform="translate(0 0)"/></g></g></g><path class="a" d="M5,3A1,1,0,0,1,5,1H6.954a1,1,0,0,1,0,2Zm6.854-.013H8.943V1.728s-1.283-.054,2.911,0S16.995,0,16.995,0s.387.252,1,.733C16.746,2.794,13.568,3,12.345,3,12.038,3,11.854,2.987,11.854,2.987Z" transform="translate(977 459)"/></g></svg>