<svg xmlns="http://www.w3.org/2000/svg" viewBox="0 0 32 32"><defs><style>.cls-1{fill:#44d62c;}</style></defs><title>icon</title><g id="Layer_2" data-name="Layer 2"><path class="cls-1" d="M16,3.1A12.9,12.9,0,1,1,3.1,16,12.92,12.92,0,0,1,16,3.1M16,2A14,14,0,1,0,30,16,14,14,0,0,0,16,2Z"/><path class="cls-1" d="M12.24,23.86a.65.65,0,0,1-.19,0,.5.5,0,0,1-.3-.41l-.25-2.53A5.22,5.22,0,0,1,6.82,15.7v-.27A5.21,5.21,0,0,1,12,10.22h8.36a5.22,5.22,0,0,1,5.21,5.21v.27a5.22,5.22,0,0,1-5.21,5.21H16.11l-3.56,2.84A.51.51,0,0,1,12.24,23.86Zm0-12.4a4,4,0,0,0-4,4v.25a4,4,0,0,0,4,4,.47.47,0,0,1,.46.43l.19,1.95,2.86-2.27a.46.46,0,0,1,.29-.1h4.24a4,4,0,0,0,4-4V15.5a4,4,0,0,0-4-4Z"/></g></svg>