<svg xmlns="http://www.w3.org/2000/svg" viewBox="0 0 32 32"><defs><style>.cls-1{fill:#44d62c;}</style></defs><title>icon</title><g id="Layer_2" data-name="Layer 2"><path class="cls-1" d="M16,2A14,14,0,1,0,30,16,14,14,0,0,0,16,2Zm0,26.94A12.94,12.94,0,1,1,28.94,16,12.95,12.95,0,0,1,16,28.94Z"/><path class="cls-1" d="M16.57,15.55l-1.21-.26a5.25,5.25,0,0,1-2.07-.86,2.34,2.34,0,0,1-.63-1.73c0-1.57,1-2.31,2.87-2.38a10.75,10.75,0,0,1,2.09.09l2.38.25.13-1.37s-1.37-.2-2.77-.33L17.74,6H16.61l-.38,2.86a4.61,4.61,0,0,0-.51,0C12.88,8.87,11,10,11,12.79s1.39,3.46,4.17,4.1c0,0,.9.16,1.27.26,1.68.42,2.34,1,2.34,2.38,0,2-1,2.92-3,2.95-.23,0-1.41-.05-1.41-.05-1.43-.1-3-.33-3-.33l-.18,1.36s1.62.26,3.17.37L14,26.29a4.89,4.89,0,0,0,1.13.16l.31-2.55h.33c2.91,0,4.68-1.26,4.68-4.48C20.44,17,19.24,16.2,16.57,15.55Z"/></g></svg>