<svg xmlns="http://www.w3.org/2000/svg" viewBox="0 0 32 32">
  <defs>
    <style>
      .cls-1 {
        fill: #44d62c;
      }
    </style>
  </defs>
  <title>icon</title>
  <g id="Layer_2" data-name="Layer 2">
    <g>
      <path class="cls-1" d="M16,2A14,14,0,1,0,30,16,14,14,0,0,0,16,2Zm0,26.91A12.91,12.91,0,1,1,28.91,16,12.92,12.92,0,0,1,16,28.91Z"/>
      <path class="cls-1" d="M21.79,13.74a2.07,2.07,0,1,0-1.95,0,3.3,3.3,0,0,0-1.18.66,4.65,4.65,0,0,0-2.1-.83,2.81,2.81,0,1,0-1.11,0,4.73,4.73,0,0,0-2.11.83,3.3,3.3,0,0,0-1.18-.66,2.07,2.07,0,1,0-1.95,0,4,4,0,0,0-2.63,3.92c0,2,1.33,3.25,3.55,3.27C11.72,22.86,13.44,24,16,24s4.29-1.12,4.88-3.05c2.22,0,3.54-1.24,3.54-3.27A4,4,0,0,0,21.79,13.74Zm-1-2.78a1,1,0,1,1-1,1A1,1,0,0,1,20.82,11Zm-6.53-.14A1.72,1.72,0,1,1,16,12.54,1.72,1.72,0,0,1,14.29,10.82ZM11.18,11a1,1,0,1,1-1,1A1,1,0,0,1,11.18,11Zm-2.51,6.7a2.8,2.8,0,0,1,2.51-3,2.17,2.17,0,0,1,1.33.46,6.22,6.22,0,0,0-1.62,4.25c0,.16,0,.31,0,.46C9.83,19.78,8.67,19.33,8.67,17.66ZM16,22.89c-1.5,0-4-.46-4-3.52,0-2.61,1.81-4.74,4-4.74a3.58,3.58,0,0,1,2.32.88h0A5,5,0,0,1,20,19.37C20,22.43,17.51,22.89,16,22.89Zm5.08-3.06c0-.15,0-.3,0-.46a6.19,6.19,0,0,0-1.63-4.25,2.19,2.19,0,0,1,1.33-.46,2.8,2.8,0,0,1,2.51,3A2,2,0,0,1,21.08,19.83Z"/>
    </g>
  </g>
</svg>
